<?xml version="1.0" standalone="no"?>
<!DOCTYPE svg PUBLIC "-//W3C//DTD SVG 1.1//EN" "http://www.w3.org/Graphics/SVG/1.1/DTD/svg11.dtd" >
<svg xmlns="http://www.w3.org/2000/svg" xmlns:xlink="http://www.w3.org/1999/xlink" version="1.1">
<metadata></metadata>
<defs>
<font id="virgin_hybrid_3dregular" horiz-adv-x="1484" >
<font-face units-per-em="2048" ascent="1638" descent="-410" />
<missing-glyph horiz-adv-x="905" />
<glyph horiz-adv-x="0" />
<glyph unicode="&#xd;" horiz-adv-x="1024" />
<glyph unicode=" "  horiz-adv-x="905" />
<glyph unicode="&#x09;" horiz-adv-x="905" />
<glyph unicode="&#xa0;" horiz-adv-x="905" />
<glyph unicode="!" horiz-adv-x="800" d="M96 39q0 10 2 23.5t13 31.5l90 250q12 41 43.5 65.5t56.5 28.5l-27 27q-37 12 -36 61q0 12 2 26.5t8 29.5l221 604q16 43 51 69.5t58 26.5h456q16 0 30.5 -10t22.5 -29l72 -72q-2 0 -3 1l-1 2l6 -5q18 -23 19 -51q0 -16 -9 -39l-221 -608q-16 -45 -43.5 -70.5 t-58.5 -25.5h-80l49 -49q20 -20 21 -52q0 -20 -9 -38h-2l-90 -254q-39 -94 -104 -95h-383q-27 0 -41 15l-76 75q-37 12 -37 62zM125 21.5q8 -21.5 33 -21.5h383q53 0 86 82l92 254q12 35 0 55.5t-29 20.5h-383q-16 0 -42.5 -20.5t-39.5 -55.5l-92 -254q-16 -39 -8 -60.5z M266 508.5q8 -21.5 33 -21.5h457q25 0 47 21.5t37 60.5l221 609q14 35 2 56t-29 21h-456q-16 0 -43 -21.5t-41 -55.5l-222 -609q-14 -39 -6 -60.5z" />
<glyph unicode="&#x22;" horiz-adv-x="1286" d="M354 846q0 18 13 55l104 287q14 43 49 68.5t58 25.5h383q16 0 32.5 -11t24.5 -34l22 -23q18 31 46 49.5t49 18.5h383q16 0 32.5 -11t24.5 -34l67 -66q-2 0 -3 1l-1 2l7 -5q20 -20 20 -51q0 -20 -8 -39h-2l-62 -174q-4 -8 -30.5 -26.5t-65.5 -41t-85 -47t-89 -45t-78 -34 t-51 -13.5h-129q-27 0 -41 15l-76 73q-25 10 -35 35q-37 -23 -79.5 -44t-81.5 -38.5t-70 -29t-45 -11.5h-129q-27 0 -41 15l-76 73q-37 12 -37 60zM391 893q-27 -82 25 -82h129q25 0 85 27.5t124.5 63.5t117 69t58.5 45l59 164q12 35 0 55t-28 20h-383q-16 0 -43 -20.5 t-39 -54.5zM948 893q-27 -82 25 -82h129q25 0 85 27.5t124.5 63.5t117 69t58.5 45l59 164q12 35 0 55t-28 20h-383q-16 0 -43 -20.5t-39 -54.5z" />
<glyph unicode="#" horiz-adv-x="1775" d="M145 283q0 8 3.5 21t11.5 30l39 110l10 11q14 20 30.5 38.5t39.5 18.5h73l-53 53q-35 10 -35 49q0 12 4 24.5t11 29.5l40 106l11 10q14 20 30.5 39t38.5 19h95l122 344q16 43 51 69.5t58 26.5h457q16 0 30.5 -10t22.5 -31l57 -57v2q16 43 51 69.5t58 26.5h457 q16 0 30.5 -10t22.5 -29l74 -74q18 -23 18 -51q0 -16 -8 -39l-92 -252q6 -6 10 -18l78 -76q6 -6 8 -15t2 -20q0 -6 -1 -11t-1 -9v-8l-43 -115v-2q-12 -29 -25.5 -49.5t-44.5 -26.5h-90l76 -76q10 -10 10 -28q0 -10 -2 -20.5t-4 -16.5l-39 -111q-12 -31 -25.5 -51t-46.5 -27 h-110l-58 -165q-39 -94 -104 -95h-457q-27 0 -41 15l-75 75q-41 -90 -103 -90h-457q-27 0 -41 15l-75 75q-37 12 -37 62q0 10 2 23.5t12 31.5l25 72l-68 70q-33 8 -33 47zM172 281.5q-2 -17.5 21 -21.5h114l-63 -178q-16 -39 -8 -60.5t32 -21.5h457q53 0 86 82l63 178h109 l-63 -178q-16 -39 -8 -60.5t32 -21.5h457q53 0 86 82l63 178h119q25 4 36 21.5t21 44.5l39 108q4 12 4 31q0 20 -22 20h-115l39 105h119q25 4 35 21.5t20 43.5l41 109q2 10 3 30.5t-21 20.5h-115l131 363q14 35 2 56t-28 21h-457q-16 0 -43 -21.5t-41 -55.5l-131 -363h-109 l131 363q14 35 2 56t-28 21h-457q-16 0 -43 -21.5t-41 -55.5l-131 -363h-111q-23 0 -35 -22.5t-22 -32.5l-39 -105q-10 -27 -11 -44t21 -21h115l-39 -105h-110q-23 0 -35.5 -22.5t-22.5 -32.5l-37 -104q-10 -27 -12 -44.5zM956 485l39 105h109l-39 -105h-109z" />
<glyph unicode="$" horiz-adv-x="1497" d="M106 172q0 8 2.5 20.5t6.5 22.5l24 64q16 45 47 72.5t64 27.5h590q14 0 36.5 4t36.5 23h-385q-61 0 -106 45l-60 59q-35 18 -57 52t-22 81q0 16 2 32.5t10 35.5l94 252q14 43 46 78.5t71 62t80 42t78 15.5h210l9 25q16 43 51 69.5t57 26.5h312q16 0 30.5 -10t22.5 -29 l74 -74q0 -4 4 -8h219q39 0 63.5 -7t32.5 -34l76 -76q12 -12 12 -36q0 -20 -10 -43h-2l-25 -76q-18 -47 -52 -69.5t-58 -22.5h-547q-16 0 -43 -4.5t-41 -22.5h358q45 0 81 -21.5t56 -58.5l2 -2l62 -59q39 -39 39 -99q0 -16 -2 -32.5t-10 -34.5h-3l-90 -254 q-16 -43 -45.5 -78t-67.5 -61.5t-79 -41t-76 -14.5h-233l-11 -32q-39 -94 -104 -95h-311q-27 0 -41 15l-76 75q-25 8 -35 37h-213q-20 0 -35 15l-75 73q-16 6 -30 23.5t-14 46.5zM139 203q-12 -35 0.5 -55.5t28.5 -20.5h356l-16 -45q-16 -39 -8 -60.5t32 -21.5h312 q53 0 86 82l16 45h246q33 0 70.5 13.5t72.5 38t63.5 57t43.5 71.5l92 256q14 39 10 72t-21.5 57.5t-45 37.5t-60.5 13h-467q-20 2 -30.5 11.5t2.5 44.5l22 59q6 18 19.5 28.5t29 15.5t31.5 6t27 1h546q20 0 48 19.5t45 60.5l26 76q18 47 -2 58.5t-61 11.5h-338l14 43 q14 35 2 56t-28 21h-312q-16 0 -42.5 -21.5t-41.5 -55.5l-14 -43h-229q-33 0 -71 -13.5t-73 -38t-63.5 -57.5t-42.5 -72l-95 -256q-14 -39 -9 -71.5t22.5 -57t45.5 -38t58 -13.5h500q23 -2 33 -11t-4 -44l-21 -60q-14 -37 -49 -44t-55 -7h-590q-25 0 -48.5 -22.5 t-37.5 -59.5z" />
<glyph unicode="%" horiz-adv-x="2068" d="M283 655q0 25 8 43l196 535q18 55 70.5 91t104.5 36h530q29 0 53.5 -17.5t36.5 -46.5l37 -39q31 25 61 25h408q18 0 27.5 -9t13.5 -22l80 -77q8 -8 8 -23l-3 -11q-3 -10 -5 -16l-13 -30l-229 -389h371q29 0 53.5 -17.5t36.5 -44.5l61 -61q-2 0 -3 1l-1 1l6 -4 q33 -33 33 -78q0 -6 -1 -9.5t-1 -7.5l-201 -555q-10 -25 -29.5 -46t-44 -37.5t-49 -25.5t-40.5 -9h-533q-41 0 -68 26l-67 68q-4 2 -6 2l-4 2q-29 -23 -58 -23h-350q-20 0 -33 13l-75 75q-23 8 -32 29t-9 45q0 20 4 37l6 12l213 369h-369q-43 0 -69 27l-68 67q-29 12 -43 38 t-14 56zM315 686q-12 -35 5.5 -70.5t64.5 -35.5h533q2 0 8 1l18 3l-287 -496l-4 -8q-8 -23 -2 -51.5t29 -28.5h350q20 0 44 16.5t52 61.5l140 235l-105 -282q-12 -35 6.5 -71t65.5 -36h532q14 0 36 8.5t43.5 22.5t40 33.5t26.5 42.5l196 538q12 37 -10 73t-59 36h-531 q-4 0 -11 -1t-17 -3l309 526l10 25q4 10 5 20t-15 10h-408q-27 0 -51 -25.5t-35 -41.5l-127 -219l95 256q12 37 -11.5 72.5t-58.5 35.5h-530q-41 0 -87.5 -30.5t-62.5 -77.5zM655 741l154 426q10 23 28.5 27t30.5 4t24.5 -6t8.5 -21l-156 -430q-25 -27 -53 -26 q-20 0 -31.5 5t-5.5 21zM1501 86l156 426q8 23 26.5 27t30.5 4t25.5 -6.5t9.5 -20.5l-158 -430q-10 -14 -24.5 -20.5t-26.5 -6.5q-20 0 -32.5 5.5t-6.5 21.5z" />
<glyph unicode="&#x26;" horiz-adv-x="1642" d="M96 123q0 16 2 33.5t11 36.5l67 180q18 51 55 97t84 81q-16 23 -21 48.5t-5 47.5q0 25 5 49.5t11 40.5l127 346q14 43 46 80t71 62.5t80 41t78 15.5h890q35 0 71 -22.5t58 -61.5l62 -59q20 -20 33.5 -48t13.5 -61q0 -10 -3 -23.5t-7 -25.5l-103 -281q-10 -23 -18 -36 q8 -6 12 -21l80 -78q6 -6 8 -15t2 -20q0 -6 -1 -11t-1 -9v-6l-41 -117q-12 -31 -25.5 -51.5t-45.5 -26.5h-95q0 -8 -2 -14t-2 -10l-75 -207q-12 -41 -46 -75t-73 -60.5t-79 -41t-65 -14.5h-911q-68 0 -111 43l-63 62q-35 18 -54.5 52t-19.5 79zM123 108.5q4 -32.5 21.5 -57 t45 -38t62.5 -13.5h911q25 0 61 13.5t72.5 38t67.5 56t43 68.5l76 207q4 12 4 39h108q25 4 36 21.5t22 43.5l39 109q2 10 3 30.5t-22 20.5h-790q-23 4 -33 12.5t4 42.5l100 277q14 37 49 44t56 7q37 0 47 -13t4 -32l-68 -186q-12 -35 0.5 -55.5t28.5 -20.5h455 q16 0 44.5 20.5t41.5 55.5l102 280q12 37 5 69t-26.5 56.5t-45 37.5t-50.5 13h-890q-33 0 -71 -13t-73 -37.5t-63.5 -57.5t-42.5 -72l-127 -350q-14 -35 -13.5 -90t35.5 -90q-49 -31 -90 -79t-61 -101l-68 -185q-14 -39 -10 -71.5zM700 276l35 93q8 25 19.5 37t25.5 16h103 v-2q10 -4 24.5 -8t5.5 -29l-41 -113q-8 -23 -46 -34t-58 -11q-10 0 -24.5 1t-25.5 6.5t-17.5 15.5t-0.5 28zM989 674h90l-26 24q-12 4 -23.5 14.5t-15.5 26.5z" />
<glyph unicode="'" horiz-adv-x="729" d="M354 846q0 18 13 55l104 287q14 43 49 68.5t58 25.5h383q16 0 31.5 -11t23.5 -32l2 -2l67 -66q-2 0 -3 1l-1 2l6 -5q20 -20 21 -51q0 -20 -8 -39h-2l-62 -174q-4 -8 -30.5 -26.5t-65.5 -41t-85 -47t-89 -45t-78 -34t-51 -13.5h-129q-27 0 -41 15l-76 73q-37 12 -37 60z M391 893q-27 -82 25 -82h129q25 0 85 27.5t124.5 63.5t117 69t58.5 45l59 164q12 35 0 55t-28 20h-383q-16 0 -43 -20.5t-39 -54.5z" />
<glyph unicode="(" horiz-adv-x="993" d="M29 -39q0 -35 18.5 -62.5t46.5 -43.5l66 -66q23 -23 57.5 -35t69.5 -12h534q45 0 68 37l61 170v6q0 25 -20 45l-70 70q-10 18 -31 36h-49l334 920h2q10 27 34 33t44 6h123q45 20 55 41l62 170v8q0 20 -13 33l-75 74q-6 39 -54 39h-534q-37 0 -78 -15.5t-80 -41 t-70.5 -62.5t-46.5 -80l-446 -1223q0 -2 -1 -4t-1 -4v2q-4 -10 -5 -17.5t-1 -23.5zM58.5 -61.5q-7.5 26.5 4.5 61.5l445 1223q14 39 43 71.5t63.5 57t72.5 38t71 13.5h534q35 0 29 -35l-55 -151q-14 -25 -45 -39h-119q-23 0 -52.5 -8.5t-43.5 -43.5l-363 -995 q-6 -18 -2 -28.5t14.5 -15.5t22.5 -6t24 -1h119q20 -14 17 -39l-56 -152q-18 -35 -53 -34h-534q-31 0 -60 10t-49 28.5t-27.5 45z" />
<glyph unicode=")" horiz-adv-x="993" d="M-2 -109l59 162q31 37 60 53h127q18 0 41.5 5.5t29.5 27.5l336 926h-43l-86 86h-8q-33 33 -33 68l64 176q23 35 71 35h535q47 0 83 -20.5t54 -57.5l66 -64q39 -39 39 -100q0 -16 -2 -31.5t-11 -34.5h-2l-442 -1220q-14 -37 -44 -67t-65.5 -50.5t-74.5 -31.5t-72 -11h-535 q-23 0 -36 14l-74 74q-37 8 -37 51v10zM25 -111q-6 -35 28 -34h535q31 0 66.5 10t69.5 28.5t61.5 45t39.5 61.5l445 1223q14 39 10 71.5t-21.5 57t-46 38t-61.5 13.5h-535q-35 0 -53 -35l-55 -151q0 -23 16 -39h119q25 0 48.5 -7.5t10.5 -44.5l-362 -995q-12 -35 -43 -43 t-53 -8h-119q-27 -14 -45 -39z" />
<glyph unicode="*" horiz-adv-x="802" d="M412 1028q14 39 29.5 77t37 72.5t51 68.5t74.5 67l62 -41v16l16 64l33 14q35 16 65.5 19.5t53.5 3.5h12q63 0 106 -25l39 -23l-6 -8l25 -22q18 -4 41 -23q2 -4 4 -9t4 -9l78 -76q27 -47 26 -98q0 -29 -8 -60.5t-25 -72.5h3q-10 -29 -70 -29h-16l8 -8l35 -37l-15 -31 q-55 -47 -123.5 -84t-150.5 -67l-56 53l-14 -15l-33 -36q-78 25 -125 69l-55 53q-74 49 -104 142q10 8 19 14l18 12l-25 29h-14zM444 963q33 -100 156 -138l16 19h-4q31 23 40.5 38t27.5 38l8 18q4 -23 11.5 -50.5t21.5 -62.5q70 27 131 61t115 79l6 12l-23 24 q-16 12 -30.5 22.5t-26.5 23.5h78q45 0 49 12q25 68 30 116t-24 101q-8 8 -25 8q-2 0 -7 -1l-15 -3q-23 -23 -42 -35t-38 -18q4 10 10 19t15 24q4 14 13 35.5t13 27.5l-10 6q-41 23 -94 23h-6q-23 0 -51.5 -2t-63.5 -19l-18 -8l-15 -53q2 -14 -4 -35q-4 -12 0 -18l-84 53 q-74 -55 -103.5 -109.5t-51.5 -115.5h145q-6 -8 -9 -10.5t-14 -6.5q-2 0 -4 -1t-6 -1q-35 -20 -58.5 -33.5t-58.5 -39.5z" />
<glyph unicode="+" horiz-adv-x="919" d="M205 444q0 8 3 21.5t11 30.5l39 110l10 10q14 20 30.5 39t39.5 19h176l68 190q14 29 38.5 34t59.5 5h111q4 -4 8 -4v-2h2h12q14 -4 24.5 -9t14.5 -26l72 -71l2 -3q2 0 2 -2h2q10 -10 10 -28q0 -10 -4 -19h-2l-23 -65h39q18 0 28.5 -9.5t14.5 -21.5l80 -78q6 -6 8 -15 t2 -20q0 -6 -1 -11t-1 -9v-6l-41 -117q-12 -31 -25.5 -51.5t-45.5 -26.5h-191l-65 -180q-10 -33 -38 -41t-42 -10h-111q-23 0 -38 2t-25 12l-76 76q-33 6 -33 47v10l31 84h-39q-18 2 -29 13l-75 75q-33 8 -33 47zM231.5 443q-2.5 -17 20.5 -21h197l-72 -199q-4 -23 11 -28 t42 -5h109q10 2 32.5 8.5t30.5 28.5l72 195h198q25 4 36.5 21.5t21.5 43.5l39 109q2 10 3 30.5t-22 20.5h-194l69 193q8 25 -11 28.5t-30 8.5h-104q-27 0 -46.5 -5.5t-31.5 -27.5l-72 -197h-192q-23 0 -35 -22.5t-22 -32.5l-37 -105q-10 -27 -12.5 -44zM926 788l4 -2z" />
<glyph unicode="," horiz-adv-x="727" d="M-10 -156q0 18 12 56l162 444q14 43 49 68.5t57 25.5h383q16 0 31.5 -11t24.5 -32l2 -2l69 -67q20 -20 21 -52q0 -20 -8 -38h-2l-123 -342q-6 -12 -59.5 -45t-120 -67t-129 -59.5t-87.5 -25.5h-129q-27 0 -41 14l-75 76q-18 4 -27.5 19.5t-9.5 37.5zM27 -109 q-27 -82 24 -81h129q14 0 48 12t74 30.5t84 40t81 43t62.5 39t29.5 25.5l123 336q12 35 0 55.5t-29 20.5h-383q-16 0 -42.5 -20.5t-39.5 -55.5z" />
<glyph unicode="-" horiz-adv-x="761" d="M205 444q0 10 3 24.5t13 31.5l37 106l10 10q14 20 30.5 39t39.5 19h455q18 0 28 -9.5t15 -21.5l79 -78q6 -6 8.5 -15t2.5 -20q0 -6 -1 -11t-1 -9v-6l-41 -117q-12 -31 -25.5 -51.5t-46.5 -26.5h-469q-18 2 -29 13l-75 75q-33 8 -33 47zM231.5 443q-2.5 -17 20.5 -21h463 q25 4 36 21.5t21 43.5l39 109q2 10 3 30.5t-21 20.5h-455q-23 0 -35 -22.5t-22 -32.5l-37 -105q-10 -27 -12.5 -44z" />
<glyph unicode="." horiz-adv-x="727" d="M59 39q0 10 2 23.5t13 31.5l90 250q14 43 49 68.5t57 25.5h383q16 0 31.5 -11t24.5 -32l2 -2l69 -67q20 -20 21 -52q0 -20 -8 -38h-2l-91 -254q-39 -94 -104 -95h-383q-27 0 -41 15l-76 75q-37 12 -37 62zM88 21.5q8 -21.5 33 -21.5h383q53 0 86 82l92 254q12 35 0 55.5 t-29 20.5h-383q-16 0 -42.5 -20.5t-39.5 -55.5l-92 -254q-16 -39 -8 -60.5z" />
<glyph unicode="/" horiz-adv-x="1130" d="M61 51q0 25 9 41l704 1088l2 4q29 47 60.5 72.5t89.5 25.5h442q20 0 33.5 -11t19.5 -28l74 -74q18 -18 18 -45l-2 -6v-10q0 -6 -2 -11l-4 -10h-2q-4 -10 -5 -15t-5 -9l-745 -1135l2 -2q-16 -27 -46 -33t-59 -6h-420q-25 0 -45 21l-69 69q-20 8 -35 27t-15 47zM94 78 q-14 -35 2.5 -56.5t36.5 -21.5h420q23 0 48.5 4t37.5 25l747 1140q2 2 9 19q4 8 4 12q0 11 2 17q0 10 -8.5 24t-24.5 14h-442q-49 0 -77 -22.5t-50 -63.5z" />
<glyph unicode="0" d="M92 127q0 -43 18.5 -80t57.5 -55l63 -64q41 -41 107 -41h887q27 0 65.5 14.5t78.5 41t74 60.5t46 75l326 897h2q10 23 10 51q0 33 -13.5 61.5t-35.5 51.5l-58 57q-20 37 -55 61.5t-76 24.5h-884q-37 0 -78 -15.5t-80 -41t-71 -62.5t-46 -80l-328 -895q-6 -14 -8 -29.5 t-2 -31.5zM119 115.5q-2 31.5 8 60.5l328 899q14 39 42.5 72t63.5 57.5t73 37.5t71 13h884q29 0 55.5 -16t44 -42t23.5 -58.5t-6 -63.5l-328 -899q-12 -37 -42.5 -68.5t-67.5 -56t-74 -38t-61 -13.5h-887q-39 0 -66.5 16.5t-43 42t-17.5 57zM694 270q-10 -27 10.5 -36 t53.5 -9q20 0 43.5 10.5t44.5 34.5l260 717q8 23 -13.5 33t-41.5 10q-23 0 -54.5 -8t-44.5 -43z" />
<glyph unicode="1" horiz-adv-x="1044" d="M303 39q0 10 2 22.5t10 28.5l299 828h-51q-18 2 -28 12l-76 76q-33 8 -33 47q0 23 14 53l2 2l37 106l10 11q14 20 31 38.5t39 18.5h737q41 0 47 -35l78 -76q10 -10 11 -28q0 -10 -2.5 -20.5t-4.5 -16.5l-407 -1124q-39 -94 -105 -95h-456q-27 0 -41 15l-76 75 q-37 12 -37 62zM332 21.5q8 -21.5 33 -21.5h456q53 0 86 82l408 1122q4 12 4 31q0 20 -23 20h-737q-23 0 -35 -22.5t-22 -32.5l-37 -104q-10 -27 -12 -44.5t20 -21.5h166q27 0 31 -14.5t-4 -34.5l-326 -899q-16 -39 -8 -60.5z" />
<glyph unicode="2" horiz-adv-x="1497" d="M57 39q0 -29 10.5 -42t28.5 -17l74 -74q12 -12 33.5 -15.5t52.5 -3.5h1108q23 0 54.5 25t45.5 65l23 66h2q6 14 8 27.5t2 23.5q0 31 -14 45l-76 74q-10 39 -55 39h-486l4 14h2q10 27 22.5 34t29.5 9h465q33 0 73.5 14.5t77.5 41t67.5 61.5t47.5 78l170 471h2 q8 18 10 33.5t2 31.5q0 61 -39 101l-65 63q-18 37 -54 57.5t-84 20.5h-946q-25 0 -54.5 -10t-58 -28.5t-52 -42t-33.5 -50.5l-93 -250q-10 -23 -10 -47q0 -29 13.5 -45t31.5 -23l72 -71q18 -18 45 -19h451q27 0 57 27l-2 -6q-14 -29 -25.5 -35t-21.5 -8h-492 q-37 0 -78 -15.5t-78.5 -41t-69.5 -62.5t-46 -80l-131 -354q-20 -49 -21 -82zM86 48.5q2 21.5 16 60.5l131 358q14 39 43 71.5t63 57.5t72 38t70 13h492q20 2 35.5 11.5t33.5 43.5l103 283q6 16 0 25.5t-17.5 13.5t-26 5t-24.5 1h-28q-16 0 -33 -15.5t-25 -31.5l-35 -92 q-12 -37 -35.5 -59.5t-48.5 -22.5h-450q-20 0 -35.5 19.5t0.5 60.5l92 254q8 23 28.5 43t46.5 35.5t52.5 24.5t46.5 9h946q33 0 62 -13t46 -37.5t21.5 -57.5t-10.5 -72l-172 -473q-14 -39 -42.5 -71.5t-63.5 -57t-73 -38t-69 -13.5h-464q-23 -2 -39.5 -11.5t-30.5 -43.5 l-33 -91q-12 -35 1 -43t34 -8h588q25 0 32 -22.5t-8 -59.5l-24 -67q-12 -35 -39 -55.5t-43 -20.5h-1108q-27 0 -45.5 2t-26.5 13.5t-6 33z" />
<glyph unicode="3" horiz-adv-x="1497" d="M80 131q0 14 2 28.5t8 28.5l76 203q14 43 51 68.5t59 25.5h455q16 0 31.5 -11t23.5 -32l15 -14q-2 6 -2 21q0 12 4 24t10 29l41 108h-391q-20 0 -35 15l-76 73q-16 6 -29.5 23.5t-13.5 46.5q0 8 2 20.5t6 22.5l103 276q12 41 46 77t74 61.5t81 41t67 15.5h914 q47 0 82.5 -20.5t54.5 -57.5l65 -63q39 -39 39 -101q0 -16 -2 -31.5t-10 -33.5h-2l-125 -350q-14 -35 -51 -87.5t-90 -91.5q27 -41 26 -92q0 -39 -18 -88l-68 -184q-16 -43 -46 -78t-67.5 -61.5t-78.5 -41t-76 -14.5h-911q-55 0 -101 45l-61 62q-35 18 -58.5 54t-23.5 83z M110 107.5q7 -31.5 25.5 -56t45 -38t50.5 -13.5h912q33 0 70.5 13.5t72.5 38t63.5 57t43.5 71.5l67 185q20 53 14 101t-34 79q59 35 99 90t54 90l127 350q14 39 10 72t-21 57.5t-46 37.5t-61 13h-914q-25 0 -61.5 -13t-72.5 -37.5t-66.5 -56.5t-43.5 -69l-102 -280 q-12 -35 0 -55.5t29 -20.5h454q16 0 45 20.5t41 55.5l68 186q6 18 37.5 31.5t68.5 13.5q10 0 24.5 -1t26 -6t17.5 -15.5t0 -28.5l-100 -277q-14 -35 -29.5 -43t-40.5 -10h-51q-23 0 -35 -21.5t-20 -31.5l-39 -107q-10 -27 -11.5 -44t21.5 -21h53q20 0 30.5 -10.5t-1.5 -44.5 l-35 -93q-14 -37 -49 -44t-55 -7q-37 0 -59.5 8.5t-12.5 36.5l41 113q12 35 0 55.5t-29 20.5h-455q-16 0 -44.5 -20.5t-41.5 -55.5l-75 -207q-12 -37 -5 -68.5zM829 401l27 -26q-2 0 -3 1l-1 1l6 -4q21 -20 21 -51q0 -10 -2 -17l12 35l-58 59zM866 281q2 0 2 2zM1022 700 q4 8 6 15l66 178q-4 -4 -4 -6z" />
<glyph unicode="4" horiz-adv-x="1482" d="M190 397q0 18 13 56l266 733q16 43 51 69.5t58 26.5h460q16 0 30.5 -10t23.5 -29l71 -72q-2 0 -3 1l-1 2l6 -5q2 -4 4 -7t5 -7l12 31q16 43 51 69.5t57 26.5h420q16 0 32.5 -12.5t25.5 -34.5l69 -68q-2 2 -4 2l-2 2l6 -4q20 -20 21 -51q0 -14 -9 -37l-397 -1095 q-33 -96 -106 -97h-420q-25 0 -39 15l-74 73q-39 12 -39 64q0 12 2 26.5t8 28.5l58 156h-502q-27 0 -41 14l-76 74q-37 12 -37 59zM227 444q-27 -82 25 -82h606q25 0 38 -9t3 -34l-86 -237q-14 -37 -7 -59.5t32 -22.5h419q57 0 89 82l397 1096q14 35 1 56t-30 21h-420 q-16 0 -42.5 -21.5t-41.5 -55.5l-198 -547q-6 -16 -17.5 -29.5t-44.5 -13.5h-49q-37 0 -39 12t4 31l199 547q14 35 2 56t-29 21h-460q-16 0 -43 -21.5t-41 -55.5z" />
<glyph unicode="5" horiz-adv-x="1497" d="M59 45q0 8 2 20.5t7 22.5l24 64q16 45 47 72.5t64 27.5h590q16 0 42.5 5t36.5 32l9 20h-525q-14 0 -24 1t-19 9l-77 78q-16 4 -23.5 13.5t-7.5 33.5q0 16 8 39l258 709q18 47 46 68.5t87 21.5h1141q18 0 32.5 -5t18.5 -28l78 -75q10 -10 10 -33q0 -18 -14 -56l-107 -297 q-18 -47 -52 -69.5t-58 -22.5h-422q-25 0 -39 15l-76 73q-31 8 -37 45l-57 -155h360q45 0 83 -21.5t57 -60.5l61 -60q39 -39 39 -98q0 -16 -2 -32.5t-10 -34.5h-2l-103 -285q-16 -43 -45.5 -78t-67.5 -61.5t-79 -41t-76 -14.5h-1024q-20 0 -35 15l-76 75q-16 6 -29.5 22.5 t-13.5 45.5zM92 20.5q12 -20.5 29 -20.5h1024q33 0 70.5 13.5t72.5 38t63.5 57t43.5 71.5l104 287q14 39 10 71.5t-21.5 57.5t-45 38t-60.5 13h-467q-20 2 -31.5 11.5t3.5 43.5l114 316q2 12 48 12h73q16 0 22.5 -15.5t2.5 -31.5l-35 -92q-12 -37 -5 -59.5t32 -22.5h422 q20 0 47.5 19.5t44.5 60.5l106 295q18 47 10 59t-24 12h-1141q-47 0 -70.5 -17t-37.5 -54l-258 -709q-12 -35 -3 -44t29 -9h637q23 -2 33 -11.5t-4 -43.5l-33 -91q-14 -37 -49 -44t-55 -7h-590q-25 0 -48.5 -22.5t-37.5 -59.5l-25 -67q-12 -35 0 -55.5zM1122 1010l2 -2 q0 2 -2 2z" />
<glyph unicode="6" d="M94 133q0 16 2 28.5t6 22.5l330 899q12 35 44 70t72 63.5t81 47t76 18.5h884q47 0 83 -20.5t54 -57.5l66 -63q39 -39 39 -101q0 -16 -2 -31.5t-10 -33.5h-2l-48 -131q-16 -49 -44.5 -71.5t-57.5 -22.5h-106q4 -4 6 -10.5t6 -10.5l69 -70q25 -25 25 -69q0 -33 -14 -70 l-162 -442q-12 -31 -39 -64.5t-63.5 -61.5t-78.5 -46.5t-83 -18.5h-887q-55 0 -102 47l-60 60q-35 18 -59.5 55t-24.5 84zM124 107.5q7 -31.5 26.5 -56t46 -38t51.5 -13.5h887q39 0 77.5 16.5t72.5 42t59.5 57t35.5 60.5l162 442q23 61 6.5 99.5t-67.5 38.5h-535 q-31 6 -22 43l67 188q10 23 39 33t49 10q25 0 49.5 -7t12.5 -44l-17 -43q-14 -39 -5 -56.5t34 -17.5h422q23 0 46.5 19.5t37.5 60.5l49 133q14 39 10 72t-21.5 57.5t-46 37.5t-61.5 13h-884q-31 0 -69 -16t-74 -42t-64.5 -58.5t-40.5 -63.5l-328 -899q-12 -37 -5 -68.5z M731 270l82 224q16 29 47 36h74q33 -6 29 -43l-80 -217q-10 -27 -37 -36t-60 -9q-20 0 -36.5 10.5t-18.5 34.5zM1063 782h121l-58 56q-25 10 -32 30z" />
<glyph unicode="7" horiz-adv-x="1488" d="M371 897q0 23 12 53l96 264l10 11l-2 -4v2q2 0 2 2q14 20 31 38.5t39 18.5h1163q20 0 33.5 -12.5t20.5 -28.5l73 -72q8 -8 12.5 -18t6.5 -21q2 -6 2 -16q0 -4 -1 -11t-7 -18q-4 -8 -13 -20h-2l-745 -1137l2 -2q-16 -27 -46 -33t-59 -6h-419q-25 0 -45 21l-70 69 q-20 8 -34.5 27t-14.5 47q0 25 8 41l422 653h-320q-25 0 -41 17l-73 72q-16 6 -28.5 21t-12.5 42zM403 877.5q11 -19.5 31 -19.5h422q25 0 47.5 21.5t36.5 60.5l33 92h90l-614 -954q-14 -35 2 -56.5t36 -21.5h420q23 0 48.5 4t37.5 25l748 1140q10 12 12 21q10 16 2 27 q0 10 -8 24t-25 14h-1163q-23 0 -35 -22.5t-22 -32.5l-94 -262q-16 -41 -5 -60.5z" />
<glyph unicode="8" d="M98 133q0 14 2 28.5t9 28.5l69 189q16 47 49 92t80 80q-20 35 -20 82q0 55 16 94l129 356q12 35 44 70t72 63.5t81 47t76 18.5h884q47 0 83 -20.5t54 -57.5l66 -63q39 -39 39 -101q0 -16 -2 -31.5t-10 -33.5h-2l-127 -357q-14 -35 -43 -84t-82 -88q23 -33 22 -75 q0 -16 -2 -27.5t-4 -21.5l-90 -248q-16 -39 -46 -74t-67 -60.5t-76.5 -40t-76.5 -14.5h-885q-53 0 -96 43l-62 62q-37 20 -60.5 58t-23.5 85zM126 114.5q5 -32.5 22.5 -58t43 -42t56.5 -16.5h885q33 0 70.5 13.5t72.5 38t62.5 56t41.5 68.5l86 236q23 84 -22 135 q59 37 90 88t45 86l129 356q14 39 10 72t-21.5 57.5t-46 37.5t-61.5 13h-884q-31 0 -69 -16t-74 -42t-64.5 -58.5t-40.5 -63.5l-129 -356q-14 -31 -15 -86q0 -51 31 -88q-47 -31 -85 -77t-56 -97l-70 -193q-12 -31 -7 -63.5zM729 266l39 103q12 35 28.5 44t39.5 11h65 q10 -2 15.5 -13.5t9.5 -19.5l-41 -117q-14 -35 -45 -43t-54 -8q-20 0 -41.5 10.5t-15.5 32.5zM884.5 659.5q-12.5 8.5 2.5 42.5l102 285q14 23 42 33t48 10q25 0 49.5 -7t12.5 -44l-101 -277q-14 -35 -23 -43t-34 -10h-68q-18 2 -30.5 10.5z" />
<glyph unicode="9" d="M92 123q0 16 2 33.5t10 36.5l50 129q39 98 108 98h109l-62 59q-29 10 -41 35t-12 59q0 37 14 72l162 442q12 33 40 67t64.5 62.5t79.5 47t86 18.5h924q35 0 72 -22.5t59 -61.5l64 -61q20 -20 32.5 -47t12.5 -60q0 -10 -3 -23.5t-8 -25.5l-327 -901q-12 -35 -44 -69 t-70 -61.5t-79 -45t-73 -17.5h-922q-68 0 -111 43l-63 62q-35 18 -54.5 52t-19.5 79zM119 108.5q4 -32.5 21.5 -57t45 -38t62.5 -13.5h921q31 0 69 16.5t74 42t64.5 58.5t40.5 63l328 899q12 37 5 69t-26.5 56.5t-46 37.5t-51.5 13h-924q-39 0 -77.5 -16t-72.5 -42 t-59.5 -57.5t-35.5 -60.5l-162 -442q-23 -61 -6.5 -99t67.5 -38h572q35 -6 22 -43l-67 -189q-10 -23 -39 -33t-49 -10q-23 0 -47.5 12.5t-14.5 38.5l21 56q14 39 2.5 50t-35.5 11h-459q-51 0 -84 -80l-49 -133q-14 -39 -10 -71.5zM784 387q0 -2 1 -3l1 -1l76 -76q4 -4 4 -6 l31 86h-113zM911 768l80 217q10 27 37 36t59 9q20 0 37 -10t19 -35l-82 -223q-16 -31 -47 -37h-74q-31 6 -29 43z" />
<glyph unicode=":" horiz-adv-x="727" d="M59 39q0 10 2 22.5t11 28.5l92 254q14 43 49 68.5t57 25.5h383q16 0 32.5 -11t25.5 -34l69 -67q20 -20 21 -52q0 -20 -8 -38h-2l-91 -254q-39 -94 -104 -95h-383q-27 0 -41 15l-76 75q-37 12 -37 62zM88 21.5q8 -21.5 33 -21.5h383q53 0 86 82l92 254q12 35 0 55.5 t-29 20.5h-383q-16 0 -42.5 -20.5t-39.5 -55.5l-92 -254q-16 -39 -8 -60.5zM285 657q0 12 2 26.5t8 29.5l94 250q14 43 49 68.5t58 25.5h383q16 0 31.5 -11.5t23.5 -31.5l2 -2l70 -68q20 -20 20 -51q0 -20 -8 -39h-2l-92 -252q-16 -45 -44 -70.5t-59 -25.5h-383 q-27 0 -41 14l-75 76q-37 12 -37 61zM313.5 639.5q8.5 -21.5 32.5 -21.5h383q25 0 47.5 22t36.5 60l94 254q12 35 0 55.5t-28 20.5h-383q-16 0 -43 -20.5t-39 -55.5l-95 -254q-14 -39 -5.5 -60.5z" />
<glyph unicode=";" horiz-adv-x="727" d="M-10 -156q0 18 12 56l162 444q14 43 49 68.5t57 25.5h383q16 0 31.5 -11t24.5 -32l2 -2l69 -67q20 -20 21 -52q0 -20 -8 -38h-2l-123 -342q-6 -12 -59.5 -45t-120 -67t-129 -59.5t-87.5 -25.5h-129q-27 0 -41 14l-75 76q-18 4 -27.5 19.5t-9.5 37.5zM27 -109 q-27 -82 24 -81h129q14 0 48 12t74 30.5t84 40t81 43t62.5 39t29.5 25.5l123 336q12 35 0 55.5t-29 20.5h-383q-16 0 -42.5 -20.5t-39.5 -55.5zM285 657q0 12 2 26.5t8 29.5l94 250q14 43 49 68.5t58 25.5h383q16 0 31.5 -11.5t23.5 -31.5l2 -2l68 -66q-2 0 -4 1l-1 1l7 -4 q20 -20 20 -51q0 -20 -8 -39h-2l-92 -252q-16 -45 -44 -70.5t-59 -25.5h-383q-27 0 -41 14l-75 76q-37 12 -37 61zM313.5 639.5q8.5 -21.5 32.5 -21.5h383q25 0 47.5 22t36.5 60l94 254q12 35 0 55.5t-28 20.5h-383q-16 0 -43 -20.5t-39 -55.5l-95 -254q-14 -39 -5.5 -60.5z " />
<glyph unicode="&#x3c;" horiz-adv-x="1001" d="M299 721q2 6 17.5 30.5t54.5 79t104.5 140.5t167.5 213q57 98 150 98h442q20 0 33.5 -12.5t19.5 -28.5l74 -72q8 -8 12 -18t6 -21q2 -6 2 -16q0 -4 -1 -11t-7 -18q-4 -8 -12 -20l-408 -479l23 -592l-2 -8q-6 -14 -18.5 -30.5t-27 -31t-30.5 -25t-31 -10.5h-350 q-29 0 -43 15l-76 76q-18 6 -29.5 24.5t-11.5 54.5v9q0 6 2 10zM326 715l61 -635q-4 -45 7.5 -61.5t31.5 -16.5h350q23 0 49.5 28.5t36.5 51.5l2 8l-22 596l411 483q10 12 13 21q10 17 2 27q0 10 -8.5 24t-24.5 14h-442q-37 0 -71 -22.5t-56 -63.5q-102 -127 -167 -212 t-103 -137t-53 -76.5t-17 -28.5z" />
<glyph unicode="=" horiz-adv-x="919" d="M145 283q0 10 3.5 24.5t13.5 30.5l37 106l10 11l-2 -4v2q2 0 2 2q14 20 30.5 38.5t39.5 18.5h73l-53 53q-35 10 -35 49q0 12 4 24.5t11 29.5l40 106l11 10q14 20 30.5 39t38.5 19h613q18 0 28.5 -9.5t14.5 -21.5l80 -78q6 -6 8 -15t2 -20q0 -6 -1 -11t-1 -9v-8l-43 -115 v-2q-12 -29 -25.5 -49.5t-44.5 -26.5h-90l76 -76q10 -10 10 -28q0 -10 -2 -20.5t-4 -16.5l-39 -111q-12 -31 -25.5 -51t-46.5 -27h-626q-18 2 -29 13l-76 76q-33 8 -33 47zM172 281.5q-2 -17.5 21 -21.5h620q25 4 36 21.5t21 44.5l39 108q4 12 4 31q0 20 -22 20h-612 q-23 0 -35.5 -22.5t-22.5 -32.5l-37 -104q-10 -27 -12 -44.5zM292 611q-1 -17 21 -21h621q25 4 35 21.5t20 43.5l41 109q2 10 3 30.5t-21 20.5h-613q-23 0 -35 -22.5t-22 -32.5l-39 -105q-10 -27 -11 -44z" />
<glyph unicode="&#x3e;" horiz-adv-x="1001" d="M57 49q0 4 1 13.5t10 21.5q2 8 12 18l405 476l-22 593l6 11q4 14 16.5 31.5t27.5 32t31.5 24.5t33.5 10h350q20 0 36.5 -10t24.5 -35l72 -70q20 -20 20 -61q0 -4 -1 -9t-1 -10l62 -643q-2 -4 -18.5 -29.5t-54.5 -78.5t-103.5 -139t-165.5 -211q-55 -96 -146 -97h-442 q-20 0 -35 15l-74 73q-23 8 -33 29t-10 37h4v8q0 4 1.5 11.5t7.5 17.5q2 10 12 20l408 477l-23 594l6 13q4 14 15.5 29.5t25.5 29.5t30.5 23.5t31.5 9.5h350q25 0 41 -17l20 -22q6 -16 6 -39v-8q0 -4 -1 -6t-1 -4l62 -648q-2 -4 -17.5 -27.5t-53.5 -75.5t-103.5 -138 t-167.5 -213q-57 -102 -152 -103h-442q-12 0 -17 2l-18 19q-12 10 -16 26q-8 8 -9.5 14.5t-1.5 14.5zM63 41l9 2l6 -18l-8 -7q-2 0 -2 2q-2 4 -2 13q-2 2 -3 8zM86 39q0 -10 8 -24.5t25 -14.5h442q37 0 71 22.5t56 63.5q100 125 165 210t103.5 138t54 78t17.5 29l-61 635 q4 45 -7.5 61t-31.5 16h-350q-23 0 -49.5 -28.5t-34.5 -50.5l-5 -9l23 -596l-412 -483q-10 -12 -12 -20q-10 -17 -2 -27zM160 -18l2 -2h-2v2zM162 -20q6 16 14 26l404 473l4 -2l4 12l-6 5l-21 583l4 10h2q4 14 15.5 31t26 31t30.5 23.5t31 9.5h317v-6l62 -641 q-2 -4 -18.5 -30t-54.5 -79t-104.5 -140t-166.5 -212v-2q-27 -45 -65 -68.5t-79 -23.5h-399zM475 1180v2l92 -92v-3h-2z" />
<glyph unicode="?" horiz-adv-x="1497" d="M246 39q0 10 2 23.5t12 31.5l90 250q14 43 49 68.5t58 25.5h2l-27 27q-37 8 -37 57q0 12 1 19.5t5 17.5q0 2 1 4t1 6l11 25q16 41 45.5 77t68.5 64q-25 0 -43 19l-71 71q-18 6 -31.5 22.5t-13.5 45.5q0 25 10 47l78 211q10 27 33.5 50.5t52 42t58.5 28.5t54 10h947 q47 0 82.5 -20.5t54.5 -57.5l65 -63q39 -39 39 -101q0 -16 -2 -31.5t-10 -33.5h-2l-127 -354q-16 -43 -47 -78t-68 -61.5t-78 -41t-73 -14.5h-340q-12 -4 -22.5 -13.5t-20.5 -19.5q-18 -18 -29 -18h-106l49 -49q20 -20 20 -52q0 -20 -8 -38h-2l-90 -254q-39 -94 -105 -95 h-383q-27 0 -41 15l-75 75q-37 12 -37 62zM275 21.5q8 -21.5 32 -21.5h383q53 0 86 82l92 254q12 35 0 55.5t-28 20.5h-383q-16 0 -43 -20.5t-39 -55.5l-92 -254q-16 -39 -8 -60.5zM402.5 867.5q15.5 -19.5 35.5 -19.5h422q25 0 48.5 22.5t35.5 59.5l21 53q8 16 24.5 31.5 t32.5 15.5h29q10 0 24.5 -1t26.5 -6t18 -15.5t0 -28.5l-57 -160q-14 -35 -31.5 -44t-38.5 -11h-307q-35 0 -71.5 -13.5t-71.5 -38t-62.5 -57t-42.5 -71.5l-6 -15q-16 -47 -6 -64.5t39 -17.5h467q6 2 26.5 26t45.5 26h339q31 0 69 13t73 37.5t63.5 57.5t42.5 72l129 356 q14 39 10 72t-21 57.5t-46 37.5t-61 13h-947q-20 0 -46.5 -9t-52.5 -24.5t-46.5 -36t-28.5 -42.5l-78 -215q-16 -41 -0.5 -60.5z" />
<glyph unicode="@" horiz-adv-x="2228" d="M31 -39q0 16 1 23.5t5 17.5v-2q0 2 1 4t1 4l393 1077q14 43 46 80t71 62.5t80 41t78 15.5h1626q47 0 82.5 -20.5t54.5 -57.5l65 -63q39 -39 39 -101q0 -16 -2 -31.5t-10 -33.5h-2l-276 -764q-14 -37 -44 -66.5t-66 -50t-75 -32t-71 -11.5h-418l53 -53q20 -20 20 -45v-6 l-61 -170q-23 -37 -68 -37h-1265q-35 0 -70 12.5t-57 34.5l-66 66q-29 16 -47 43.5t-18 62.5zM61 -61.5q7 -26.5 27.5 -45t49 -28.5t59.5 -10h1265q35 0 54 34l55 152q4 25 -17 39h-849q-12 0 -24.5 1t-23 6t-14.5 15.5t2 28.5l309 850q14 35 44 43t53 8h772q25 0 48 -7 t11 -44l-194 -539q-14 -35 -44 -43t-53 -8h-10l152 420q12 37 -10.5 73t-59.5 36h-530q-41 0 -87.5 -31t-62.5 -78l-197 -539q-12 -35 5.5 -70.5t64.5 -35.5h1079q31 0 67 10t69.5 28.5t61.5 45t40 61.5l278 766q14 39 10.5 72t-21 57.5t-46.5 37.5t-61 13h-1626 q-33 0 -71 -13t-73 -37.5t-63.5 -57.5t-42.5 -72l-391 -1077q-12 -35 -5 -61.5zM782 106h70l-41 41l-12 7zM1151 391l131 363q8 23 26.5 26.5t30.5 3.5t25.5 -6t9.5 -20l-133 -367q-25 -27 -53 -26q-20 0 -31.5 5t-5.5 21zM1729 920q14 -14 24 -35l49 -49l31 84h-104z" />
<glyph unicode="A" horiz-adv-x="1615" d="M57 49q0 10 6 23q4 10 17 28l739 1131q23 35 55.5 43t61.5 8h653q39 0 51 -39l74 -72q12 -12 17.5 -34.5t9.5 -51.5l-158 -1122l-12 -29q-6 -16 -19.5 -31.5t-35.5 -15.5h-404q-20 0 -35 15l-73 73q-33 10 -40.5 42t-7.5 55l7 43h-17q-23 0 -26 4l-21 20l-100 -157 q-35 -49 -66 -72t-78 -23h-442q-20 0 -35 15l-74 73q-23 6 -32 24.5t-11 35.5q-4 4 -4 14zM88 39q0 -10 8 -24.5t25 -14.5h442q41 0 67.5 20.5t59.5 65.5l383 592l-35 -244h-75l-111 -182q-2 -2 -8 -16l1 -4q1 -5 9 -5h154l-25 -159q0 -16 6.5 -42t30.5 -26h403 q14 0 23.5 12.5t13.5 22.5l10 24l158 1119q-4 35 -11 56t-28 21h-653q-23 0 -48.5 -4t-37.5 -24l-748 -1141q-12 -14 -14 -23q-6 -16 0 -24z" />
<glyph unicode="B" horiz-adv-x="1497" d="M59 45q0 8 2 20.5t7 22.5l403 1100q14 43 49 68.5t58 25.5h1024q47 0 82.5 -20.5t54.5 -57.5l65 -63q39 -39 39 -101q0 -16 -2 -31.5t-10 -33.5h-2l-125 -348q-12 -37 -53 -89.5t-95 -91.5q31 -47 31 -102q0 -18 -3 -38.5t-13 -41.5h-2l-66 -182q-16 -43 -46 -78 t-67.5 -61.5t-78.5 -41t-76 -14.5h-1022q-20 0 -35 15l-76 75q-16 6 -29.5 22.5t-13.5 45.5zM92 20.5q12 -20.5 29 -20.5h1022q33 0 70.5 13.5t72.5 38t63.5 57t43.5 71.5l67 185q14 37 14 71q0 15 -3 30q-9 48 -37 79q59 35 103 89t56 91l127 350q11 30 11 57q0 8 -1 15 q-4 33 -21 57.5t-46 37.5t-61 13h-1024q-16 0 -43 -20.5t-39 -54.5l-404 -1104q-12 -35 0 -55.5zM729 266l260 713q8 20 37 35.5t59 15.5q10 0 24.5 -1t26 -6t17.5 -15.5t0 -28.5l-100 -277q-14 -35 -29.5 -43t-40.5 -10h-29q-23 0 -35 -21.5t-20 -31.5l-39 -107 q-10 -27 -11 -44t21 -21h31q20 0 30.5 -10.5t-1.5 -44.5l-35 -93q-14 -37 -49 -44t-55 -7q-27 0 -44.5 12.5t-17.5 28.5z" />
<glyph unicode="C" d="M94 133q0 16 2 28.5t6 22.5l330 899q12 35 44 70t72 63.5t81 47t76 18.5h884q47 0 83 -20.5t54 -57.5l66 -63q39 -39 39 -101q0 -16 -2 -31.5t-10 -33.5h-2l-97 -270q-18 -47 -45.5 -70t-56.5 -23h-422q-27 0 -41 15l-76 75q-25 10 -35 35l-100 -282q36 30 62 30h2h422 q39 0 55 -41l69 -69q-2 0 -3 1l-1 1l6 -4q18 -18 19 -47q0 -16 -8 -39l-76 -209q-12 -31 -39 -64.5t-63.5 -61.5t-78.5 -46.5t-83 -18.5h-887q-55 0 -102 47l-60 60q-35 18 -59.5 55t-24.5 84zM124 108q7 -32 26.5 -56.5t46 -38t51.5 -13.5h887q39 0 77.5 16.5t72.5 42 t59.5 57t35.5 60.5l76 209q14 35 2 54.5t-28 19.5h-422q-16 0 -43 -19.5t-41 -54.5l-41 -115q-10 -27 -37 -36t-60 -9q-20 0 -36.5 10.5t-18.5 34.5l260 717q10 23 39 33t49 10q25 0 49.5 -7t12.5 -44l-64 -172q-14 -39 -6 -60.5t33 -21.5h422q51 0 84 80l98 270 q11 30 11 57q0 8 -1 15q-4 33 -21.5 57.5t-46 37.5t-61.5 13h-884q-31 0 -69 -16t-74 -42t-64.5 -58.5t-40.5 -63.5l-328 -899q-8 -23 -8 -45q0 -11 3 -23z" />
<glyph unicode="D" horiz-adv-x="1488" d="M53 25q0 14 3 25t7 28l410 1120q18 47 44 65.5t50 18.5h1002q43 0 84 -26.5t65 -69.5l45 -45l2 -2l9 -6q23 -23 38 -54.5t15 -66.5q0 -27 -12 -58h-3l-309 -856q-10 -31 -41.5 -66.5t-73.5 -68.5t-89.5 -54.5t-88.5 -21.5h-1007q-29 0 -41 13l-76 75q-33 8 -33 50z M80 15.5q4 -15.5 31 -15.5h1007q39 0 83 20.5t83 50t68.5 63.5t40.5 63l311 858q9 25 9 49q0 12 -2 24q-7 36 -27.5 64.5t-51 45.5t-63.5 17h-1002q-16 0 -35.5 -15t-33.5 -50l-408 -1120q-14 -39 -10 -54.5zM723 244l278 762q4 10 16.5 17t22.5 7h43q10 0 23.5 -1t24 -6 t15.5 -15.5t-1 -28.5l-258 -709q-10 -27 -38 -36t-58 -9h-43q-10 0 -19.5 4t-5.5 15zM1763 1141q2 0 2 -2z" />
<glyph unicode="E" horiz-adv-x="1497" d="M59 45q0 8 2 20.5t7 22.5l403 1100q14 43 49 68.5t58 25.5h1136q37 0 57.5 -6t24.5 -31l78 -76q10 -10 10 -32q0 -18 -14 -56l-107 -293q-18 -47 -52 -69.5t-58 -22.5h-422q-25 0 -39 15l-76 73q-25 10 -35 35l-53 -143h371q39 -12 41 -37l78 -76q10 -10 10 -28 q0 -10 -5 -22.5t-10 -27.5h-2l-41 -114q-12 -27 -28.5 -43.5t-42.5 -16.5h-457q-20 0 -33.5 -6t-21.5 -22h-2l-11 -31h502q39 -12 41 -37l78 -76q10 -10 10 -28q0 -10 -5 -22.5t-9 -27.5l-43 -112l-2 -2q-10 -16 -26.5 -38t-43.5 -22h-1163q-20 0 -35 15l-76 75 q-16 6 -29.5 22.5t-13.5 45.5zM92 20.5q12 -20.5 29 -20.5h1163q23 0 35 21.5t20 31.5l41 109q10 27 11.5 43t-21.5 20h-575q-27 0 -44.5 13.5t-15.5 29.5l41 115q10 25 28.5 33t45.5 8h457q20 0 33.5 15.5t23.5 37.5l39 109q10 27 11 43t-21 20h-467q-39 0 -42 10.5t5 32.5 l108 299q20 25 29.5 31t36.5 6h70q23 -12 14 -45l-35 -92q-12 -37 -5 -59.5t32 -22.5h422q20 0 47.5 19.5t44.5 60.5l106 291q11 33 11 50q0 10 -4 14q-11 11 -52 11h-1136q-16 0 -43 -20.5t-39 -54.5l-404 -1104q-12 -35 0 -55.5z" />
<glyph unicode="F" horiz-adv-x="1497" d="M59 39q0 10 2 23.5t13 31.5l397 1094q14 43 49 68.5t58 25.5h1144q35 0 52.5 -7t21.5 -30l78 -76q10 -10 10 -30t-14 -58l-107 -293q-18 -47 -52 -69.5t-58 -22.5h-422q-25 0 -39 15l-76 73q-25 10 -35 35l-53 -143h371q39 -12 41 -37l78 -76q10 -10 10 -28 q0 -10 -5 -22.5t-10 -27.5h-2l-38 -110q-6 -14 -22.5 -39t-51.5 -25h-441q-23 0 -43 -6t-30 -29l-6 -2l-105 -292q-39 -94 -104 -95h-457q-27 0 -41 15l-76 75q-37 12 -37 62zM88 21.5q8 -21.5 33 -21.5h457q53 0 86 82l108 299l4 2q10 25 37 33t53 8h441q23 0 37 20.5 t18 30.5l41 111q10 27 11 43t-21 20h-467q-39 0 -42 10.5t5 32.5l112 309q6 18 22.5 22.5t47.5 4.5h62q23 -12 14 -45l-35 -92q-12 -37 -5 -59.5t32 -22.5h422q20 0 47.5 19.5t44.5 60.5l106 291q16 47 10 61t-47 14h-1144q-16 0 -43 -20.5t-39 -54.5l-400 -1098 q-16 -39 -8 -60.5z" />
<glyph unicode="G" d="M94 133q0 16 2 28.5t6 22.5l330 899q12 35 44 70t72 63.5t81 47t76 18.5h884q47 0 83 -20.5t54 -57.5l66 -63q39 -39 39 -101q0 -16 -2 -31.5t-10 -33.5h-2l-48 -131q-16 -49 -44.5 -71.5t-57.5 -22.5h-106q4 -4 6 -10.5t6 -10.5l69 -70q25 -25 25 -69q0 -33 -14 -70 l-162 -442q-12 -31 -39 -64.5t-63.5 -61.5t-78.5 -46.5t-83 -18.5h-887q-55 0 -102 47l-60 60q-35 18 -59.5 55t-24.5 84zM124 108q7 -32 26.5 -56.5t46 -38t51.5 -13.5h887q39 0 77.5 16.5t72.5 42t59.5 57t35.5 60.5l162 442q13 36 13 63q0 20 -7 37q-16 38 -67 38h-490 q-23 0 -35 -19.5t-16 -29.5l-41 -111q-10 -27 -13 -44t19 -22h29q33 -6 29 -43l-80 -217q-10 -27 -37 -36t-60 -9q-20 0 -36.5 10.5t-18.5 34.5l260 717q10 23 39 33t49 10q25 0 49.5 -7t12.5 -44l-17 -45q-14 -39 -5 -55.5t34 -16.5h422q23 0 46.5 19.5t37.5 60.5l49 133 q11 30 11 57q0 8 -1 15q-4 33 -21.5 57.5t-46 37.5t-61.5 13h-884q-31 0 -69 -16t-74 -42t-64.5 -58.5t-40.5 -63.5l-328 -899q-8 -23 -8 -45q0 -12 3 -23zM1063 782h121l-58 56q-25 10 -32 30z" />
<glyph unicode="H" horiz-adv-x="1482" d="M59 39q0 10 2 23.5t13 31.5l395 1092q16 43 51 69.5t58 26.5h460q16 0 30.5 -10t23.5 -29l73 -74q2 -4 4 -7t5 -7l12 31q16 43 51 69.5t57 26.5h420q16 0 31.5 -12.5t23.5 -32.5l3 -2l69 -68q20 -20 21 -51q0 -14 -9 -37l-397 -1095q-33 -96 -106 -97h-420q-25 0 -39 15 l-74 73q-25 6 -35 31l-8 -24q-39 -94 -104 -95h-457q-27 0 -41 15l-76 75q-37 12 -37 62zM88 21.5q8 -21.5 33 -21.5h457q53 0 86 82l108 299l4 2q10 25 25.5 33t40.5 8h39q25 0 38 -9t3 -34l-109 -299q-14 -37 -7 -59.5t32 -22.5h419q57 0 89 82l397 1096q14 35 1 56 t-30 21h-420q-16 0 -42.5 -21.5t-41.5 -55.5l-176 -486q-6 -16 -17 -29.5t-44 -13.5h-49q-37 0 -39 12.5t4 30.5l176 486q14 35 2 56t-29 21h-460q-16 0 -43 -21.5t-41 -55.5l-398 -1096q-16 -39 -8 -60.5z" />
<glyph unicode="I" d="M55 20q0 4 1 6.5t1 6.5v22l41 113q12 35 26.5 56.5t49.5 27.5h272q25 0 35 24l234 642h-152q-18 2 -28 12l-76 76q-33 8 -33 47q0 10 3 24.5t13 30.5l37 106l10 11q14 20 31 38.5t39 18.5h1178q41 0 47 -35l78 -76q10 -10 10 -28q0 -10 -2 -20.5t-4 -16.5l-39 -111 q-12 -31 -25.5 -51t-46.5 -26h-274q-8 0 -15.5 -10.5t-15.5 -22.5q-2 -2 -3 -4t-3 -4l-227 -625h157q31 -8 37 -37l76 -74q12 -12 12 -30q0 -10 -5 -23.5t-9 -28.5h-2l-37 -108q-6 -14 -22.5 -39t-51.5 -25h-1177q-20 0 -31 11l-78 77q-18 4 -24.5 16.5t-6.5 28.5zM82 20 q0 -20 20 -20h1178q23 0 37 20.5t18 30.5l39 109q10 27 12.5 44t-20.5 21h-270q-20 0 -19.5 16.5t2.5 32.5l256 707q10 16 22.5 32.5t31.5 16.5h270q25 4 36 21.5t21 44.5l39 108q4 12 4 31q0 20 -22 20h-1178q-23 0 -35 -22.5t-22 -32.5l-37 -104q-10 -27 -12 -44.5 t20 -21.5h266q27 0 31 -14.5t-4 -34.5l-260 -717q-18 -39 -60 -39h-266q-25 -4 -36 -21.5t-21 -43.5l-39 -107q0 -6 -1 -14t-1 -19z" />
<glyph unicode="J" d="M94 133q0 -47 24.5 -84t59.5 -55l60 -60q47 -47 102 -47h887q41 0 83 18.5t78.5 46.5t63.5 61.5t39 64.5l364 1001h3q8 18 8 39q0 31 -21 51l-6 5l1 -2q1 -1 3 -1l-67 66q-8 23 -24.5 34t-33.5 11h-745q-23 0 -39 -18.5t-31 -38.5l-10 -11l-37 -106l-2 -2 q-14 -31 -14 -53q0 -39 32 -47l76 -76q10 -10 29 -12h110l-147 -408q-2 4 -5 9t-7 9l-70 68q-8 23 -24.5 34t-32.5 11h-457q-23 0 -57.5 -25.5t-48.5 -68.5l-136 -363q-4 -10 -6 -22t-2 -29zM124 108q-3 11 -3 23q0 22 8 45l133 363q12 35 39 55t43 20h457q16 0 28.5 -20.5 t-0.5 -54.5l-98 -269q2 -25 18.5 -35t36.5 -10q33 0 59.5 9.5t37.5 35.5l254 699q8 18 -4.5 39.5t-34.5 21.5h-211q-23 4 -21 21.5t13 44.5l36 104q10 10 22.5 32.5t35.5 22.5h745q16 0 28.5 -20.5t0.5 -54.5l-367 -1004q-10 -29 -35.5 -60.5t-59.5 -57t-72.5 -42 t-77.5 -16.5h-887q-25 0 -51.5 13.5t-46 38t-26.5 56.5z" />
<glyph unicode="K" horiz-adv-x="1495" d="M59 39q0 10 2 23.5t13 31.5l395 1092q16 43 51 69.5t58 26.5h460q16 0 30.5 -10t23.5 -29l73 -74q4 -8 8.5 -16t8.5 -18l18 51q16 43 51 69.5t58 26.5h417q16 0 33 -12.5t25 -34.5l69 -68q20 -20 21 -51q0 -14 -8 -37l-164 -452q-12 -35 -54 -88.5t-96 -92.5 q31 -47 31 -104q0 -35 -14 -76l-103 -284q-39 -94 -104 -95h-418q-29 0 -43 15l-76 75q-31 8 -37 43l-14 -38q-39 -94 -104 -95h-457q-27 0 -41 15l-76 75q-37 12 -37 62zM88 21.5q8 -21.5 33 -21.5h457q53 0 86 82l108 299l4 2q10 25 25.5 33t40.5 8h59q20 -2 30.5 -11.5 t-1.5 -43.5l-105 -287q-11 -29 -11 -47q0 -35 38 -35h418q53 0 86 82l102 283q13 35 13 68q0 17 -3 33q-10 48 -38 79q29 18 55 41.5t47.5 48t37 48.5t21.5 42l164 453q14 35 1 56t-30 21h-417q-16 0 -43 -21.5t-41 -55.5l-172 -476q-14 -35 -29.5 -43t-40.5 -10h-59 q-37 0 -39 12.5t4 30.5l176 486q14 35 2 56t-29 21h-460q-16 0 -43 -21.5t-41 -55.5l-398 -1096q-16 -39 -8 -60.5z" />
<glyph unicode="L" horiz-adv-x="1378" d="M59 39q0 10 2 22.5t11 28.5l397 1096q16 43 51 69.5t58 26.5h456q16 0 30.5 -10t22.5 -29l74 -74q18 -23 19 -51q0 -16 -9 -39l-301 -827h390q39 -10 45 -37l77 -76q10 -10 11 -26q0 -18 -13 -52l-43 -112l-2 -2q-10 -16 -26.5 -38t-42.5 -22h-1053q-27 0 -41 15l-76 75 q-37 12 -37 62zM88 21.5q8 -21.5 33 -21.5h1053q23 0 35 21.5t20 31.5l41 109q10 31 10 43q0 16 -23 20h-495q-27 0 -32 14.5t1 30.5l330 908q14 35 2 56t-29 21h-456q-16 0 -43 -21.5t-41 -55.5l-398 -1096q-16 -39 -8 -60.5z" />
<glyph unicode="M" horiz-adv-x="1849" d="M59 39q0 10 2 23.5t13 31.5l397 1094q14 43 49 68.5t58 25.5h469q33 0 47 -39l73 -72q20 -20 27 -84l6 -167l221 294l52 52q12 16 32 16h578q16 0 31.5 -11t23.5 -32l70 -68q-2 0 -3 1l-1 2l6 -5q20 -20 20 -51q0 -20 -8 -39h-2l-397 -1097q-39 -94 -105 -95h-426 q-23 0 -41 15l-75 73q-37 14 -37 60l-88 -113q-14 -18 -43 -18h-39q-10 0 -14.5 1t-10.5 7l-78 78q-10 2 -18 10l-17 16l-10 101l-47 -135q-39 -94 -104 -95h-457q-27 0 -41 15l-76 75q-37 12 -37 62zM88 21.5q8 -21.5 33 -21.5h457q53 0 86 82l137 379l20 -2l37 -432l8 -9 q2 -2 11 -2h38q23 0 27 11l373 477l14 2l-153 -424q-16 -41 -8 -61.5t32 -20.5h426q53 0 86 82l399 1098q12 35 0 55t-28 20h-578q-12 0 -14 -8q-10 -8 -27.5 -26.5t-21.5 -22.5l-342 -455l-19 437q-6 75 -33 75h-1h-469q-16 0 -43 -20.5t-39 -54.5l-400 -1098 q-16 -39 -8 -60.5z" />
<glyph unicode="N" horiz-adv-x="1542" d="M59 39q0 10 2 23.5t13 31.5l397 1094q14 43 49 68.5t58 25.5h469q33 0 47 -39l73 -72q20 -20 27 -81l2 -43l51 139q16 43 51 69.5t58 26.5h418q16 0 31.5 -11t23.5 -34l72 -70q20 -20 20 -51q0 -14 -8 -37l-397 -1097q-18 -45 -47 -70t-60 -25h-418q-23 0 -43 21l-71 72 q-31 14 -50 55l-6 80l-47 -133q-39 -94 -104 -95h-457q-27 0 -41 15l-76 75q-37 12 -37 62zM88 21.5q8 -21.5 33 -21.5h457q53 0 86 82l139 387q4 -4 6 -4h2l10 -6l33 -418q8 -20 21.5 -30.5t23.5 -10.5h418q25 0 48.5 21.5t39.5 60.5l397 1096q14 35 1 56t-29 21h-418 q-16 0 -43 -21.5t-41 -55.5l-160 -441l-31 443q-6 75 -33 75h-1h-469q-16 0 -43 -20.5t-39 -54.5l-400 -1098q-16 -39 -8 -60.5z" />
<glyph unicode="O" d="M94 133q0 16 2 28.5t6 22.5l330 899q12 35 44 70t72 63.5t81 47t76 18.5h884q47 0 83 -20.5t54 -57.5l66 -63q39 -39 39 -101q0 -16 -2 -31.5t-10 -33.5h-2l-326 -897q-12 -31 -39 -64.5t-63.5 -61.5t-78.5 -46.5t-83 -18.5h-887q-55 0 -102 47l-60 60q-35 18 -59.5 55 t-24.5 84zM124 108q7 -32 26.5 -56.5t46 -38t51.5 -13.5h887q39 0 77.5 16.5t72.5 42t59.5 57t35.5 60.5l328 899q11 30 11 57q0 8 -1 15q-4 33 -21.5 57.5t-46 37.5t-61.5 13h-884q-31 0 -69 -16t-74 -42t-64.5 -58.5t-40.5 -63.5l-328 -899q-8 -23 -8 -45q0 -11 3 -23z M731 270l260 717q10 23 39 33t49 10q25 0 49.5 -7t12.5 -44l-258 -709q-10 -27 -37 -36t-60 -9q-20 0 -36.5 10.5t-18.5 34.5z" />
<glyph unicode="P" horiz-adv-x="1497" d="M59 39q0 10 2 23.5t13 31.5l397 1094q14 43 49 68.5t58 25.5h1024q47 0 82.5 -20.5t54.5 -57.5l65 -63q39 -39 39 -101q0 -16 -2 -31.5t-10 -33.5h-2l-193 -531h2q-12 -41 -42.5 -75.5t-69.5 -61t-80 -41t-74 -14.5h-432q-18 2 -31 14l-24 23l-111 -307q-39 -94 -104 -95 h-457q-27 0 -41 15l-76 75q-37 12 -37 62zM88 21.5q8 -21.5 33 -21.5h457q53 0 86 82l325 897q8 20 37 35.5t59 15.5q10 0 24.5 -1t26 -6t17.5 -15.5t0 -28.5l-123 -336q-12 -35 -28.5 -44t-40.5 -11h-29q-23 0 -34 -21.5t-21 -31.5l-39 -107q-10 -31 -11 -43q0 -16 23 -20 h430q31 0 68.5 13t73.5 37.5t63.5 57.5t40.5 70l194 532q11 30 11 57q0 8 -1 15q-4 33 -21 57.5t-46 37.5t-61 13h-1024q-16 0 -43 -20.5t-39 -54.5l-400 -1098q-16 -39 -8 -60.5z" />
<glyph unicode="Q" horiz-adv-x="1533" d="M94 133q0 -47 24.5 -84t59.5 -55l60 -60q47 -47 102 -47h528l68 -67q14 -14 41 -15h418q29 0 60.5 26t47.5 71l150 415h2q8 16 10 34t2 34q0 57 -25 107l175 483h2q8 18 10 33.5t2 31.5q0 61 -39 101l-66 63q-18 37 -54 57.5t-83 20.5h-884q-35 0 -76 -18.5t-81 -47 t-72 -63.5t-44 -70l-330 -899q-4 -10 -6 -22t-2 -29zM124 108q-3 11 -3 23q0 22 8 45l328 899q12 31 40.5 63.5t64.5 58.5t74 42t69 16h884q33 0 61.5 -13t46 -37.5t21.5 -57.5q1 -7 1 -15q0 -27 -11 -57l-180 -495q18 -35 26 -78q2 -13 2 -26q0 -30 -12 -58l-151 -418 q-14 -39 -40 -60.5t-50 -21.5h-418q-34 0 -34 36q0 18 9 46h-612q-25 0 -51.5 13.5t-46 38t-26.5 56.5zM731 270q2 -25 18.5 -35t36.5 -10q33 0 59.5 9.5t37.5 35.5l30 86h-84q-23 4 -20.5 21.5t12.5 44.5l39 106q8 8 20.5 31t34.5 23h80l146 397q12 37 -12.5 44t-49.5 7 q-20 0 -49 -10t-39 -33z" />
<glyph unicode="R" horiz-adv-x="1497" d="M59 39q0 10 2 23.5t13 31.5l397 1094q14 43 49 68.5t58 25.5h1024q47 0 82.5 -20.5t54.5 -57.5l65 -63q39 -39 39 -101q0 -16 -2 -31.5t-10 -33.5h-2l-195 -537q-18 -53 -58 -91t-81 -60l8 -13h-2q12 -20 21.5 -41.5t9.5 -50.5q0 -14 -2 -29.5t-10 -35.5l-54 -142h-2 q-16 -45 -39.5 -66.5t-46.5 -21.5h-444q-12 0 -25 13l-73 73q-16 4 -28.5 19.5t-16.5 36.5l-17 -47q-39 -94 -104 -95h-457q-27 0 -41 15l-76 75q-37 12 -37 62zM88 21.5q8 -21.5 33 -21.5h457q53 0 86 82l325 897q8 20 37 35.5t59 15.5q10 0 24.5 -1t26 -6t17.5 -15.5 t0 -28.5l-123 -336q-12 -35 -28.5 -44t-40.5 -11h-29q-23 0 -34 -21.5t-21 -31.5l-39 -107q-10 -31 -11 -43q0 -16 23 -20h33q16 -16 20 -27.5t2 -26.5l-86 -235q-6 -18 0 -47t23 -29h444q16 0 35.5 18.5t34.5 57.5l53 141q12 33 11 57.5t-8 43t-18.5 35t-19.5 34.5 q41 18 86 57t64 93l196 538q11 30 11 57q0 8 -1 15q-4 33 -21 57.5t-46 37.5t-61 13h-1024q-16 0 -43 -20.5t-39 -54.5l-400 -1098q-16 -39 -8 -60.5z" />
<glyph unicode="S" horiz-adv-x="1497" d="M59 45q0 8 2 20.5t7 22.5l24 64q16 45 47 72.5t64 27.5h590q16 0 42.5 5t36.5 32l9 20h-387q-63 0 -107 43l-61 60q-35 18 -56.5 52t-21.5 81q0 16 2 33.5t10 35.5l172 469q14 43 46 80t71 62.5t80 41t78 15.5h946q35 0 66.5 -20.5t45.5 -51.5l66 -63q31 -31 31 -70 q0 -8 -1 -16t-6 -19h-2l-90 -254q-18 -47 -52 -69.5t-58 -22.5h-422q-25 0 -39 15l-76 73q-31 8 -37 45l-57 -155h360q45 0 83 -21.5t57 -60.5l61 -60q39 -39 39 -98q0 -16 -2 -32.5t-10 -34.5h-2l-103 -285q-16 -43 -45.5 -78t-67.5 -61.5t-79 -41t-76 -14.5h-1024 q-20 0 -35 15l-76 75q-16 6 -29.5 22.5t-13.5 45.5zM92 20.5q12 -20.5 29 -20.5h1024q33 0 70.5 13.5t72.5 38t63.5 57t43.5 71.5l104 287q11 30 11 57q0 8 -1 14q-4 32 -21.5 57.5t-45 38.5t-60.5 13h-467q-20 2 -31.5 11.5t3.5 43.5l100 277q6 18 19.5 28.5t29 15.5 t30.5 6t28 1h28q16 0 22.5 -15.5t2.5 -31.5l-35 -92q-12 -37 -5 -59.5t32 -22.5h422q20 0 47.5 19.5t44.5 60.5l92 254q8 23 3 43t-19.5 35.5t-35 24.5t-40.5 9h-946q-33 0 -71 -13t-73 -37.5t-63.5 -57.5t-42.5 -72l-172 -473q-11 -30 -11 -57q0 -9 1 -15q4 -32 22 -56.5 t46 -38t58 -13.5h500q23 -2 33 -11.5t-4 -43.5l-33 -91q-14 -37 -49 -44t-55 -7h-590q-25 0 -48.5 -22.5t-37.5 -59.5l-25 -67q-12 -35 0 -55.5zM1122 1010l2 -2q0 2 -2 2z" />
<glyph unicode="T" d="M403 39q0 10 2.5 23.5t12.5 31.5l297 824h-152q-18 2 -28 12l-76 76q-33 8 -33 47q0 10 3 24.5t13 30.5l37 106l10 11q14 20 31 38.5t39 18.5h1178q41 0 47 -35l78 -76h-2q0 2 -2 3l4 -3q10 -10 10 -28q0 -10 -2 -20.5t-4 -16.5l-39 -111q-12 -31 -25.5 -51t-46.5 -26 h-274q-10 0 -19.5 -12.5t-19.5 -26.5l-324 -897q-39 -94 -104 -95h-457q-27 0 -41 15l-76 75q-37 12 -37 62zM432 21.5q8 -21.5 33 -21.5h457q53 0 86 82l325 899q10 16 23.5 32.5t32.5 16.5h270q25 4 36 21.5t21 44.5l39 108q4 12 4 31q0 20 -22 20h-1178q-23 0 -35 -22.5 t-22 -32.5l-37 -104q-10 -27 -12 -44.5t20 -21.5h266q27 0 31 -14.5t-4 -34.5l-326 -899q-16 -39 -8 -60.5z" />
<glyph unicode="U" d="M94 133q0 16 2 28.5t6 22.5l369 1004q14 43 49 68.5t58 25.5h456q16 0 32.5 -11t25.5 -34l69 -68q6 -6 15 -22l14 41q14 43 49 68.5t57 25.5h422q16 0 32.5 -11t25.5 -34l67 -66q-2 0 -3 1l-1 2l6 -5q20 -20 21 -51q0 -20 -8 -39h-3l-364 -1001q-12 -31 -39 -64.5 t-63.5 -61.5t-78.5 -46.5t-83 -18.5h-887q-55 0 -102 47l-60 60q-35 18 -59.5 55t-24.5 84zM124 108q7 -32 26.5 -56.5t46 -38t51.5 -13.5h887q39 0 77.5 16.5t72.5 42t59.5 57t35.5 60.5l367 1004q12 35 0 55t-29 20h-422q-16 0 -42.5 -20.5t-39.5 -54.5l-331 -910 q-10 -27 -37 -36t-60 -9q-20 0 -36.5 10.5t-18.5 34.5l332 910q12 35 0 55t-29 20h-456q-16 0 -43 -20.5t-39 -54.5l-367 -1004q-8 -23 -8 -45q0 -11 3 -23z" />
<glyph unicode="V" horiz-adv-x="1617" d="M383 25q0 -33 33 -43l76 -76q12 -12 33.5 -15.5t41.5 -3.5h654q29 0 53 22.5t57 59.5l664 1125l12 30q2 6 5 16l4 11q0 14 -9 23l-80 77q-4 12 -13 21.5t-28 9.5h-407q-37 0 -68 -29.5t-43 -50.5l-192 -328l18 199q4 12 6 23.5t2 23.5q0 29 -14 43l-76 74q-12 45 -96 45 h-443q-25 0 -46 -17.5t-33 -29.5l-9 -12l-10 -21q-6 -18 -6 -20l-2 -2l-84 -1151v-4zM410 29l84 1140q0 -2 4 19l14 29q10 10 27.5 24t33.5 14h443q60 -1 68 -23q4 -10 3 -23q0 -17 -6 -40l-49 -594l361 613q10 16 34.5 41.5t51.5 25.5h407q16 0 15.5 -10t-5.5 -20l-10 -25 l-661 -1122q-31 -35 -53.5 -56.5t-43.5 -21.5h-653q-23 0 -46 4t-19 25z" />
<glyph unicode="W" horiz-adv-x="1849" d="M59 45q0 -29 13.5 -45t29.5 -23l76 -75q14 -14 35 -15h469q39 0 104 84l209 269l4 -183q0 -4 4.5 -19t10.5 -32q0 -29 22 -33l82 -79q6 -6 23 -7h577q23 0 54.5 25t46.5 65l399 1096h2q6 14 8 27.5t2 23.5q0 31 -14 45l-78 76q-14 37 -55 37h-426q-31 0 -60.5 -24.5 t-48.5 -75.5l-55 -148l-4 99q0 12 -6 18l-80 80q-2 27 -45 26h-55l-27 -12l-94 -117q-4 27 -15 41l-77 76q-14 37 -56 37h-456q-33 0 -62 -26.5t-47 -73.5l-401 -1094q-4 -10 -6.5 -22.5t-2.5 -20.5zM92 76l402 1098q14 39 36.5 60t47.5 21h456q25 0 33 -21.5t-6 -59.5 l-139 -381l22 4l348 426l17 8h49q20 0 18 -8l29 -471l14 2l154 420q14 41 36.5 61t47.5 20h426q25 0 33 -21.5t-7 -59.5l-401 -1098q-12 -35 -39 -55.5t-43 -20.5h-577q-12 0 -9 10q-6 6 -10 24.5t-4 22.5l-10 455l-338 -436q-61 -76 -88 -76h-469q-16 0 -28.5 20.5 t-0.5 55.5z" />
<glyph unicode="X" horiz-adv-x="1495" d="M61 39q0 10 2.5 23.5t12.5 31.5l102 285q16 47 52 92t83 80q-12 23 -18 49.5t-6 50.5q0 18 3 39t11 37l166 459q16 43 51 69.5t58 26.5h454q16 0 30.5 -10t22.5 -29l74 -74q6 -10 11.5 -20t7.5 -25l22 62q16 43 51 69.5t58 26.5h417q16 0 33 -12.5t25 -34.5l69 -68 q20 -20 21 -51q0 -14 -8 -37l-166 -461q-14 -35 -50 -84t-89 -88q26 -40 27 -88q0 -47 -17 -88h-2l-103 -288q-39 -94 -104 -95h-418q-29 0 -43 15l-76 75q-31 8 -37 43l-14 -38q-39 -94 -104 -95h-455q-27 0 -41 15l-76 75q-37 12 -37 62zM90 21.5q8 -21.5 33 -21.5h455 q53 0 86 82l104 287q12 35 28.5 44t39.5 11h65q20 -2 30.5 -11.5t-1.5 -43.5l-105 -287q-11 -29 -11 -47q0 -35 38 -35h418q53 0 86 82l104 289q14 38 14 74q0 12 -2 23q-6 46 -34 77q59 37 98 88t53 86l166 459q14 35 1 56t-30 21h-417q-16 0 -43 -21.5t-41 -55.5 l-172 -476q-14 -35 -29.5 -43t-40.5 -10h-68q-18 2 -30.5 10.5t2.5 42.5l172 476q14 35 2 56t-29 21h-454q-16 0 -43 -21.5t-41 -55.5l-166 -459q-12 -30 -12 -71v-15q2 -51 34 -88q-47 -31 -88 -77t-59 -97l-105 -289q-16 -39 -8 -60.5z" />
<glyph unicode="Y" d="M227 494q0 14 2 28.5t9 28.5l233 637q14 43 49 68.5t58 25.5h456q16 0 31.5 -11t24.5 -32l2 -2l69 -68q6 -6 15 -22l14 41q14 43 49 68.5t57 25.5h422q16 0 31.5 -11t24.5 -32l2 -2l69 -68q20 -20 21 -51q0 -20 -8 -39h-3l-231 -639q-10 -31 -37.5 -64.5t-63.5 -61 t-79 -45t-84 -17.5h-137q-6 0 -13.5 -8t-11.5 -17h-2l-86 -245q-39 -94 -104 -95h-457q-27 0 -41 15l-76 75q-37 12 -37 62q0 10 2 23.5t13 31.5l55 158q-51 4 -94 47l-60 57q-35 20 -59.5 55t-24.5 83zM255 470q7 -32 27.5 -55.5t47 -36.5t51.5 -13h121q10 0 17 -11.5 t1 -25.5l-88 -246q-16 -39 -8 -60.5t33 -21.5h456q53 0 86 82l88 246q4 10 17.5 23.5t25.5 13.5h138q39 0 77.5 16t72.5 42t59.5 56.5t35.5 59.5l234 641q12 35 0 55t-29 20h-422q-16 0 -42.5 -20.5t-39.5 -54.5l-200 -547q-10 -27 -37 -36t-59 -9q-20 0 -36 10t-20 35 l201 547q12 35 0 55t-29 20h-456q-16 0 -43 -20.5t-39 -54.5l-234 -641q-9 -25 -9 -47q0 -11 2 -22z" />
<glyph unicode="Z" horiz-adv-x="1486" d="M53 29q0 14 6 32l41 111q6 8 26.5 32.5t37.5 41.5l598 497h-236q-25 0 -39 15l-75 73q-39 14 -39 66q0 10 2 23.5t8 27.5l98 266l11 11q14 20 30.5 38.5t38.5 18.5h1178q39 0 45 -33l78 -75q10 -10 10 -33q0 -10 -2 -19q0 -4 -1 -7t-1 -7l-41 -117h-2q-4 -16 -9.5 -27.5 t-15.5 -21.5l-20 -29l-758 -661h352q31 -8 37 -37l76 -74q12 -12 12 -30q0 -10 -5 -23.5t-9 -28.5h-2l-37 -104q-6 -16 -21.5 -42t-52.5 -26h-1177q-18 0 -29 11l-78 77q-18 4 -26.5 19.5t-8.5 34.5zM81 19.5q1 -19.5 21 -19.5h1178q27 0 39 19.5t16 33.5l39 107 q10 27 12.5 44t-20.5 21h-522q-25 0 -29 14.5t2 32.5l858 752l19 25q10 10 14 20t10 27l37 104q0 6 2 15.5t2 17.5q0 23 -20 22h-1178q-23 0 -35 -22.5t-22 -32.5l-96 -264q-14 -41 -4 -60.5t30 -19.5h422q25 0 48.5 21.5t37.5 60.5l33 92h172l-967 -805 q-16 -16 -34.5 -37.5t-22.5 -27.5l-39 -107q-4 -14 -3 -33.5z" />
<glyph unicode="[" horiz-adv-x="993" d="M6 -94q0 -47 45 -66l68 -67q10 -10 25.5 -16.5t33.5 -14.5h643q45 0 68 37l61 170v6q0 25 -20 45l-70 70q-10 18 -31 36h-49l334 920h2q10 27 21.5 33t27.5 6h152q45 20 55 41l62 170v8q0 20 -13 33l-75 74q-6 39 -54 39h-643q-37 0 -70.5 -15.5t-52.5 -68.5l-512 -1405 q-8 -18 -8 -35zM39 -68l512 1405q14 41 42 53.5t56 12.5h643q35 0 29 -35l-55 -151q-14 -25 -45 -39h-148q-23 0 -38 -8.5t-29 -43.5l-363 -995q-12 -35 -5 -43t30 -8h153q20 -14 17 -39l-56 -152q-18 -35 -53 -34h-641q-31 10 -46 26.5t-3 50.5z" />
<glyph unicode="\" horiz-adv-x="960" d="M317 53v19q0 8 2 14l154 1120l12 29q4 16 16.5 31.5t39.5 15.5h407q23 0 36 -12.5t20 -28.5l2 -2l71 -70q12 -12 16.5 -29.5t4.5 -33.5v-12l-162 -1102l-6 -12h-2q-10 -29 -41 -61t-60 -32h-350q-31 0 -43 15l-76 75q-18 6 -29.5 23.5t-11.5 52.5zM346 78 q-6 -45 6.5 -61.5t32.5 -16.5h350q23 0 49.5 28.5t34.5 51.5l4 8l162 1100q2 16 -4 41.5t-33 25.5h-407q-16 0 -21.5 -10t-9.5 -20l-10 -25z" />
<glyph unicode="]" horiz-adv-x="993" d="M-6 -109l59 162q31 37 60 53h161q16 0 23.5 5.5t13.5 27.5l336 926h-43l-86 86h-8q-33 33 -33 68l64 176q23 35 71 35h643q29 0 52.5 -9.5t31.5 -34.5l74 -73q14 -14 14 -39q0 -20 -8 -37h-2l-510 -1403q-14 -43 -42.5 -61.5t-76.5 -30.5h-647q-23 0 -37 14l-73 74 q-37 8 -37 51v10zM20 -111q-6 -35 29 -34h641q41 10 67.5 26.5t39.5 50.5l512 1405q14 41 -5.5 53.5t-48.5 12.5h-643q-35 0 -53 -35l-55 -151q0 -23 16 -39h148q23 0 34 -8.5t-4 -43.5l-362 -995q-12 -35 -25.5 -43t-36.5 -8h-153q-27 -14 -45 -39z" />
<glyph unicode="^" horiz-adv-x="1609" d="M57 49q0 10 6 23q4 10 17 28l739 1131q23 35 55.5 43t61.5 8h653q39 0 51 -39l74 -72q12 -12 17.5 -34.5t9.5 -51.5l-137 -1044v-2l-2 -6q-8 -23 -20.5 -45.5t-41.5 -22.5h-407q-25 0 -39 15l-76 75q-23 8 -32 31t-9 43v10l18 148l-194 -301q-12 -25 -23.5 -43.5 t-27 -30.5t-38 -18.5t-57.5 -6.5h-442q-20 0 -35 15l-74 73q-23 6 -32 24.5t-11 35.5q-4 4 -4 14zM88 39q0 -10 8 -24.5t25 -14.5h442q59 0 83 21.5t44 64.5l383 592l-69 -541q-2 -16 5 -37.5t31 -21.5h408q16 0 24.5 13t12.5 26q4 10 5 16l1 6l137 1039q-4 35 -11 56 t-28 21h-653q-23 0 -48.5 -4t-37.5 -24l-748 -1141q-12 -14 -14 -23q-6 -16 0 -24zM1509 137l2 -2v4z" />
<glyph unicode="_" horiz-adv-x="1136" d="M51 23q0 10 3 24t14 31l36 106l11 11q14 20 30.5 38.5t38.5 18.5h830q18 0 28.5 -9.5t14.5 -21.5l80 -78q6 -6 8 -15t2 -19q0 -6 -1 -11.5t-1 -9.5v-6l-41 -117q-12 -31 -25.5 -51t-46.5 -27h-844q-18 2 -28 13l-76 75q-33 10 -33 48zM78 21.5q-2 -17.5 20 -21.5h838 q25 4 36 21.5t21 44.5l39 108q2 10 3 30.5t-21 20.5h-830q-23 0 -35 -22.5t-22 -32.5l-37 -104q-10 -27 -12 -44.5z" />
<glyph unicode="`" horiz-adv-x="675" d="M514 1319q29 29 56.5 49.5t70.5 20.5h190q61 0 74 -46l74 -71q12 -14 16 -35l41 -188q-27 -76 -75 -76h-234q-29 0 -47 18l-74 72q-37 16 -47 63zM543 1311l43 -178q10 -47 49 -48h233q33 0 56 56l-41 184q-6 37 -52 37h-190q-35 0 -56.5 -15.5t-41.5 -35.5z" />
<glyph unicode="a" horiz-adv-x="1609" d="M57 49q0 10 6 23q4 10 17 28l739 1131q23 35 55.5 43t61.5 8h653q39 0 51 -39l74 -72q12 -12 17.5 -34.5t9.5 -51.5l-137 -1044v-2l-2 -6q-8 -23 -20.5 -45.5t-41.5 -22.5h-407q-25 0 -39 15l-76 75q-20 6 -29.5 23.5t-11.5 36.5h-45l-31 28l-110 -172q-14 -23 -25.5 -38 t-25 -25t-34 -15.5t-51.5 -5.5h-442q-20 0 -35 15l-74 73q-23 6 -32 24.5t-11 35.5q-4 4 -4 14zM88 39q0 -10 8 -24.5t25 -14.5h442q55 0 74.5 17.5t44.5 56.5l391 604l-35 -244h-75l-111 -182q-4 -4 -6 -10l-1 -6q-1 -5 3 -9h160l-4 -90q-2 -16 5 -37.5t31 -21.5h408 q16 0 24.5 13t12.5 26q4 10 5 16l1 6l137 1039q-4 35 -11 56t-28 21h-653q-23 0 -48.5 -4t-37.5 -24l-748 -1141q-12 -14 -14 -23q-6 -16 0 -24zM1509 137l2 -2v4z" />
<glyph unicode="b" horiz-adv-x="1497" d="M59 45q0 8 2 20.5t7 22.5l403 1100q14 43 49 68.5t58 25.5h1024q47 0 82.5 -20.5t54.5 -57.5l65 -63q39 -39 39 -101q0 -16 -2 -31.5t-10 -33.5h-2l-125 -348q-12 -37 -53 -89.5t-95 -91.5q31 -47 31 -102q0 -18 -3 -38.5t-13 -41.5h-2l-66 -182q-16 -43 -46 -78 t-67.5 -61.5t-78.5 -41t-76 -14.5h-1022q-20 0 -35 15l-76 75q-16 6 -29.5 22.5t-13.5 45.5zM92 20.5q12 -20.5 29 -20.5h1022q33 0 70.5 13.5t72.5 38t63.5 57t43.5 71.5l67 185q14 37 14 71q0 15 -3 30q-9 48 -37 79q59 35 103 89t56 91l127 350q11 30 11 57q0 8 -1 15 q-4 33 -21 57.5t-46 37.5t-61 13h-1024q-16 0 -43 -20.5t-39 -54.5l-404 -1104q-12 -35 0 -55.5zM729 266l260 713q8 20 37 35.5t59 15.5q10 0 24.5 -1t26 -6t17.5 -15.5t0 -28.5l-100 -277q-14 -35 -29.5 -43t-40.5 -10h-29q-23 0 -35 -21.5t-20 -31.5l-39 -107 q-10 -27 -11 -44t21 -21h31q20 0 30.5 -10.5t-1.5 -44.5l-35 -93q-14 -37 -49 -44t-55 -7q-27 0 -44.5 12.5t-17.5 28.5z" />
<glyph unicode="c" d="M94 133q0 16 2 28.5t6 22.5l330 899q12 35 44 70t72 63.5t81 47t76 18.5h884q47 0 83 -20.5t54 -57.5l66 -63q39 -39 39 -101q0 -16 -2 -31.5t-10 -33.5h-2l-97 -270q-18 -47 -45.5 -70t-56.5 -23h-422q-27 0 -41 15l-76 75q-25 10 -35 35l-100 -282q36 30 62 30h2h422 q39 0 55 -41l69 -69q-2 0 -3 1l-1 1l6 -4q18 -18 19 -47q0 -16 -8 -39l-76 -209q-12 -31 -39 -64.5t-63.5 -61.5t-78.5 -46.5t-83 -18.5h-887q-55 0 -102 47l-60 60q-35 18 -59.5 55t-24.5 84zM124 108q7 -32 26.5 -56.5t46 -38t51.5 -13.5h887q39 0 77.5 16.5t72.5 42 t59.5 57t35.5 60.5l76 209q14 35 2 54.5t-28 19.5h-422q-16 0 -43 -19.5t-41 -54.5l-41 -115q-10 -27 -37 -36t-60 -9q-20 0 -36.5 10.5t-18.5 34.5l260 717q10 23 39 33t49 10q25 0 49.5 -7t12.5 -44l-64 -172q-14 -39 -6 -60.5t33 -21.5h422q51 0 84 80l98 270 q11 30 11 57q0 8 -1 15q-4 33 -21.5 57.5t-46 37.5t-61.5 13h-884q-31 0 -69 -16t-74 -42t-64.5 -58.5t-40.5 -63.5l-328 -899q-8 -23 -8 -45q0 -11 3 -23z" />
<glyph unicode="d" horiz-adv-x="1488" d="M53 25q0 14 3 25t7 28l410 1120q18 47 44 65.5t50 18.5h1002q43 0 84 -26.5t65 -69.5l45 -45l2 -2l9 -6q23 -23 38 -54.5t15 -66.5q0 -27 -12 -58h-3l-309 -856q-10 -31 -41.5 -66.5t-73.5 -68.5t-89.5 -54.5t-88.5 -21.5h-1007q-29 0 -41 13l-76 75q-33 8 -33 50z M80 15.5q4 -15.5 31 -15.5h1007q39 0 83 20.5t83 50t68.5 63.5t40.5 63l311 858q9 25 9 49q0 12 -2 24q-7 36 -27.5 64.5t-51 45.5t-63.5 17h-1002q-16 0 -35.5 -15t-33.5 -50l-408 -1120q-14 -39 -10 -54.5zM723 244l278 762q4 10 16.5 17t22.5 7h43q10 0 23.5 -1t24 -6 t15.5 -15.5t-1 -28.5l-258 -709q-10 -27 -38 -36t-58 -9h-43q-10 0 -19.5 4t-5.5 15zM1763 1141q2 0 2 -2z" />
<glyph unicode="e" horiz-adv-x="1497" d="M59 45q0 8 2 20.5t7 22.5l403 1100q14 43 49 68.5t58 25.5h1136q37 0 57.5 -6t24.5 -31l78 -76q10 -10 10 -32q0 -18 -14 -56l-107 -293q-18 -47 -52 -69.5t-58 -22.5h-422q-25 0 -39 15l-76 73q-25 10 -35 35l-53 -143h371q39 -12 41 -37l78 -76q10 -10 10 -28 q0 -10 -5 -22.5t-10 -27.5h-2l-41 -114q-12 -27 -28.5 -43.5t-42.5 -16.5h-457q-20 0 -33.5 -6t-21.5 -22h-2l-11 -31h502q39 -12 41 -37l78 -76q10 -10 10 -28q0 -10 -5 -22.5t-9 -27.5l-43 -112l-2 -2q-10 -16 -26.5 -38t-43.5 -22h-1163q-20 0 -35 15l-76 75 q-16 6 -29.5 22.5t-13.5 45.5zM92 20.5q12 -20.5 29 -20.5h1163q23 0 35 21.5t20 31.5l41 109q10 27 11.5 43t-21.5 20h-575q-27 0 -44.5 13.5t-15.5 29.5l41 115q10 25 28.5 33t45.5 8h457q20 0 33.5 15.5t23.5 37.5l39 109q10 27 11 43t-21 20h-467q-39 0 -42 10.5t5 32.5 l108 299q20 25 29.5 31t36.5 6h70q23 -12 14 -45l-35 -92q-12 -37 -5 -59.5t32 -22.5h422q20 0 47.5 19.5t44.5 60.5l106 291q11 33 11 50q0 10 -4 14q-11 11 -52 11h-1136q-16 0 -43 -20.5t-39 -54.5l-404 -1104q-12 -35 0 -55.5z" />
<glyph unicode="f" horiz-adv-x="1497" d="M59 39q0 10 2 23.5t13 31.5l397 1094q14 43 49 68.5t58 25.5h1144q35 0 52.5 -7t21.5 -30l78 -76q10 -10 10 -30t-14 -58l-107 -293q-18 -47 -52 -69.5t-58 -22.5h-422q-25 0 -39 15l-76 73q-25 10 -35 35l-53 -143h371q39 -12 41 -37l78 -76q10 -10 10 -28 q0 -10 -5 -22.5t-10 -27.5h-2l-38 -110q-6 -14 -22.5 -39t-51.5 -25h-441q-23 0 -43 -6t-30 -29l-6 -2l-105 -292q-39 -94 -104 -95h-457q-27 0 -41 15l-76 75q-37 12 -37 62zM88 21.5q8 -21.5 33 -21.5h457q53 0 86 82l108 299l4 2q10 25 37 33t53 8h441q23 0 37 20.5 t18 30.5l41 111q10 27 11 43t-21 20h-467q-39 0 -42 10.5t5 32.5l112 309q6 18 22.5 22.5t47.5 4.5h62q23 -12 14 -45l-35 -92q-12 -37 -5 -59.5t32 -22.5h422q20 0 47.5 19.5t44.5 60.5l106 291q16 47 10 61t-47 14h-1144q-16 0 -43 -20.5t-39 -54.5l-400 -1098 q-16 -39 -8 -60.5z" />
<glyph unicode="g" d="M94 133q0 16 2 28.5t6 22.5l330 899q12 35 44 70t72 63.5t81 47t76 18.5h884q47 0 83 -20.5t54 -57.5l66 -63q39 -39 39 -101q0 -16 -2 -31.5t-10 -33.5h-2l-48 -131q-16 -49 -44.5 -71.5t-57.5 -22.5h-106q4 -4 6 -10.5t6 -10.5l69 -70q25 -25 25 -69q0 -33 -14 -70 l-162 -442q-12 -31 -39 -64.5t-63.5 -61.5t-78.5 -46.5t-83 -18.5h-887q-55 0 -102 47l-60 60q-35 18 -59.5 55t-24.5 84zM124 108q7 -32 26.5 -56.5t46 -38t51.5 -13.5h887q39 0 77.5 16.5t72.5 42t59.5 57t35.5 60.5l162 442q13 36 13 63q0 20 -7 37q-16 38 -67 38h-490 q-23 0 -35 -19.5t-16 -29.5l-41 -111q-10 -27 -13 -44t19 -22h29q33 -6 29 -43l-80 -217q-10 -27 -37 -36t-60 -9q-20 0 -36.5 10.5t-18.5 34.5l260 717q10 23 39 33t49 10q25 0 49.5 -7t12.5 -44l-17 -45q-14 -39 -5 -55.5t34 -16.5h422q23 0 46.5 19.5t37.5 60.5l49 133 q11 30 11 57q0 8 -1 15q-4 33 -21.5 57.5t-46 37.5t-61.5 13h-884q-31 0 -69 -16t-74 -42t-64.5 -58.5t-40.5 -63.5l-328 -899q-8 -23 -8 -45q0 -12 3 -23zM1063 782h121l-58 56q-25 10 -32 30z" />
<glyph unicode="h" horiz-adv-x="1482" d="M59 39q0 10 2 23.5t13 31.5l395 1092q16 43 51 69.5t58 26.5h460q16 0 30.5 -10t23.5 -29l73 -74q2 -4 4 -7t5 -7l12 31q16 43 51 69.5t57 26.5h420q16 0 31.5 -12.5t23.5 -32.5l3 -2l69 -68q20 -20 21 -51q0 -14 -9 -37l-370 -1022q-16 -43 -45 -68.5t-62 -25.5h-420 q-25 0 -38 14l-74 74q-27 6 -35 31l-35 -100q-39 -94 -104 -95h-457q-27 0 -41 15l-76 75q-37 12 -37 62zM88 21.5q8 -21.5 33 -21.5h457q53 0 86 82l108 299l4 2q10 25 25.5 33t40.5 8h39q25 0 38 -9t3 -34l-82 -223q-12 -35 -6 -58.5t30 -23.5h420q27 0 50.5 22.5 t37.5 59.5l371 1020q14 35 1 56t-30 21h-420q-16 0 -42.5 -21.5t-41.5 -55.5l-176 -486q-6 -16 -17 -29.5t-44 -13.5h-49q-37 0 -39 12.5t4 30.5l176 486q14 35 2 56t-29 21h-460q-16 0 -43 -21.5t-41 -55.5l-398 -1096q-16 -39 -8 -60.5z" />
<glyph unicode="i" horiz-adv-x="800" d="M59 39q0 10 2 23.5t13 31.5l395 1092q16 43 51 69.5t58 26.5h456q16 0 30.5 -10t22.5 -29l72 -72q-2 0 -3 1l-1 2l6 -5q18 -23 19 -51q0 -16 -9 -39l-397 -1097q-39 -94 -104 -95h-457q-27 0 -41 15l-76 75q-37 12 -37 62zM88 21.5q8 -21.5 33 -21.5h457q53 0 86 82 l397 1096q14 35 2 56t-29 21h-456q-16 0 -43 -21.5t-41 -55.5l-398 -1096q-16 -39 -8 -60.5z" />
<glyph unicode="j" d="M94 133q0 -47 24.5 -84t59.5 -55l60 -60q47 -47 102 -47h887q41 0 83 18.5t78.5 46.5t63.5 61.5t39 64.5l364 1001h3q8 18 8 39q0 31 -21 51l-6 5l1 -2q1 -1 3 -1l-67 66q-8 23 -24.5 34t-33.5 11h-684q-23 0 -39 -18.5t-30 -38.5q0 -2 -2 -2v-2l2 4l-11 -11l-36 -106 l-3 -2q-14 -31 -14 -53q0 -39 33 -47l76 -76q10 -10 28 -12h49l-147 -408q-2 4 -5 9t-7 9l-70 68l-2 2q-8 20 -23.5 31.5t-31.5 11.5h-457q-23 0 -57.5 -25.5t-48.5 -68.5l-136 -363q-4 -10 -6 -22t-2 -29zM124 108q-3 11 -3 23q0 22 8 45l133 363q12 35 39 55t43 20h457 q16 0 28.5 -20.5t-0.5 -54.5l-98 -269q2 -25 18.5 -35t36.5 -10q33 0 59.5 9.5t37.5 35.5l254 699q8 18 -4.5 39.5t-34.5 21.5h-150q-23 4 -20.5 21.5t12.5 44.5l37 104q10 10 22.5 32.5t34.5 22.5h684q16 0 28.5 -20.5t0.5 -54.5l-367 -1004q-10 -29 -35.5 -60.5t-59.5 -57 t-72.5 -42t-77.5 -16.5h-887q-25 0 -51.5 13.5t-46 38t-26.5 56.5z" />
<glyph unicode="k" horiz-adv-x="1495" d="M59 39q0 10 2 23.5t13 31.5l395 1092q16 43 51 69.5t58 26.5h460q16 0 30.5 -10t23.5 -29l73 -74q4 -8 8.5 -16t8.5 -18l18 51q16 43 51 69.5t58 26.5h417q16 0 33 -12.5t25 -34.5l69 -68q-2 2 -4 2l-2 2l6 -4q20 -20 21 -51q0 -14 -8 -37l-164 -452q-12 -35 -54 -88.5 t-96 -92.5q31 -47 31 -104q0 -35 -14 -76l-76 -209q-16 -43 -45 -68.5t-59 -25.5h-418q-27 0 -41 14l-76 76q-31 8 -37 47l-43 -118q-39 -94 -104 -95h-457q-27 0 -41 15l-76 75q-37 12 -37 62zM88 21.5q8 -21.5 33 -21.5h457q53 0 86 82l108 299l4 2q10 25 25.5 33t40.5 8 h59q20 -2 30.5 -11.5t-1.5 -43.5l-78 -211q-14 -37 -7 -59.5t34 -22.5h417q25 0 48.5 22.5t37.5 59.5l76 207q13 35 13 68q0 17 -3 33q-10 48 -38 79q29 18 55 41.5t47.5 48t37 48.5t21.5 42l164 453q14 35 1 56t-30 21h-417q-16 0 -43 -21.5t-41 -55.5l-172 -476 q-14 -35 -29.5 -43t-40.5 -10h-59q-37 0 -39 12.5t4 30.5l176 486q14 35 2 56t-29 21h-460q-16 0 -43 -21.5t-41 -55.5l-398 -1096q-16 -39 -8 -60.5z" />
<glyph unicode="l" horiz-adv-x="1378" d="M59 39q0 10 2 22.5t11 28.5l397 1096q16 43 51 69.5t58 26.5h456q16 0 30.5 -10t22.5 -29l74 -74q18 -23 19 -51q0 -16 -9 -39l-301 -827h390q39 -10 45 -37l77 -76q10 -10 11 -26q0 -18 -13 -52l-43 -112l-2 -2q-10 -16 -26.5 -38t-42.5 -22h-1053q-27 0 -41 15l-76 75 q-37 12 -37 62zM88 21.5q8 -21.5 33 -21.5h1053q23 0 35 21.5t20 31.5l41 109q10 31 10 43q0 16 -23 20h-495q-27 0 -32 14.5t1 30.5l330 908q14 35 2 56t-29 21h-456q-16 0 -43 -21.5t-41 -55.5l-398 -1096q-16 -39 -8 -60.5z" />
<glyph unicode="m" horiz-adv-x="1849" d="M59 39q0 10 2 23.5t13 31.5l397 1094q14 43 49 68.5t58 25.5h469q33 0 47 -39l73 -72q20 -20 27 -84l6 -167l221 294l52 52q12 16 32 16h578q16 0 31.5 -11t23.5 -32l70 -68q-2 0 -3 1l-1 2l6 -5q20 -20 20 -51q0 -20 -8 -39h-2l-371 -1022q-16 -43 -44.5 -68.5 t-59.5 -25.5h-426q-23 0 -41 14l-76 74q-23 6 -31 27l-120 -156q-14 -18 -43 -18h-39q-10 0 -14.5 1t-10.5 7l-78 78q-10 2 -18 10l-17 16l-10 101l-47 -135q-39 -94 -104 -95h-457q-27 0 -41 15l-76 75q-37 12 -37 62zM88 21.5q8 -21.5 33 -21.5h457q53 0 86 82l137 381 l20 -4l37 -432l8 -9q2 -2 11 -2h38q23 0 27 11l373 477l14 2l-127 -348q-16 -41 -8 -61.5t33 -20.5h426q25 0 48 22.5t38 59.5l372 1022q12 35 0 55t-28 20h-578q-12 0 -14 -8q-10 -8 -27.5 -26.5t-21.5 -22.5l-342 -455l-19 437q-6 75 -33 75h-1h-469q-16 0 -43 -20.5 t-39 -54.5l-400 -1098q-16 -39 -8 -60.5z" />
<glyph unicode="n" horiz-adv-x="1542" d="M59 39q0 10 2 22.5t11 28.5l399 1098q14 43 49 68.5t58 25.5h469q33 0 47 -39l73 -72q20 -20 27 -81l2 -43l51 139q16 43 51 69.5t58 26.5h418q16 0 31.5 -11t23.5 -34l72 -70q20 -20 20 -51q0 -14 -8 -37l-371 -1022q-16 -43 -46 -68.5t-60 -25.5h-418q-23 0 -41 19 l-72 69q-14 6 -27.5 19.5t-19.5 35.5l-14 74l-70 -198q-39 -94 -104 -95h-457q-27 0 -41 15l-76 75q-37 12 -37 62zM88 21.5q8 -21.5 33 -21.5h457q53 0 86 82l139 387q4 -4 6 -4h2l10 -6l62 -340q6 -23 19 -33t24 -10h417q25 0 49.5 22.5t39.5 59.5l370 1020q14 35 1 56 t-29 21h-418q-16 0 -43 -21.5t-41 -55.5l-160 -441l-31 443q-6 75 -33 75h-1h-469q-16 0 -43 -20.5t-39 -54.5l-400 -1098q-16 -39 -8 -60.5z" />
<glyph unicode="o" d="M94 133q0 16 2 28.5t6 22.5l330 899q12 35 44 70t72 63.5t81 47t76 18.5h884q47 0 83 -20.5t54 -57.5l66 -63q39 -39 39 -101q0 -16 -2 -31.5t-10 -33.5h-2l-326 -897q-12 -31 -39 -64.5t-63.5 -61.5t-78.5 -46.5t-83 -18.5h-887q-55 0 -102 47l-60 60q-35 18 -59.5 55 t-24.5 84zM124 108q7 -32 26.5 -56.5t46 -38t51.5 -13.5h887q39 0 77.5 16.5t72.5 42t59.5 57t35.5 60.5l328 899q11 30 11 57q0 8 -1 15q-4 33 -21.5 57.5t-46 37.5t-61.5 13h-884q-31 0 -69 -16t-74 -42t-64.5 -58.5t-40.5 -63.5l-328 -899q-8 -23 -8 -45q0 -11 3 -23z M731 270l260 717q10 23 39 33t49 10q25 0 49.5 -7t12.5 -44l-258 -709q-10 -27 -37 -36t-60 -9q-20 0 -36.5 10.5t-18.5 34.5z" />
<glyph unicode="p" horiz-adv-x="1497" d="M59 39q0 10 2 23.5t13 31.5l397 1094q14 43 49 68.5t58 25.5h1024q47 0 82.5 -20.5t54.5 -57.5l65 -63q39 -39 39 -101q0 -16 -2 -31.5t-10 -33.5h-2l-193 -531h2q-12 -41 -42.5 -75.5t-69.5 -61t-80 -41t-74 -14.5h-432q-18 2 -31 14l-24 23l-111 -307q-39 -94 -104 -95 h-457q-27 0 -41 15l-76 75q-37 12 -37 62zM88 21.5q8 -21.5 33 -21.5h457q53 0 86 82l325 897q8 20 37 35.5t59 15.5q10 0 24.5 -1t26 -6t17.5 -15.5t0 -28.5l-123 -336q-12 -35 -28.5 -44t-40.5 -11h-29q-23 0 -34 -21.5t-21 -31.5l-39 -107q-10 -31 -11 -43q0 -16 23 -20 h430q31 0 68.5 13t73.5 37.5t63.5 57.5t40.5 70l194 532q11 30 11 57q0 8 -1 15q-4 33 -21 57.5t-46 37.5t-61 13h-1024q-16 0 -43 -20.5t-39 -54.5l-400 -1098q-16 -39 -8 -60.5z" />
<glyph unicode="q" horiz-adv-x="1533" d="M94 133q0 -47 24.5 -84t59.5 -55l60 -60q47 -47 102 -47h528l68 -67q14 -14 41 -15h418q29 0 60.5 26t47.5 71l150 415h2q8 16 10 34t2 34q0 57 -25 107l175 483h2q8 18 10 33.5t2 31.5q0 61 -39 101l-66 63q-18 37 -54 57.5t-83 20.5h-884q-35 0 -76 -18.5t-81 -47 t-72 -63.5t-44 -70l-330 -899q-4 -10 -6 -22t-2 -29zM124 108q-3 11 -3 23q0 22 8 45l328 899q12 31 40.5 63.5t64.5 58.5t74 42t69 16h884q33 0 61.5 -13t46 -37.5t21.5 -57.5q1 -7 1 -15q0 -27 -11 -57l-180 -495q18 -35 26 -78q2 -13 2 -26q0 -30 -12 -58l-151 -418 q-14 -39 -40 -60.5t-50 -21.5h-418q-34 0 -34 36q0 18 9 46h-612q-25 0 -51.5 13.5t-46 38t-26.5 56.5zM731 270q2 -25 18.5 -35t36.5 -10q33 0 59.5 9.5t37.5 35.5l30 86h-84q-23 4 -20.5 21.5t12.5 44.5l39 106q8 8 20.5 31t34.5 23h80l146 397q12 37 -12.5 44t-49.5 7 q-20 0 -49 -10t-39 -33z" />
<glyph unicode="r" horiz-adv-x="1497" d="M59 39q0 10 2 23.5t13 31.5l397 1094q14 43 49 68.5t58 25.5h1024q47 0 82.5 -20.5t54.5 -57.5l65 -63q39 -39 39 -101q0 -16 -2 -31.5t-10 -33.5h-2l-195 -537q-16 -51 -50 -89t-73 -60q16 -18 21.5 -40t5.5 -44q0 -45 -18 -88h-2l-25 -70q-16 -47 -39.5 -65.5 t-46.5 -18.5h-446q-12 0 -23 10l-76 76q-18 4 -28.5 20.5t-14.5 36.5l-45 -124q-39 -94 -104 -95h-457q-27 0 -41 15l-76 75q-37 12 -37 62zM88 21.5q8 -21.5 33 -21.5h457q53 0 86 82l325 897q8 20 37 35.5t59 15.5q10 0 24.5 -1t26 -6t17.5 -15.5t0 -28.5l-123 -336 q-12 -35 -28.5 -44t-40.5 -11h-29q-23 0 -34 -21.5t-21 -31.5l-39 -107q-10 -31 -11 -43q0 -16 23 -20h33q16 -16 20 -27.5t2 -26.5l-57 -159q-4 -12 -4 -21q0 -16 6 -35.5t18 -19.5h447q16 0 34.5 15t32.5 54l27 72q15 40 15 86v6q-1 49 -38 78q41 18 80 57t58 93l196 538 q11 30 11 57q0 8 -1 15q-4 33 -21 57.5t-46 37.5t-61 13h-1024q-16 0 -43 -20.5t-39 -54.5l-400 -1098q-16 -39 -8 -60.5zM1491 311l8 -8q-2 2 -3 4t-5 4z" />
<glyph unicode="s" horiz-adv-x="1497" d="M59 45q0 8 2 20.5t7 22.5l24 64q16 45 47 72.5t64 27.5h590q16 0 42.5 5t36.5 32l9 20h-387q-63 0 -107 43l-61 60q-35 18 -56.5 52t-21.5 81q0 16 2 33.5t10 35.5l172 469q14 43 46 80t71 62.5t80 41t78 15.5h946q35 0 66.5 -20.5t45.5 -51.5l66 -63q31 -31 31 -70 q0 -8 -1 -16t-6 -19h-2l-90 -254q-18 -47 -52 -69.5t-58 -22.5h-422q-25 0 -39 15l-76 73q-31 8 -37 45l-57 -155h360q45 0 83 -21.5t57 -60.5l61 -60q39 -39 39 -98q0 -16 -2 -32.5t-10 -34.5h-2l-103 -285q-16 -43 -45.5 -78t-67.5 -61.5t-79 -41t-76 -14.5h-1024 q-20 0 -35 15l-76 75q-16 6 -29.5 22.5t-13.5 45.5zM92 20.5q12 -20.5 29 -20.5h1024q33 0 70.5 13.5t72.5 38t63.5 57t43.5 71.5l104 287q11 30 11 57q0 8 -1 14q-4 32 -21.5 57.5t-45 38.5t-60.5 13h-467q-20 2 -31.5 11.5t3.5 43.5l100 277q6 18 19.5 28.5t29 15.5 t30.5 6t28 1h28q16 0 22.5 -15.5t2.5 -31.5l-35 -92q-12 -37 -5 -59.5t32 -22.5h422q20 0 47.5 19.5t44.5 60.5l92 254q8 23 3 43t-19.5 35.5t-35 24.5t-40.5 9h-946q-33 0 -71 -13t-73 -37.5t-63.5 -57.5t-42.5 -72l-172 -473q-11 -30 -11 -57q0 -9 1 -15q4 -32 22 -56.5 t46 -38t58 -13.5h500q23 -2 33 -11.5t-4 -43.5l-33 -91q-14 -37 -49 -44t-55 -7h-590q-25 0 -48.5 -22.5t-37.5 -59.5l-25 -67q-12 -35 0 -55.5zM1122 1010l2 -2q0 2 -2 2z" />
<glyph unicode="t" d="M403 39q0 10 2.5 23.5t12.5 31.5l297 824h-152q-18 2 -28 12l-76 76q-33 8 -33 47q0 10 3 24.5t13 30.5l37 106l10 11q14 20 31 38.5t39 18.5h1178q41 0 47 -35l78 -76h-2q0 2 -2 3l4 -3q10 -10 10 -28q0 -10 -2 -20.5t-4 -16.5l-39 -111q-12 -31 -25.5 -51t-46.5 -26 h-274q-10 0 -19.5 -12.5t-19.5 -26.5l-324 -897q-39 -94 -104 -95h-457q-27 0 -41 15l-76 75q-37 12 -37 62zM432 21.5q8 -21.5 33 -21.5h457q53 0 86 82l325 899q10 16 23.5 32.5t32.5 16.5h270q25 4 36 21.5t21 44.5l39 108q4 12 4 31q0 20 -22 20h-1178q-23 0 -35 -22.5 t-22 -32.5l-37 -104q-10 -27 -12 -44.5t20 -21.5h266q27 0 31 -14.5t-4 -34.5l-326 -899q-16 -39 -8 -60.5z" />
<glyph unicode="u" d="M94 133q0 16 2 28.5t6 22.5l369 1004q14 43 49 68.5t58 25.5h456q16 0 32.5 -11t25.5 -34l69 -68q6 -6 15 -22l14 41q14 43 49 68.5t57 25.5h422q16 0 32.5 -11t25.5 -34l67 -66q-2 0 -3 1l-1 2l6 -5q20 -20 21 -51q0 -20 -8 -39h-3l-364 -1001q-12 -31 -39 -64.5 t-63.5 -61.5t-78.5 -46.5t-83 -18.5h-887q-55 0 -102 47l-60 60q-35 18 -59.5 55t-24.5 84zM124 108q7 -32 26.5 -56.5t46 -38t51.5 -13.5h887q39 0 77.5 16.5t72.5 42t59.5 57t35.5 60.5l367 1004q12 35 0 55t-29 20h-422q-16 0 -42.5 -20.5t-39.5 -54.5l-331 -910 q-10 -27 -37 -36t-60 -9q-20 0 -36.5 10.5t-18.5 34.5l332 910q12 35 0 55t-29 20h-456q-16 0 -43 -20.5t-39 -54.5l-367 -1004q-8 -23 -8 -45q0 -11 3 -23z" />
<glyph unicode="v" horiz-adv-x="1617" d="M383 25q0 -33 33 -43l76 -76q12 -12 33.5 -15.5t41.5 -3.5h654q29 0 53 22.5t57 59.5l664 1125l12 30q2 6 5 16l4 11q0 14 -9 23l-80 77q-4 12 -13 21.5t-28 9.5h-407q-37 0 -68 -29.5t-43 -50.5l-192 -328l18 199q4 12 6 23.5t2 23.5q0 29 -14 43l-76 74q-12 45 -96 45 h-443q-25 0 -46 -17.5t-33 -29.5l-9 -12l-10 -21q-6 -18 -6 -20l-2 -2l-84 -1151v-4zM410 29l84 1140q0 -2 4 19l14 29q10 10 27.5 24t33.5 14h443q60 -1 68 -23q4 -10 3 -23q0 -17 -6 -40l-49 -594l361 613q10 16 34.5 41.5t51.5 25.5h407q16 0 15.5 -10t-5.5 -20l-10 -25 l-661 -1122q-31 -35 -53.5 -56.5t-43.5 -21.5h-653q-23 0 -46 4t-19 25z" />
<glyph unicode="w" horiz-adv-x="1849" d="M59 45q0 -29 13.5 -45t29.5 -23l76 -75q14 -14 35 -15h469q39 0 104 84l228 293l14 -133q0 -6 4 -21.5t8 -27.5q0 -31 23 -33l82 -80q6 -6 22 -6h578q23 0 55.5 24.5t46.5 65.5l371 1020h2q6 14 8 27.5t2 23.5q0 31 -14 45l-78 76q-14 37 -55 37h-426q-31 0 -60.5 -24.5 t-48.5 -75.5l-55 -148l-4 96q0 10 -6 17l-80 80q-4 29 -47 28h-39q-18 0 -25 -6l-14 -6l-96 -117q0 29 -15 43l-77 76q-14 37 -56 37h-456q-33 0 -62 -26.5t-47 -73.5l-401 -1094q-4 -10 -6.5 -22.5t-2.5 -20.5zM92 76l402 1098q14 39 36.5 60t47.5 21h456q25 0 33 -21.5 t-6 -59.5l-139 -381l22 4l348 424l15 6q2 2 10 2h39q23 0 20 -8l29 -469l14 2l154 420q14 41 36.5 61t47.5 20h426q25 0 33 -21.5t-7 -59.5l-372 -1022q-12 -35 -40 -55.5t-44 -20.5h-578q-12 0 -8 10q-4 6 -8 24.5t-4 22.5l-39 379l-338 -436q-61 -76 -88 -76h-469 q-16 0 -28.5 20.5t-0.5 55.5z" />
<glyph unicode="x" horiz-adv-x="1495" d="M61 39q0 10 2.5 22.5t10.5 28.5l102 283q18 49 59 96t89 82q-31 51 -31 111q0 45 12 75l164 449q16 43 51 69.5t58 26.5h454q16 0 30.5 -10t22.5 -29l74 -74q6 -10 11.5 -20t7.5 -25l22 62q16 43 51 69.5t58 26.5h417q16 0 33 -12.5t25 -34.5l69 -68q20 -20 21 -51 q0 -14 -8 -37l-164 -452q-12 -35 -54 -88.5t-96 -92.5q31 -47 31 -104q0 -35 -14 -76l-76 -209q-16 -43 -45 -68.5t-59 -25.5h-418q-27 0 -41 14l-76 76q-31 8 -37 47l-43 -118q-39 -94 -104 -95h-455q-27 0 -41 15l-76 75q-37 12 -37 62zM90 21.5q8 -21.5 33 -21.5h455 q53 0 86 82l104 287q12 35 28.5 44t39.5 11h65q20 -2 30.5 -11.5t-1.5 -43.5l-78 -211q-14 -37 -7 -59.5t34 -22.5h417q25 0 48.5 22.5t37.5 59.5l76 207q13 35 13 68q0 17 -3 33q-10 48 -38 79q29 18 55 41.5t47.5 48t37 48.5t21.5 42l164 453q14 35 1 56t-30 21h-417 q-16 0 -43 -21.5t-41 -55.5l-172 -476q-14 -35 -29.5 -43t-40.5 -10h-68q-18 2 -30.5 10.5t2.5 42.5l172 476q14 35 2 56t-29 21h-454q-16 0 -43 -21.5t-41 -55.5l-164 -453q-10 -26 -10 -62q0 -13 1 -28q5 -55 39 -90q-49 -31 -94 -79t-65 -101l-103 -283q-16 -39 -8 -60.5 z" />
<glyph unicode="y" d="M227 494q0 14 2 28.5t9 28.5l233 637q14 43 49 68.5t58 25.5h456q16 0 31.5 -11t24.5 -32l2 -2l69 -68q6 -6 15 -22l14 41q14 43 49 68.5t57 25.5h422q16 0 31.5 -11t24.5 -32l2 -2l69 -68q20 -20 21 -51q0 -20 -8 -39h-3l-231 -639q-10 -31 -37.5 -64.5t-63.5 -61 t-79 -45t-84 -17.5h-137q-6 0 -13.5 -8t-11.5 -17h-2l-86 -245q-39 -94 -104 -95h-457q-27 0 -41 15l-76 75q-37 12 -37 62q0 10 2 23.5t13 31.5l55 158q-51 4 -94 47l-60 57q-35 20 -59.5 55t-24.5 83zM255 470q7 -32 27.5 -55.5t47 -36.5t51.5 -13h121q10 0 17 -11.5 t1 -25.5l-88 -246q-16 -39 -8 -60.5t33 -21.5h456q53 0 86 82l88 246q4 10 17.5 23.5t25.5 13.5h138q39 0 77.5 16t72.5 42t59.5 56.5t35.5 59.5l234 641q12 35 0 55t-29 20h-422q-16 0 -42.5 -20.5t-39.5 -54.5l-200 -547q-10 -27 -37 -36t-59 -9q-20 0 -36 10t-20 35 l201 547q12 35 0 55t-29 20h-456q-16 0 -43 -20.5t-39 -54.5l-234 -641q-9 -25 -9 -47q0 -11 2 -22z" />
<glyph unicode="z" horiz-adv-x="1486" d="M53 29q0 14 6 32l41 111q6 8 26.5 32.5t37.5 41.5l598 497h-236q-25 0 -39 15l-75 73q-39 14 -39 66q0 10 2 23.5t8 27.5l98 266l11 11q14 20 30.5 38.5t38.5 18.5h1178q39 0 45 -33l78 -75q10 -10 10 -33q0 -10 -2 -19q0 -4 -1 -7t-1 -7l-41 -117h-2q-4 -16 -9.5 -27.5 t-15.5 -21.5l-20 -29l-758 -661h352q31 -8 37 -37l76 -74q12 -12 12 -30q0 -10 -5 -23.5t-9 -28.5h-2l-37 -104q-6 -16 -21.5 -42t-52.5 -26h-1177q-18 0 -29 11l-78 77q-18 4 -26.5 19.5t-8.5 34.5zM81 19.5q1 -19.5 21 -19.5h1178q27 0 39 19.5t16 33.5l39 107 q10 27 12.5 44t-20.5 21h-522q-25 0 -29 14.5t2 32.5l858 752l19 25q10 10 14 20t10 27l37 104q0 6 2 15.5t2 17.5q0 23 -20 22h-1178q-23 0 -35 -22.5t-22 -32.5l-96 -264q-14 -41 -4 -60.5t30 -19.5h422q25 0 48.5 21.5t37.5 60.5l33 92h172l-967 -805 q-16 -16 -34.5 -37.5t-22.5 -27.5l-39 -107q-4 -14 -3 -33.5z" />
<glyph unicode="{" horiz-adv-x="1167" d="M205 -39q0 16 1 23.5t5 17.5q0 2 1 3t1 3l113 305q-10 4 -13 9l-75 75q-33 8 -33 47q0 8 3 21.5t11 30.5l39 110l10 10q14 20 30.5 39t39.5 19h121l200 557q14 43 46 80t71 62.5t80 41t78 15.5h534q47 0 54 -39l75 -74q12 -12 13 -33v-8l-62 -170q-10 -20 -55 -41h-123 q-20 0 -43.5 -6t-34.5 -33h-2l-334 -920h50q20 -18 30 -36l70 -70q20 -20 20 -45v-6l-61 -170q-23 -37 -68 -37h-534q-35 0 -70 12.5t-57 34.5l-66 66q-29 16 -47 43.5t-18 62.5zM231.5 443q-2.5 -17 20.5 -21h141l-153 -422q-12 -35 -5 -61.5t27.5 -45t49 -28.5t59.5 -10 h534q35 0 53 34l56 152q4 25 -17 39h-118q-12 0 -24.5 1t-23 6t-14.5 15.5t2 28.5l363 995q14 35 43.5 43.5t52.5 8.5h119q31 14 45 39l55 151q6 35 -29 35h-534q-33 0 -71 -13.5t-72.5 -38t-63.5 -57t-43 -71.5l-209 -576h-137q-23 0 -35 -22.5t-22 -32.5l-37 -105 q-10 -27 -12.5 -44z" />
<glyph unicode="|" horiz-adv-x="802" d="M-47 -252q0 29 10 51h2l604 1659q14 43 50 68.5t59 25.5h455q16 0 33.5 -12t25.5 -35l70 -67q20 -20 20 -52q0 -20 -8 -36h-2l-604 -1663q-16 -43 -44 -69t-61 -26h-454q-25 0 -39 15l-74 76q-43 12 -43 65zM-17 -272.5q9 -22.5 33 -22.5h455q27 0 49.5 22.5t36.5 59.5 l606 1663q12 35 -1 55.5t-29 20.5h-455q-16 0 -44 -20.5t-40 -55.5l-606 -1663q-14 -37 -5 -59.5z" />
<glyph unicode="}" horiz-adv-x="1167" d="M-2 -109v-10q0 -43 37 -51l74 -74q14 -14 36 -14h535q33 0 72 11t74.5 31.5t65.5 50.5t44 67l147 407h134q33 6 46 26.5t25 51.5l39 113q0 4 1 7t1 7q2 8 2 18q0 23 -10 33l-78 76q-4 25 -26 31l161 450h2q8 18 10.5 33.5t2.5 32.5q0 61 -39 100l-66 64q-18 37 -54 57.5 t-83 20.5h-535q-49 0 -71 -35l-64 -176q0 -35 33 -68h8l86 -86h43l-336 -926q-6 -23 -29.5 -28t-41.5 -5h-127q-29 -16 -60 -53zM25 -111l55 152q18 25 45 39h119q23 0 53.5 8t42.5 43l362 995q12 37 -11 44.5t-48 7.5h-119q-16 16 -16 39l55 151q18 35 53 35h535 q33 0 61.5 -13.5t46 -38t21.5 -57t-10 -71.5l-209 -576h137q20 0 21 -22q0 -8 -2.5 -17.5t-2.5 -15.5l-36 -105q-10 -27 -21.5 -44t-36.5 -21h-141l-154 -422q-12 -35 -39.5 -61.5t-61.5 -45t-70 -28.5t-66 -10h-535q-35 0 -28 34z" />
<glyph unicode="~" horiz-adv-x="1112" d="M195 414q0 18 6 43l168 178q18 18 52 38.5t62 20.5h277q37 0 53 -39l45 -45l16 19q29 33 58 49t49 16h176q35 0 41 -30l78 -76q10 -10 10 -33t-6 -43l-164 -176q-18 -18 -50 -37.5t-60 -19.5h-242q-20 0 -39 14l-68 65l-24 -26h2q-23 -27 -48.5 -40t-43.5 -13h-211 q-18 0 -29 10l-78 76q-31 8 -30 49zM227 446q-18 -55 13 -55h211q14 0 34.5 12.5t40.5 34.5l90 99l19 -99q4 -47 37 -47h241q23 0 51.5 17.5t45.5 33.5l157 170q18 55 -10 56h-176q-14 0 -35.5 -12.5t-42.5 -34.5l-90 -99l-18 99q-6 47 -35 47h-277q-23 0 -51.5 -17.5 t-44.5 -34.5z" />
<glyph horiz-adv-x="550" />
<glyph unicode="&#xa1;" horiz-adv-x="800" d="M59 45q0 18 9 41l221 608q18 47 47 74t61 27h74l-27 24q-16 6 -29.5 23.5t-13.5 46.5q0 8 2.5 20.5t6.5 22.5l94 250q18 47 47 73.5t61 26.5h383q41 0 56 -37l77 -76q14 -14 15 -45q0 -10 -2 -23.5t-8 -27.5h-3l-92 -252q-14 -41 -45.5 -65.5t-54.5 -24.5l49 -49 q14 -14 14 -45q0 -10 -2 -23.5t-8 -27.5h-2l-219 -609q-16 -41 -48 -65.5t-54 -24.5h-457q-20 0 -35 15l-76 73q-16 6 -28.5 23.5t-12.5 46.5zM90 21.5q12 -21.5 29 -21.5h456q16 0 43 21.5t41 56.5l222 608q14 39 6 60.5t-33 21.5h-457q-25 0 -47 -21.5t-37 -60.5 l-221 -608q-14 -35 -2 -56.5zM434 864.5q12 -20.5 29 -20.5h383q16 0 42.5 20.5t39.5 55.5l94 254q14 39 6 60t-33 21h-383q-25 0 -47 -21.5t-37 -59.5l-94 -254q-12 -35 0 -55.5z" />
<glyph unicode="&#xa2;" horiz-adv-x="1497" d="M139 248q0 37 15 71l235 644q14 43 46 78.5t71 62t80 42t78 15.5h366l8 25q16 43 51 69.5t58 26.5h311q16 0 30.5 -10t22.5 -29l72 -72q-2 0 -3 1l-1 2l6 -5q0 -4 4 -8h64q39 0 63.5 -7t32.5 -34l76 -76q12 -12 12 -36q0 -20 -10 -43h-2l-25 -76q-18 -47 -52 -69.5 t-58 -22.5h-547q-18 0 -48 -5.5t-40 -31.5l-140 -381h486q45 0 55 -39l76 -74q14 -14 14 -45q0 -10 -2 -23.5t-8 -27.5h-2l-23 -66q-14 -41 -45.5 -65.5t-54.5 -24.5h-203l-10 -32q-39 -94 -104 -95h-312q-27 0 -41 15l-75 75q-25 8 -35 37h-244q-68 0 -111 43l-61 60 q-76 39 -76 131zM178 307q-29 -78 9 -129t108 -51h387l-16 -45q-16 -39 -8 -60.5t32 -21.5h311q53 0 86 82l17 45h215q16 0 43 20.5t39 55.5l24 67q14 37 7 59.5t-31 22.5h-555q-10 0 -24.5 1t-26 6.5t-17.5 15.5t0 28l166 455q6 18 19.5 28.5t29 15.5t31.5 6t27 1h546 q20 0 48 19.5t45 60.5l26 76q18 47 -2 58.5t-61 11.5h-183l15 43q14 35 2 56t-29 21h-311q-16 0 -43 -21.5t-41 -55.5l-14 -43h-385q-33 0 -71 -13.5t-73 -38t-63.5 -57.5t-42.5 -72z" />
<glyph unicode="&#xa3;" horiz-adv-x="1634" d="M51 23q0 10 3 24t14 31l36 106l11 11q14 20 30.5 38.5t38.5 18.5h209q25 0 49 31l52 139h-111q-18 2 -29 12l-75 76q-33 8 -33 47q0 23 14 53l2 2l37 107l10 10q14 20 30.5 38.5t39.5 18.5h250l143 400q16 43 51 69.5t58 26.5h637q41 0 47 -35l77 -76q10 -10 11 -28 q0 -10 -2 -20.5t-4 -16.5l-39 -105q0 -2 -1 -5t-1 -5q-12 -29 -25.5 -49t-44.5 -27h-121l-47 -129h107q18 0 28 -9t15 -21l79 -78q6 -6 8.5 -15.5t2.5 -19.5q0 -6 -1 -11t-1 -9v-7l-41 -116q-12 -31 -25.5 -51.5t-46.5 -26.5h-258l-61 -170h342q39 -10 45 -37l77 -76 q10 -10 11 -26q0 -18 -13 -52l-43 -112l-2 -2q-10 -16 -26.5 -38t-42.5 -22h-1334q-18 2 -28 13l-76 75q-33 10 -33 48zM78 21.5q-2 -17.5 20 -21.5h1332q23 0 35 21.5t20 31.5l41 109q10 31 10 43q0 16 -23 20h-448q-27 0 -32 14.5t1 30.5l96 265h267q25 4 36 21t21 44 l39 109q2 10 3 30.5t-21 20.5h-263l99 268h129q25 4 35 21.5t20 44.5l41 110q4 12 4 31q0 20 -22 20h-637q-16 0 -43 -21.5t-41 -55.5l-152 -418h-266q-23 0 -35 -22.5t-22 -32.5l-37 -105q-10 -27 -12.5 -44t20.5 -21h270l-96 -263q-31 -47 -74 -47h-209q-23 0 -35 -22.5 t-22 -32.5l-37 -104q-10 -27 -12 -44.5z" />
<glyph unicode="&#xa4;" horiz-adv-x="1495" d="M61 39q0 -49 37 -62l76 -75q14 -14 41 -15h455q66 0 104 95l14 43q4 -39 37 -48l76 -75q14 -14 43 -15h418q66 0 104 95l103 288h2q16 41 16 84q0 51 -26 92q53 39 89 88.5t50 83.5l166 461q8 23 8 37q0 31 -21 51l-69 68l-2 2q-8 20 -23.5 32.5t-32.5 12.5h-417 q-23 0 -57.5 -26.5t-51.5 -69.5l-22 -64q-2 16 -7.5 26.5t-11.5 20.5l-6 5l1 -2q1 -1 3 -1l-72 72q-8 18 -22 28.5t-31 10.5h-454q-23 0 -58 -26.5t-51 -69.5l-166 -459q-8 -16 -11 -36.5t-3 -39.5q0 -25 6 -51.5t18 -48.5q-47 -35 -82.5 -80t-52.5 -92l-104 -289 q-8 -16 -10.5 -28.5t-2.5 -22.5zM90 21.5q-8 21.5 8 60.5l105 289q18 51 59 97t88 77q-31 37 -34 88t12 86l166 459q14 35 40.5 56t43.5 21h454q16 0 28.5 -21.5t-1.5 -55.5l-94 -260h165l95 260q14 35 40.5 56t43.5 21h417q16 0 29.5 -21.5t-0.5 -55.5l-166 -459 q-14 -35 -53 -86t-98 -88q29 -31 35 -77t-13 -97l-104 -289q-33 -82 -86 -82h-418q-57 0 -27 82l29 82h-162l-28 -82q-33 -82 -86 -82h-455q-25 0 -33 21.5zM788 326q-6 -16 5.5 -21.5t31.5 -5.5q12 0 27.5 6t26.5 21l155 430q4 14 -8 20t-25 6q-12 0 -30.5 -4t-26.5 -26z " />
<glyph unicode="&#xa5;" d="M178 -170q0 12 4 24.5t11 28.5l40 109q0 6 7 6q0 2 1 3t1 3q10 18 24.5 35.5t44.5 17.5h4h-2q-20 4 -26 17.5t-6 31.5q0 10 3 24.5t13 31.5l37 106l10 11l-2 -5v2q2 0 2 3q4 6 8 13t10 13l-53 53q-33 20 -57.5 54t-24.5 82q0 14 2 28.5t9 28.5l233 637q14 43 49 68.5 t58 25.5h456q16 0 31.5 -11t24.5 -32l2 -2l69 -68q6 -6 15 -22l14 41q14 43 49 68.5t57 25.5h422q16 0 32.5 -11t25.5 -34l69 -68q20 -20 21 -51q0 -20 -8 -39h-3l-231 -639q-10 -31 -37.5 -64.5t-63.5 -61t-79 -45t-84 -17.5h-86l24 -25q6 -6 8.5 -15t2.5 -19 q0 -6 -1 -11.5t-1 -9.5v-6l-41 -117q-12 -31 -25.5 -51.5t-46.5 -26.5h-20l24 -24q10 -10 10 -29q0 -10 -2 -20.5t-4 -16.5l-37 -102q0 -2 -1 -4t-1 -4q-12 -33 -25.5 -52.5t-45.5 -25.5h-88l-3 -6q-16 -45 -45.5 -71t-58.5 -26h-457q-27 0 -41 15l-75 76q-14 2 -27 18 q-2 2 -4 3t-4 3l-76 76q-35 12 -35 49zM206 -173q-1 -17 19 -22h105l-6 -20q-27 -82 24 -82h457q25 0 48.5 21.5t37.5 60.5l6 20h98q27 4 37 21.5t21 44.5l39 109q4 12 4 30q0 20 -23 21h-94l20 53h99q25 4 36 21.5t21 44.5l39 108q2 10 3 30.5t-21 20.5h-95l6 19 q4 10 17.5 23.5t25.5 13.5h138q39 0 77.5 16t72.5 42t59.5 56.5t35.5 59.5l234 641q12 35 0 55t-29 20h-422q-16 0 -42.5 -20.5t-39.5 -54.5l-200 -547q-10 -27 -37 -36t-59 -9q-20 0 -36 10t-20 35l201 547q12 35 0 55t-29 20h-456q-16 0 -43 -20.5t-39 -54.5l-234 -641 q-14 -37 -7 -69t27.5 -55.5t47 -36.5t51.5 -13h121q10 0 17 -11.5t1 -25.5l-6 -19h-100q-23 0 -35 -22.5t-23 -32.5l-37 -104q-10 -27 -12 -44.5t21 -21.5h104l-20 -53h-101q-23 0 -35 -22.5t-20 -33.5l-39 -104q-10 -27 -11 -44z" />
<glyph unicode="&#xa6;" horiz-adv-x="802" d="M-47 -252q0 29 10 51h2l604 1659q14 43 50 68.5t59 25.5h455q16 0 33.5 -12t25.5 -35l70 -67q20 -20 20 -52q0 -20 -8 -36h-2l-604 -1663q-16 -43 -44 -69t-61 -26h-454q-25 0 -39 15l-74 76q-43 12 -43 65zM-17 -272.5q9 -22.5 33 -22.5h455q27 0 49.5 22.5t36.5 59.5 l606 1663q12 35 -1 55.5t-29 20.5h-455q-16 0 -44 -20.5t-40 -55.5l-606 -1663q-14 -37 -5 -59.5z" />
<glyph unicode="&#xa7;" horiz-adv-x="1495" d="M61 39q0 -49 37 -62l76 -75q14 -14 41 -15h455q66 0 104 95l23 69h454q25 0 56.5 14.5t62.5 36t54.5 47t33.5 48.5l86 239q61 39 100 92.5t56 89.5l166 461q8 23 8 37q0 31 -21 51l-69 68l-2 2q-8 20 -23.5 32.5t-32.5 12.5h-417q-23 0 -57.5 -26.5t-51.5 -69.5l-86 -242 h-489q-27 0 -61 -14.5t-64.5 -37t-56 -51t-33.5 -55.5l-80 -223q-49 -35 -91 -83t-61 -101l-104 -289q-8 -16 -10.5 -28.5t-2.5 -22.5zM90 21.5q-8 21.5 8 60.5l105 289q18 51 59 97t88 77l84 233q8 25 29.5 49.5t49.5 45t57.5 33t54.5 12.5h505l95 260q14 35 40.5 56 t43.5 21h417q16 0 29.5 -21.5t-0.5 -55.5l-166 -459q-14 -35 -53 -86t-98 -88l-90 -248q-8 -20 -31 -44t-50.5 -43.5t-57 -32.5t-50.5 -13h-467l-28 -82q-33 -82 -86 -82h-455q-25 0 -33 21.5zM788 326q-6 -16 5.5 -21.5t31.5 -5.5q12 0 27.5 6t26.5 21l155 430q4 14 -8 20 t-25 6q-12 0 -30.5 -4t-26.5 -26z" />
<glyph unicode="&#xa8;" horiz-adv-x="1015" d="M446 1106q0 8 2.5 20.5t8.5 26.5l61 166q14 33 38 51.5t40 18.5h246q14 0 27.5 -9.5t19.5 -25.5l76 -76q0 -4 4 -4l16 45q14 33 38 51.5t40 18.5h246q14 0 27.5 -9.5t19.5 -27.5l76 -74q12 -12 12 -35q0 -6 -2 -15t-6 -18h-2l-60 -170q-29 -68 -74 -67h-245q-20 0 -33 12 l-76 74q-16 4 -26 16l-13 -35q-29 -68 -73 -67h-246q-20 0 -33 12l-76 74q-33 6 -33 47zM481 1141q-23 -55 15 -56h245q33 0 56 56l61 170q10 25 2 38t-18 13h-246q-10 0 -26.5 -13.5t-26.5 -37.5zM948 1141q-23 -55 15 -56h245q33 0 56 56l61 170q10 25 2 38t-18 13h-246 q-10 0 -26.5 -13.5t-26.5 -37.5z" />
<glyph unicode="&#xa9;" horiz-adv-x="768" d="M422 1008q0 43 18 96q59 164 242 254q118 31 147 31q76 0 129 -39q31 -29 50 -56l57 -57q51 -51 53 -100h-2q6 -16 8 -30.5t2 -27.5q0 -37 -16 -82q-12 -33 -35.5 -66.5t-58.5 -72.5q-31 -35 -51.5 -50t-51.5 -32l-24 -14q-43 -16 -66.5 -24.5t-38 -11.5t-25.5 -4t-30 -1 q-74 0 -137 43l-76 74q-4 4 -10 7t-10 7q-27 31 -40.5 49.5t-29.5 54.5q-2 10 -3 22.5t-1 29.5zM453 965q14 -35 26.5 -52.5t36.5 -44.5q53 -35 121 -34l35 4t106 30l33 19q29 16 49.5 31.5t48.5 46.5q33 37 56.5 69.5t33.5 61.5q10 31 13.5 63.5t-6.5 67.5q-4 53 -64 102 q-45 33 -113 33q-18 0 -143 -33q-166 -84 -221 -233q-25 -68 -12 -131zM502 991q-12 47 8 104.5t72 114.5q104 111 233 111h10q39 0 71 -18.5t51.5 -49t23.5 -68.5t-10 -77l-5 -12q-23 -51 -74 -105.5t-110 -85.5q-92 -25 -117 -24q6 0 9 1l2 1q0 2 -99 20l-18 2 q-43 35 -47 86zM551 932q2 -4 6 -8zM592 1095.5q-55 -151.5 86 -151.5q100 0 162 100l-37 13q-43 -66 -111 -66q-94 0 -53 105q41 115 135 114q51 0 57 -55l46 10q8 82 -89 82q-141 0 -196 -151.5zM809 1081l72 -22q-2 -4 -3 -5t-4 -5l13 -13q4 4 5 6t3 5l-49 49 q-25 -6 -37 -15zM907 1208l37 -37q0 16 -6 35q-4 0 -10 1t-10 1h-11z" />
<glyph unicode="&#xaa;" d="M92 127q0 -43 18.5 -80t57.5 -55l63 -64q41 -41 107 -41h887q27 0 65.5 14.5t78.5 41t74 60.5t46 75l326 897h2q10 23 10 51q0 33 -13.5 61.5t-35.5 51.5l-58 57q-20 37 -55 61.5t-76 24.5h-884q-37 0 -78 -15.5t-80 -41t-71 -62.5t-46 -80l-49 -129q-6 -14 -8 -28.5 t-2 -26.5q0 -47 37 -61l57 -56h-16q-59 0 -108.5 -43t-76.5 -112l-162 -439q-6 -14 -8 -29.5t-2 -31.5zM119 115.5q-2 31.5 8 60.5l162 442q23 61 65.5 99.5t94.5 38.5h571q39 6 55 43l68 188q8 23 -13.5 33t-42.5 10q-23 0 -54.5 -8t-43.5 -43l-16 -43q-14 -39 -36 -56.5 t-46 -17.5h-459q-23 0 -32 19.5t6 60.5l49 133q14 39 42.5 72t63.5 57.5t73 37.5t71 13h884q29 0 55.5 -16t44 -42t23.5 -58.5t-6 -63.5l-328 -899q-12 -37 -42.5 -68.5t-67.5 -56t-74 -38t-61 -13.5h-887q-39 0 -66.5 16.5t-43 42t-17.5 57zM731 270q-10 -27 10.5 -36 t53.5 -9q20 0 43.5 10.5t44.5 34.5l82 224q4 31 -23 36h-74q-35 -6 -57 -43z" />
<glyph unicode="&#xab;" horiz-adv-x="1134" d="M225 541l430 313q25 10 35 10q35 0 60 -41l8 -12l59 -61h-2v2l8 -7q10 -10 15 -18l24 -41l230 168q25 10 34 10q35 0 60 -41l8 -12l59 -61h-2v2l9 -7q10 -10 14 -18l51 -80v-10q2 -8 4 -14.5t2 -12.5q0 -4 -2 -11t-4 -11h-2q-6 -14 -18 -27l-172 -125l84 -127q0 -2 1 -5 t1 -7t-1 -8t-1 -8q-6 -14 -16.5 -27.5t-20.5 -24.5l-111 -79q-43 -35 -74 -35q-6 0 -30 10l-80 80q-12 4 -19 8l-149 238l-21 -15l84 -127q0 -2 1 -5t1 -7t-1 -8t-1 -8q-6 -14 -16 -27.5t-21 -24.5l-110 -79q-43 -35 -74 -35q-6 0 -31 10l-79 80q-12 4 -19 8zM260 535 l189 -302q12 -6 18 -6q20 0 61 31l111 80q8 8 16.5 18.5t12.5 20.5q2 14 0 20l-90 138l186 135q12 12 14 18q6 14 1 27.5t-3 19.5l-47 74q-18 29 -39 29q-10 0 -22 -7zM696 535l189 -302q12 -6 18 -6q20 0 62 31l110 80q8 8 16.5 18.5t12.5 20.5q2 14 0 20l-90 138l186 135 q12 12 14 18q6 14 1 27.5t-3 19.5l-47 74q-18 29 -39 29q-10 0 -22 -7z" />
<glyph unicode="&#xac;" horiz-adv-x="919" d="M205 444q0 10 3 24.5t13 31.5l37 106l10 10q14 20 30.5 39t39.5 19h612q18 0 28.5 -9.5t14.5 -21.5l80 -78q6 -6 8 -15t2 -20q0 -6 -1 -11t-1 -9v-6l-137 -375q-10 -33 -37.5 -41t-42.5 -10h-110q-23 0 -38.5 2t-25.5 12l-76 76q-33 6 -32 47v10l30 84h-270q-18 2 -29 13 l-75 75q-33 8 -33 47zM231.5 443q-2.5 -17 20.5 -21h428l-72 -199q-4 -23 11.5 -28t42.5 -5h108q10 2 32.5 8.5t31.5 28.5l135 369q2 10 3 30.5t-22 20.5h-612q-23 0 -35 -22.5t-22 -32.5l-37 -105q-10 -27 -12.5 -44z" />
<glyph unicode="&#xad;" horiz-adv-x="667" d="M205 444q0 10 3 24.5t13 31.5l37 106l10 10q14 20 30.5 39t39.5 19h360q18 0 28.5 -9.5t14.5 -21.5l80 -78q6 -6 8 -15t2 -20q0 -6 -1 -11t-1 -9v-6l-41 -117q-12 -31 -25 -51.5t-46 -26.5h-375q-18 2 -29 13l-75 75q-33 8 -33 47zM231.5 443q-2.5 -17 20.5 -21h369 q25 4 36 21.5t21 43.5l39 109q2 10 3 30.5t-22 20.5h-360q-23 0 -35 -22.5t-22 -32.5l-37 -105q-10 -27 -12.5 -44z" />
<glyph unicode="&#xae;" horiz-adv-x="768" d="M418 997q0 51 20 105q16 41 32.5 64.5t45.5 62.5q66 78 156 117q75 38 155 38q78 0 140 -49q55 -45 61 -112q8 -27 8 -60q0 -41 -14 -82q-20 -57 -96 -139q-47 -61 -142 -104q-35 -14 -55 -21.5t-33.5 -10.5t-27 -4t-33.5 -1q-76 0 -121 28l-20 21q-4 2 -9 6l9 -6l-19 18 q-35 35 -47 82q-2 10 -3 20.5t-1 26.5q0 49 20 103q18 43 35 67.5t45 61.5l4 4v2q57 68 146 104q76 39 153 39q80 0 127 -41l7 -8q4 -4 9 -7t9 -7l33 -33l55 -57q0 2 -2 2v2l6 -6q39 -37 43 -95q4 -16 6 -30.5t2 -26.5q0 -39 -14 -80q-20 -57 -94 -137q-43 -59 -140 -102 q-35 -14 -55 -21.5t-33.5 -10.5t-25.5 -4t-33 -1q-80 0 -135 39q-8 4 -13.5 10t-11.5 12l-53 53l-18 13q-29 23 -47.5 46t-26.5 56q-2 10 -3 20.5t-1 32.5zM449 958q18 -63 63 -96q47 -35 123 -35l37 5q37 4 102 30q90 41 131 96q70 76 92 134q23 66 4 129q-2 63 -61 100 q-43 37 -113 37q-72 0 -145 -37q-80 -33 -137 -100l-4 -4q-29 -35 -45.5 -59.5t-32.5 -65.5q-27 -72 -14 -134zM477 864l8 -8zM498 983q2 51 5 80l3 29q10 25 27.5 52t46.5 60q104 109 231 109h8q39 0 71 -18.5t51.5 -47t23.5 -67.5t-11 -78l-2 -10l-18 -34q-19 -34 -53 -75 q-41 -35 -71 -55.5t-51.5 -31.5t-36.5 -14t-30 -3q-10 0 -19 -1t-22 -4l-21 4q-20 5 -69 17l-16 6q-45 45 -47 82zM516 905q0 29 6 60q4 -6 7 -13.5t8 -13.5l-5 -14l93 -93h16l4 -4l4 -4l13 -2h-3q12 -4 21.5 -5t17.5 -3q-16 -4 -28 -5t-35 -1q-63 0 -105 20q-8 14 -10 31 q-2 10 -3 20.5t-1 26.5zM524 985q0 23 1 36t1 21q0 10 1 18.5t3 20.5q10 23 25.5 49.5t42.5 55.5q10 10 18.5 17t18.5 16l-98 -269q-13 19 -13 35zM561 944h45l43 121h27q27 0 31 -12q10 -4 28 -62l4 -47h58l-15 57q-10 35 -15 48.5t-24 25.5q84 2 113 80q6 16 -2 41 q-4 8 -8 11t-15 12q-10 12 -71 12h-94zM580 918h45l41 120h10q4 0 8 -6q8 -2 25 -51l6 -63h26q-16 -8 -27.5 -10.5t-21.5 -2.5h-20t-19 -2v-2q-16 2 -27.5 4t-45.5 13zM664 1102l32 90h49q45 0 46 -2q23 -14 14 -41q-8 -23 -26.5 -35t-59.5 -12h-55zM686 1040q2 0 2 -2z M694 1257q57 29 117 29h8q41 0 72 -25.5t41 -64.5h8q4 -20 4 -35q0 -14 -2 -20l-4 4q-2 -10 -4 -19.5t-6 -19.5l-2 -8q-8 -16 -13.5 -26.5t-11.5 -20t-14 -19.5t-23 -28q-14 -10 -25.5 -19.5t-21.5 -17.5l-10 41l-6 14l4 2q-4 10 -6 18.5t-6 14.5q66 23 88 90q4 10 4 24 q0 8 -1 16.5t-5 18.5q-10 16 -14.5 21.5t-18.5 13.5q-23 16 -86 16h-66zM698 1030l13 35l63 -61l4 14l25 -25l10 -39q-16 -12 -25 -16q-4 4 -4 6zM700 1128l13 37h32q20 0 27 4q4 -4 6 -5l2 -1v-6q-4 -14 -17 -21.5t-44 -7.5h-19zM791 1024l2 -2q-2 0 -2 2zM793 1159h59h12 q8 0 15 -2q0 -2 -5 -10v2q-10 -29 -24 -47zM866 1282q14 2 26.5 3t27.5 1q51 0 92 -18q4 -10 6 -21.5t4 -21.5l-2 2l2 -6q4 -16 6 -30.5t2 -27.5q0 -10 -1 -21.5t-3 -21.5q-14 29 -29 43l-92 92q-10 8 -19 15.5t-20 11.5z" />
<glyph unicode="&#xaf;" horiz-adv-x="1136" d="M426 1057q0 12 4 24.5t10 28.5l41 109q0 6 6 6q0 2 1 3t1 3q10 18 24.5 35.5t45.5 17.5h830q41 0 47 -35l77 -75q10 -10 11 -29q0 -10 -2 -20.5t-4 -16.5l-37 -102q0 -2 -1 -4.5t-1 -4.5q-12 -33 -25.5 -52t-46.5 -25h-848q-12 2 -22 12l-76 74q-35 12 -35 51z M454 1053.5q-1 -17.5 19 -21.5h838q27 4 37 21.5t20 44.5l39 108q4 12 4 31q0 20 -22 20h-830q-23 0 -35 -22.5t-20 -32.5l-39 -104q-10 -27 -11 -44.5z" />
<glyph unicode="&#xb0;" horiz-adv-x="548" d="M446 1106q0 -41 33 -47l76 -74q12 -12 33 -12h246q45 0 73 67l60 170h2q4 8 6 17.5t2 15.5q0 23 -12 35l-4 2q2 0 2 -2h2l-76 76q-6 16 -19.5 25.5t-27.5 9.5h-246q-16 0 -40 -18.5t-38 -51.5l-61 -166q-6 -14 -8.5 -26.5t-2.5 -20.5zM481 1141l62 170q10 25 26.5 38 t26.5 13h246q10 0 18 -13.5t-2 -37.5l-61 -170q-23 -55 -56 -56h-245q-37 0 -15 56zM616 1202q-6 -12 7 -12h71q10 0 17 12l14 41q2 12 -6 12h-72q-14 0 -16 -12zM649 1217l4 12l13 -12h-17zM678 1229h14l-4 -10z" />
<glyph unicode="&#xb1;" horiz-adv-x="921" d="M51 23q0 10 3 24t14 31l36 106l11 11q14 20 30.5 38.5t38.5 18.5h320l-66 65q-33 6 -32 48v10l30 84h-39q-23 6 -28 14l-74 74q-35 10 -35 49q0 12 4 24.5t10 28.5l43 111v-2q0 2 5 6h-3q10 18 29 38.5t47 20.5h176l68 191q14 29 37.5 34t58.5 5h115l12 -6h4 q12 -4 25.5 -11.5t17.5 -25.5l78 -76h-2q0 2 -2 2l4 -2q10 -10 10 -29q0 -8 -4 -16h-2l-22 -66h39q20 0 31.5 -10t15.5 -25l75 -75q12 -12 13 -33q0 -8 -3 -17.5t-5 -15.5l-37 -102q0 -2 -1 -5t-1 -5q-12 -29 -25.5 -49.5t-44.5 -26.5h-190l-66 -180q-6 -16 -16 -27h43 q18 0 28.5 -9.5t14.5 -21.5l80 -78q6 -6 8 -15t2 -19q0 -6 -1 -11.5t-1 -9.5v-6l-41 -117q-12 -31 -25.5 -51t-46.5 -27h-627q-18 2 -28 13l-76 75q-33 10 -33 48zM78 21.5q-2 -17.5 20 -21.5h621q25 4 36 21.5t21 44.5l39 108q2 10 3 30.5t-21 20.5h-613q-23 0 -35 -22.5 t-22 -32.5l-37 -104q-10 -27 -12 -44.5zM288 592.5q-1 -17.5 21 -21.5h197l-74 -198q-4 -23 11.5 -28t41.5 -5h109q12 2 34.5 8t30.5 29l72 194h199q25 4 35 21.5t20 44.5l39 108q4 10 5 31t-21 21h-195l70 192q4 12 -1 18.5t-12.5 9.5t-16.5 5t-13 4h-105q-27 0 -45 -5 t-31 -28l-71 -196h-193q-23 0 -36 -22.5t-21 -33.5l-39 -104q-10 -27 -11 -44.5z" />
<glyph unicode="&#xb2;" horiz-adv-x="991" d="M274 633q0 -23 6.5 -32t22.5 -13l78 -78q8 -8 22.5 -9t36.5 -1h666q16 0 34.5 12t30.5 39l17 49q8 23 8 35q0 20 -10 31l-78 77q-2 2 -2 5q0 2 -2 6h16q20 0 46 9t50.5 24.5t45 38t28.5 48.5h-2l101 283h2q10 23 10 45q0 37 -27 64l-65 65q-10 29 -37 45.5t-62 16.5h-567 q-33 0 -74 -25t-55 -61l-57 -154q-6 -16 -6 -27q0 -23 11 -37t27 -18l46 -43q-23 0 -48.5 -11t-50 -28.5t-45 -42t-29.5 -53.5l-75 -203q-8 -18 -10.5 -32.5t-2.5 -24.5zM304 621.5q-9 9.5 7 56.5l80 215q8 25 24.5 44t38 33.5t44 22.5t41.5 8h295q12 0 21 5.5t19 27.5 l62 170q6 18 -10.5 22.5t-28.5 4.5h-18q-10 0 -20.5 -9.5t-14.5 -19.5l-21 -55q-18 -49 -51 -49h-270q-12 0 -20.5 12t-0.5 35l58 153q10 29 43.5 48.5t60.5 19.5h567q41 0 64.5 -30.5t5.5 -78.5l-102 -284q-8 -25 -25.5 -44.5t-39 -32.5t-44 -21.5t-41.5 -8.5h-278 q-12 -2 -22.5 -7t-18.5 -28l-21 -53q-8 -23 1 -26.5t20 -3.5h354q33 0 14 -50l-14 -41q-10 -23 -24.5 -34t-24.5 -11h-666q-35 0 -44 9.5z" />
<glyph unicode="&#xb3;" horiz-adv-x="999" d="M293 690q0 18 10 39l47 129q14 27 35 40t37 13h272q20 0 35 -14q4 8 6 14l6 21h-168q-18 0 -32 14l-74 74q-14 4 -25.5 15.5t-11.5 33.5q0 14 10 35l58 162q8 27 29.5 49t47 38.5t51 27t44.5 10.5h547q35 0 60.5 -15.5t35.5 -44.5l65 -63q-2 0 -3 1l-1 1l6 -4 q27 -27 27 -68q0 -18 -8 -41l-76 -213q-10 -20 -29.5 -51t-50.5 -53q12 -25 12 -54q0 -27 -12 -57h-2l-37 -111q-10 -27 -29.5 -48t-44 -37.5t-50 -25.5t-46.5 -9h-547q-33 0 -65 32l-62 62q-27 12 -47 37.5t-20 60.5zM322 674.5q4 -19.5 16 -33.5t27.5 -22.5t29.5 -8.5h547 q39 0 86 31t66 78l39 110q12 31 9 61t-20 48q35 20 58.5 53t31.5 53l76 211q16 47 -7.5 78t-63.5 31h-547q-14 0 -36 -8t-44.5 -22.5t-41 -34t-26.5 -42.5l-59 -167q-10 -23 -1 -34.5t19 -11.5h273q10 0 25.5 11.5t25.5 34.5l41 112q4 10 21 18.5t40 8.5q12 0 30.5 -4 t10.5 -27l-61 -166q-8 -23 -17.5 -27t-21.5 -6h-31q-12 0 -21.5 -13t-13.5 -17l-22 -66q-6 -16 -6 -26t12 -13h33q12 0 18 -5t-2 -28l-20 -55q-10 -23 -32 -27t-32 -4q-23 0 -36 5.5t-7 21.5l25 68q10 23 1 34t-20 11h-272q-10 0 -25.5 -11.5t-25.5 -33.5l-45 -123 q-8 -23 -4 -42.5z" />
<glyph unicode="&#xb4;" horiz-adv-x="675" d="M446 1106q0 -41 33 -47l76 -74q12 -12 33 -12h233q18 0 46 12t51 41l2 2l180 184q-4 16 -10.5 33t-16.5 27l-74 71q-8 20 -24.5 33t-50.5 13h-191q-53 0 -98 -46l-176 -188q-8 -16 -10.5 -29.5t-2.5 -19.5zM481 1141l172 184q37 37 80 37h191q35 0 46 -15.5t15 -35.5 l-174 -178q-18 -23 -42 -35.5t-40 -12.5h-233q-37 0 -15 56z" />
<glyph unicode="&#xb5;" horiz-adv-x="2412" d="M223 451l10 104l154 20l-35 78l49 107l162 -17q74 186 156 187h10l131 -47q78 66 131 100.5t109 54.5l104 -75l309 124l41 -53l37 -39l236 41l147 -16l-6 -10l66 -64h207l20 -31l70 -67l32 -45q-4 -8 -4 -12l107 -29l-4 -10l88 -86l-15 -39q-14 -39 -61 -62l66 -65 q18 -18 18 -37v-21l-12 -4l-54 -61h-106l35 -78v-25l-6 -16q-18 -45 -82 -70l-123 27l-70 -147q-29 -37 -82 -37q-39 0 -62.5 11t-60.5 34h-6l-184 -139l-92 -15l-72 72l-305 -125l-64 27l-53 53l-280 -37l-54 41l-59 59l-262 23l-86 84l-15 2l13 37l-33 8q-23 0 -33 14 l-74 72q-37 8 -36 53q0 20 10 47l53 29l-59 57zM252 467l135 -70l-115 -65q-18 -53 23 -53l219 -41l-59 -45l-17 -48l361 -30l-39 -66l33 -24l378 51l-26 -76l39 -16l321 131l64 -78l76 12l190 144l14 -5q35 -23 58.5 -34t58.5 -11q43 0 66 29l75 160l134 -31q49 18 63 57 l4 11v18l-45 102h127l49 58l6 2q12 37 -153 104q113 12 133 74l6 16l-264 74q57 2 82 74l-21 29h-340l43 79l-100 11l-309 -54v15l18 39l-35 45l-305 -121l-104 76q-47 -16 -97.5 -51t-132.5 -105l-139 49h-8q-72 0 -139 -188l-162 16l-37 -78l47 -98l-170 -25zM295 506 l188 10l-57 119l12 57l176 -16l99 188q63 -55 121 -55q25 0 38 8l211 154l84 -80l303 119l29 -11l-20 -79l397 51l-64 -92h388l-144 -80l307 -68l9 -26h-19l-158 -39l193 -111l2 -25l-188 -14q78 -127 63 -160l-3 -2q-3 -2 -7 -12l-180 29l-84 -189l-164 56l-205 -162 l-100 82l-340 -133l35 51l-25 51l-383 -59l76 90l-393 14l143 74l-324 73l187 68zM524 399l17 -8l4 10zM539 543l36 -78l50 104l-78 9zM565 379l62 18l98 230l-45 -6zM668 266l47 -10l-15 -8l62 -60l178 -6l-8 -10l51 -51l225 35l9 -19l49 -51l260 100l96 -77l201 157 l153 -53l29 68v2q-33 10 -55 34l-39 39l-27 -71l-88 -9l-2 3l-61 12l-45 45q-23 -16 -54 -47h-100l-4 2l-98 -21l-5 2v-2q-47 0 -86 39l-38 39l-25 -72l-94 -16l-33 31q-29 -20 -59 -21q-4 0 -5.5 -1t-3.5 -1q-10 -2 -18 -2h-18q-51 0 -76 25l-31 31l-18 -60l-20 -4 q-19 -4 -25.5 -6t-11.5 -3t-15 -1q-39 0 -59 20l-48 45l-10 -26zM698 467q-14 -106 60 -107q12 0 21 4.5t34 8.5l12 39q-16 -6 -51 -6q-53 0 -37 47q10 27 27.5 50t46.5 46q53 35 80 35q14 0 12 -2l3 -1q3 -1 9 -6l25 58q-193 -25 -235 -135l-5 -17q-6 -10 -2 -14zM762 645 l31 -31q70 33 190 52l-6 -15l24 -24q10 8 20.5 14t20.5 12h39q78 0 97 -51l26 74l23 -39l71 -70l11 -18l49 110l86 -24l-4 -10l10 -11l18 37l115 23l-6 -15l41 -38l15 15t18 15q12 18 57 19q45 0 64 -45l10 -11l28 78l19 -33l76 -75l8 -19l43 105l92 -25l-4 -10l10 -10 l17 41l92 -17l-2 2l-39 25l30 8l-63 14l-68 68h-155l-70 70l-254 -33l-61 61l-226 -88l-81 76l-203 -147q-14 -8 -45 -9q-59 0 -115 41zM881 416q8 -37 73 -37q10 0 20.5 1t24.5 3q74 0 158 166q10 78 -76 78h-30q-115 -59 -170 -211zM958 481l5 17q55 74 100 73 q27 0 37 -28q-4 -10 -5 -17.5t-3 -11.5q-8 -23 -15.5 -36t-25.5 -34q-43 -20 -76 -20q-37 0 -17 57zM1122 379l49 8l39 111q55 -115 113 -115l86 233l-37 11l-67 -160l-95 149zM1376 391l66 15l98 231l-53 -10zM1479 401h55q55 55 82 56q37 0 43 -56l31 -6l63 172 q0 76 -45 76q-31 0 -37 -8q-121 -111 -192 -234zM1606 510l73 78l7 -78h-80zM1733 391l45 4l43 115q45 -117 108 -117l84 234l-41 10l-67 -166l-88 156zM1960 371l20 -29l52 37l-33 16zM2013 457l41 -4l90 174l-57 10zM2179 379l62 -8q-2 14 -29 69zM2247 573l22 -22l-2 -2 h17z" />
<glyph unicode="&#xb6;" horiz-adv-x="1570" d="M82 -182q0 -45 35 -56l76 -75q12 -12 32 -13h445q10 0 23.5 9.5t26.5 22.5t24.5 27.5t15.5 24.5l6 21q12 -12 22 -15l76 -75q14 -14 41 -15h457q29 0 58.5 26t45.5 71l476 1308h2q8 18 8 39q0 31 -21 51l-69 68q-8 23 -24.5 34t-33.5 11h-1097q-37 0 -78 -15.5t-80 -41 t-71 -62.5t-46 -80l-201 -553q-2 -4 -2 -16q0 -35 27 -66.5t59 -54.5l13 -14q-35 -29 -59.5 -62.5t-45.5 -91.5l-129 -354q-12 -35 -12 -53zM110.5 -194.5q-6.5 18.5 8.5 57.5l129 354q25 68 55.5 101.5t73.5 68.5q-16 8 -40 22.5t-44.5 34t-31.5 43t-1 50.5l197 538 q14 39 42.5 72t63.5 57.5t73 37.5t71 13h1097q16 0 28.5 -20.5t0.5 -54.5l-477 -1311q-14 -39 -38 -60.5t-48 -21.5h-457q-51 0 -25 82l404 1110q8 20 -5 35.5t-44 15.5q-20 0 -47 -8t-39 -43l-408 -1120q-8 -18 -31.5 -45t-39.5 -27h-445q-16 0 -22.5 18.5z" />
<glyph unicode="&#xb7;" horiz-adv-x="385" d="M137 272q0 -29 13.5 -44t29.5 -23l74 -72q20 -20 57 -20t69 11t46 46l262 725q0 4 1 5t1 5q0 23 -12 35l-76 76q-8 29 -36.5 35t-53.5 6t-61 -14.5t-52 -45.5v-2zM164 270l260 717q10 23 39 33t49 10q25 0 49.5 -7t11.5 -44l-258 -709q-10 -27 -36.5 -36t-59.5 -9 q-20 0 -36.5 10.5t-18.5 34.5z" />
<glyph unicode="&#xb8;" horiz-adv-x="460" d="M-223 -266q0 4 1 6t1 6v18l31 80q14 33 26 53.5t47 26.5h129l39 103h279l-4 -11l88 -88l-105 -286q-10 -29 -36.5 -37t-41.5 -11h-317q-16 2 -27 13l-73 76q-23 4 -30 18t-7 33zM-198 -270.5q-1 -20.5 22 -22.5h313q10 2 31.5 8t30.5 27l94 258h-225l-37 -102h-142 q-25 -4 -35 -20.5t-20 -43.5l-29 -74q-2 -10 -3 -30.5z" />
<glyph unicode="&#xb9;" horiz-adv-x="720" d="M420 629q0 14 8 37l166 462l-72 72q-29 10 -28 39q0 4 2 14.5t6 20.5l24 69l6 7h-2q8 12 21.5 25.5t32.5 13.5h442q31 0 37 -27l78 -78q0 -2 2 -2q8 -8 8 -31v-10l-248 -684q-23 -61 -69 -61h-275q-20 0 -31 10l-77 76q-31 8 -31 47zM453 657q-18 -49 14 -49h274 q33 0 52 49l245 676q2 8 0 18.5t-12 10.5h-442q-12 0 -21.5 -14.5t-13.5 -18.5l-23 -63q-6 -16 -6 -27q0 -10 12 -12h99q16 0 19 -9.5t-1 -21.5z" />
<glyph unicode="&#xba;" horiz-adv-x="983" d="M293 684q0 -31 14.5 -56.5t42.5 -37.5l68 -68q27 -27 69 -26h533q16 0 40.5 9t49.5 25.5t45.5 38t30.5 45.5l200 555q0 4 1.5 7.5t1.5 9.5q0 43 -35 78l-62 61q-12 29 -36.5 46.5t-53.5 17.5h-530q-51 0 -103.5 -36t-70.5 -91l-197 -535q-8 -18 -8 -43zM326 715l196 538 q16 47 62.5 78t87.5 31h530q35 0 58.5 -36t11.5 -73l-197 -538q-8 -23 -26.5 -42.5t-41 -33.5t-44 -22.5t-35.5 -8.5h-533q-47 0 -64.5 36t-4.5 71zM666 770q-6 -16 5 -21.5t31 -5.5q12 0 27.5 6.5t26.5 20.5l155 430q4 14 -8 20.5t-24 6.5t-31 -4t-27 -27z" />
<glyph unicode="&#xbb;" horiz-adv-x="1134" d="M172 348q0 -6 4 -10v-8l57 -86q0 -6 7 -8q0 -2 2 -3l2 -2q12 -23 32 -28l76 -76q12 -12 33 -12q16 0 31 8l4 2l221 162l29 -43q0 -6 6 -8q0 -2 2 -3l2 -2q12 -23 33 -28l75 -76q12 -12 33 -12q16 0 31 8l4 2l424 311l-205 320l-67 67l-19 29q-25 12 -37 12 q-16 0 -33.5 -9t-41.5 -26l-101 -73l-12 -13q-10 -10 -20.5 -22t-16.5 -27q0 -2 -1 -4t-1 -4v-6q0 -12 6 -18h-2l80 -121l-23 -17l-147 232l-68 67l-18 29q-25 12 -37 12q-16 0 -33.5 -9t-42.5 -26l-100 -73l-12 -13q-10 -10 -20.5 -22t-16.5 -27q0 -2 -1 -4t-1 -4v-6 q0 -12 6 -18h-2l80 -121l-168 -121q-18 -16 -27 -35q-6 -16 -6 -23v-14zM200 356.5q-1 10.5 3 20.5q4 12 16 20l189 138l-89 135q-6 8 -2 18q6 14 20.5 27.5t18.5 19.5l101 74q41 29 59 29q6 0 19 -7l190 -296l-410 -302q-12 -6 -22 -6q-12 0 -19.5 8.5t-17.5 22.5l-53 80 q-2 8 -3 18.5zM636 356.5q-1 10.5 3 20.5q4 12 16 20l189 138l-88 135q-6 8 -2 18q6 14 20 27.5t19 19.5l100 74q41 29 59 29q6 0 19 -7l190 -296l-409 -302q-12 -6 -23 -6q-12 0 -19.5 8.5t-17.5 22.5l-53 80q-2 8 -3 18.5z" />
<glyph unicode="&#xbc;" horiz-adv-x="1878" d="M330 51q0 25 8 41l242 375h-31q-20 0 -31 10l-78 76q-31 8 -30 47q0 14 8 37l166 463l-72 71q-29 10 -29 39q0 4 2 14.5t7 20.5l24 70l6 6h-2q8 12 21.5 25.5t31.5 13.5h443q31 0 37 -27l67 -67q33 16 74 16h401q20 0 33.5 -12.5t20.5 -28.5l73 -72q8 -8 12.5 -18 t6.5 -21q2 -6 2 -16q0 -4 -1 -11t-7 -18q-4 -8 -13 -20h-2l-237 -360h33q12 0 28.5 -11.5t20.5 -29.5l30 -29l4 12q14 29 34 43.5t36 14.5h252q12 0 27.5 -10.5t21.5 -28.5l74 -74q14 -14 14 -33q0 -14 -8 -29h-2l-238 -657q-23 -61 -69 -61h-252q-20 0 -33 12l-76 76 q-33 6 -32 45q0 18 8 37l16 47h-235q-20 0 -31 10l-35 35l-96 -146l2 -2q-16 -27 -46 -33t-59 -6h-378q-25 0 -45 21l-70 69q-20 8 -34.5 27t-14.5 47zM362 78q-14 -35 2.5 -56.5t36.5 -21.5h379q23 0 48.5 4t37.5 25l236 358l-72 -197q-18 -49 14 -49h365q33 0 25 -24 l-54 -144q-18 -49 17 -49h252q33 0 51 49l239 658q10 23 1 35t-19 12h-252q-27 0 -49 -47l-119 -328q-4 -10 -10 -18.5t-27 -8.5h-28q-23 0 -24 8.5t3 18.5l119 328q10 23 1 35t-19 12h-226l324 491q10 12 12 21q10 16 2 27q0 10 -8 24t-25 14h-401q-49 0 -76.5 -22.5 t-50.5 -63.5l-203 -313l164 449q2 8 0 18t-12 10h-443q-12 0 -21 -14t-13 -19l-23 -63q-6 -16 -6 -27q0 -10 12 -12h99q16 0 18 -9t-2 -22l-195 -538q-18 -49 15 -49h229z" />
<glyph unicode="&#xbd;" horiz-adv-x="1875" d="M330 51q0 25 8 41l242 375h-31q-20 0 -31 10l-78 76q-31 8 -30 47q0 14 8 37l166 463l-72 71q-29 10 -29 39q0 4 2 14.5t7 20.5l24 70l6 6h-2q8 12 21.5 25.5t31.5 13.5h443q31 0 37 -27l67 -67q33 16 74 16h401q20 0 33.5 -12.5t20.5 -28.5l73 -72q8 -8 12.5 -18 t6.5 -21q2 -6 2 -16q0 -4 -1 -11t-7 -18q-4 -8 -13 -20h-2l-237 -360h360q35 0 60.5 -15.5t35.5 -44.5l68 -65q27 -27 27 -68q0 -18 -9 -41l-102 -287q-20 -53 -72.5 -85.5t-95.5 -32.5h-16q2 -4 2 -7q0 -2 2 -4l78 -78q10 -10 10 -30q0 -12 -8 -35l-17 -49 q-12 -27 -30.5 -39t-34.5 -12h-666q-23 0 -37 1t-22 9l-76 76q-16 -6 -33.5 -8.5t-34.5 -2.5h-378q-25 0 -45 21l-70 69q-20 8 -34.5 27t-14.5 47zM362 78q-14 -35 2.5 -56.5t36.5 -21.5h379q23 0 48.5 4t37.5 25l254 387q6 -6 17 -6h270q33 0 51 49l19 55q6 10 15 19.5 t19 9.5h19q12 0 29.5 -4t11.5 -23l-62 -170q-10 -23 -19 -28t-22 -5h-294q-39 0 -85.5 -30.5t-64.5 -77.5l-78 -215q-16 -47 -7 -56.5t44 -9.5h666q10 0 24.5 11.5t24.5 33.5l14 41q18 49 -14 49h-355q-10 0 -19 4.5t-1 26.5l18 53q10 23 19.5 28t23.5 7h279q39 0 85 30 t64 77l103 284q16 47 -7.5 78t-64.5 31h-553l324 491q10 12 12 21q10 16 2 27q0 10 -8 24t-25 14h-401q-49 0 -76.5 -22.5t-50.5 -63.5l-203 -313l164 449q2 8 0 18t-12 10h-443q-12 0 -21 -14t-13 -19l-23 -63q-6 -16 -6 -27q0 -10 12 -12h99q16 0 18 -9t-2 -22l-195 -538 q-18 -49 15 -49h229z" />
<glyph unicode="&#xbe;" horiz-adv-x="2150" d="M283 657q0 20 10 41l43 119q12 33 35.5 48.5t40.5 15.5h272q16 0 33 -13q0 4 2 7.5t4 7.5l6 18h-168q-18 0 -31 12l-75 76q-14 4 -24.5 16.5t-10.5 34.5v17q2 0 2 -2l65 180q8 27 30 49.5t47.5 38.5t51 26.5t43.5 10.5h547q35 0 60.5 -15.5t36.5 -44.5l57 -59 q41 41 106 41h402q20 0 33.5 -12.5t19.5 -28.5l74 -72q8 -8 12 -18t6 -21q2 -6 2 -16q0 -4 -1 -11t-7 -18q-4 -8 -12 -20h-2l-238 -360h33q12 0 28.5 -11.5t20.5 -29.5l31 -29l4 12q14 29 33.5 43.5t36.5 14.5h251q12 0 27.5 -11.5t22.5 -29.5l71 -70q-2 0 -3 1l-1 1l6 -4 q14 -14 15 -33q0 -14 -9 -29h-2l-237 -657q-23 -61 -70 -61h-252q-20 0 -32 12l-76 76q-33 6 -33 45q0 18 8 37l17 47h-236q-20 0 -31 10l-35 35l-96 -146l2 -2q-16 -27 -45.5 -33t-58.5 -6h-379q-25 0 -45 21l-70 69q-20 8 -34.5 27t-14.5 47q0 25 8 41l242 375h-375 q-37 0 -67 31l-66 65q-25 12 -43 36t-18 58zM311 644q4 -19 15.5 -33.5t27 -22.5t31.5 -8h547h12q4 0 7 1t10 3l-326 -506q-14 -35 2 -56.5t37 -21.5h379q23 0 48 4t38 25l235 358l-71 -197q-18 -49 14 -49h364q33 0 25 -24l-53 -144q-18 -49 16 -49h252q33 0 51 49l240 658 q10 23 1 35t-20 12h-251q-27 0 -50 -47l-118 -328q-4 -10 -10.5 -18.5t-26.5 -8.5h-29q-23 0 -24 8.5t4 18.5l118 328q10 23 1 35t-19 12h-225l323 491q10 12 12 21q10 16 3 27q0 10 -8.5 24t-24.5 14h-402q-49 0 -76.5 -22.5t-50.5 -63.5l-211 -323q0 33 -18 61 q37 20 59.5 53t30.5 54l78 211q16 47 -7.5 77.5t-64.5 30.5h-547q-14 0 -35.5 -8t-44 -22.5t-41 -34t-26.5 -41.5l-61 -168q-8 -23 0 -34t18 -11h272q10 0 26.5 11t25.5 34l41 112q4 10 22 18.5t41 8.5q12 0 30.5 -4t8.5 -27l-59 -166q-8 -23 -17.5 -26.5t-23.5 -5.5h-31 q-12 0 -20.5 -13.5t-12.5 -17.5l-24 -66q-6 -16 -7 -26q0 -10 13 -12h32q12 0 19.5 -5.5t-2.5 -27.5l-21 -56q-8 -23 -29.5 -26.5t-31.5 -3.5q-23 0 -36 5t-7 21l24 68q8 23 0 34t-18 11h-272q-10 0 -26.5 -11.5t-25.5 -33.5l-45 -123q-8 -23 -4 -42z" />
<glyph unicode="&#xbf;" horiz-adv-x="1497" d="M92 123q0 16 2 33.5t10 36.5l129 352q14 43 46 80t71 62.5t80 40.5t76 15h338q10 2 18 9.5t19 17.5l4 4q6 6 14 13.5t19 7.5h100l-27 24q-16 6 -29.5 23.5t-13.5 46.5q0 8 2 20.5t6 22.5l95 250q18 47 46.5 73.5t61.5 26.5h383q41 0 55 -37l78 -76h-2q0 2 -2 2l4 -2 q14 -14 15 -45q0 -10 -2 -23.5t-9 -27.5h-2l-92 -252q-14 -41 -46 -65.5t-54 -24.5h-8l49 -49q14 -14 14 -41q0 -14 -2 -23.5t-6 -21.5l-10 -25q-16 -41 -47 -75.5t-70 -61.5h6q20 0 38.5 -11t27.5 -34l69 -70q-2 0 -3 1l-1 2l6 -5q18 -18 19 -47q0 -20 -11 -43h-2l-75 -215 q-10 -25 -33 -47t-50.5 -39.5t-57 -28t-52.5 -10.5h-946q-68 0 -111 43l-63 62q-35 18 -54.5 52t-19.5 79zM119 108.5q4 -32.5 21.5 -57t45 -38t62.5 -13.5h946q20 0 47 9t52.5 24.5t46 36t28.5 43.5l78 215q16 41 1 60.5t-36 19.5h-422q-25 0 -47 -23t-37 -59l-20 -54 q-8 -16 -24.5 -31.5t-33.5 -15.5h-28q-12 0 -26.5 1t-26 6.5t-17.5 15.5t0 28l59 160q12 35 30 44t38 12h307q33 0 70 13t71.5 37.5t63.5 57.5t43 72l6 14q16 47 6 64.5t-39 17.5h-466q-6 -2 -27 -25.5t-45 -25.5h-340q-31 0 -69 -13.5t-72.5 -38t-63.5 -57.5t-43 -71 l-129 -357q-14 -39 -10 -71.5zM981 864.5q12 -20.5 29 -20.5h383q16 0 42.5 20.5t39.5 55.5l94 254q14 39 6 60t-33 21h-383q-25 0 -47 -21.5t-37 -59.5l-94 -254q-12 -35 0 -55.5z" />
<glyph unicode="&#xc0;" horiz-adv-x="1609" d="M57 49q0 10 6 23q4 10 17 28l739 1131q23 35 55.5 43t61.5 8h264l-45 43q-16 6 -29.5 21.5t-15.5 39.5l-45 195q27 29 55.5 49.5t71.5 20.5h190q53 0 74 -49l72 -70q12 -12 18 -33l39 -186l-7 -17.5t-7 -13.5h18q39 0 51 -39l74 -72q12 -12 17.5 -34.5t9.5 -51.5 l-160 -1124q0 -6 -10 -31q-6 -16 -16.5 -29.5t-32.5 -13.5h-410q-20 0 -35 15l-73 73q-33 10 -40.5 42t-7.5 55l7 43h-54l-16 14l-92 -143q-12 -25 -23.5 -43.5t-27 -30.5t-38 -18.5t-57.5 -6.5h-442q-20 0 -35 15l-74 73q-23 6 -32 24.5t-11 35.5q-4 4 -4 14zM88 39 q0 -10 8 -24.5t25 -14.5h442q59 0 83 21.5t44 64.5l383 592l-35 -244h-75l-13 -20q-12 -21 -29.5 -50.5t-37 -60.5t-31.5 -49v-2q-4 -4 -6 -10v-4q0 -4 -2 -11h164l-25 -159q0 -16 6 -42t31 -26h410q14 0 20 10t10 21q8 16 8 24l160 1123q-4 35 -11 56t-28 21h-653 q-23 0 -48.5 -4t-37.5 -24l-748 -1141q-12 -14 -14 -23q-6 -16 0 -24zM1094 1573l43 -178q2 -23 16 -35t31 -12h233q37 0 56 55l-39 184q-10 37 -52 37h-190q-35 0 -57.5 -15.5t-40.5 -35.5z" />
<glyph unicode="&#xc1;" horiz-adv-x="1609" d="M57 49q0 10 6 23q4 10 17 28l739 1131q23 35 55.5 43t61.5 8h217l-41 39q-33 6 -33 49q0 18 6 43l183 193q39 45 98 45h190q37 0 53.5 -13.5t26.5 -33.5l68 -68h-2l6 -4q10 -10 16.5 -24.5t10.5 -30.5l-185 -189h2l-6 -6h43q39 0 51 -39l74 -72q12 -12 17.5 -34.5 t9.5 -51.5l-160 -1122v-2q0 -6 -10 -31q-6 -16 -16.5 -29.5t-32.5 -13.5h-410q-20 0 -35 15l-73 73q-33 10 -40.5 42t-7.5 55l7 43h-54l-16 14l-92 -143q-12 -25 -23.5 -43.5t-27 -30.5t-38 -18.5t-57.5 -6.5h-442q-20 0 -35 15l-74 73q-23 6 -32 24.5t-11 35.5q-4 4 -4 14z M88 39q0 -10 8 -24.5t25 -14.5h442q59 0 83 21.5t44 64.5l383 592l-35 -244h-75l-13 -20q-12 -21 -29.5 -50.5t-37 -60.5t-31.5 -49v-2q-4 -4 -6 -10v-4q0 -4 -2 -11h164l-25 -159q0 -16 6 -42t31 -26h410q14 0 20 10t10 21q8 16 8 24l160 1123q-4 35 -11 56t-28 21h-653 q-23 0 -48.5 -4t-37.5 -24l-748 -1141q-12 -14 -14 -23q-6 -16 0 -24zM1112 1403q-18 -55 14 -55h234q16 0 39.5 12t44.5 35l174 178q-6 20 -16.5 35.5t-45.5 15.5h-190q-47 0 -80 -37z" />
<glyph unicode="&#xc2;" horiz-adv-x="1609" d="M57 49q0 10 6 23q4 10 17 28l739 1131q23 35 55.5 43t61.5 8h8l-41 39q-33 6 -33 49q0 18 7 43l178 178q18 18 56 39t67 21h397q41 0 59.5 -14.5t26.5 -37.5l70 -67q10 -10 15 -22.5t9 -24.5l-65 65h-2l67 -65l43 -172q-29 -78 -76 -78h-71l63 -64q12 -12 17.5 -34.5 t9.5 -51.5l-160 -1122v-2q0 -6 -10 -31q-6 -16 -16.5 -29.5t-32.5 -13.5h-410q-20 0 -35 15l-73 73q-33 10 -40.5 42t-7.5 55l7 43h-54l-16 14l-92 -143q-12 -25 -23.5 -43.5t-27 -30.5t-38 -18.5t-57.5 -6.5h-442q-20 0 -35 15l-74 73q-23 6 -32 24.5t-11 35.5q-4 4 -4 14z M88 39q0 -10 8 -24.5t25 -14.5h442q59 0 83 21.5t44 64.5l383 592l-35 -244h-75l-13 -20q-12 -21 -29.5 -50.5t-37 -60.5t-31.5 -49v-2q-4 -4 -6 -10v-4q0 -4 -2 -11h164l-25 -159q0 -16 6 -42t31 -26h410q14 0 20 10t10 21q8 16 8 24l160 1123q-4 35 -11 56t-28 21h-653 q-23 0 -48.5 -4t-37.5 -24l-748 -1141q-12 -14 -14 -23q-6 -16 0 -24zM903 1403q-18 -55 15 -55h233q16 0 39.5 12t44.5 35l96 98l25 -98q10 -47 41 -47h233q37 0 56 55l-44 170q-6 20 -19 35.5t-48 15.5h-397q-23 0 -55.5 -17.5t-49.5 -33.5zM1337 1282h80l-41 41l-35 -35 h2z" />
<glyph unicode="&#xc3;" horiz-adv-x="1609" d="M57 49q0 10 6 23q4 10 17 28l739 1131q6 10 14.5 18t16.5 13l-57 59q-33 6 -33 49q0 18 6 43l178 178q18 18 56 39t67 21h307q39 0 58 -41l51 -49l24 24q29 33 59.5 49.5t53.5 16.5h195q39 0 45 -35l75 -74q12 -12 13 -33q0 -20 -6 -41l-175 -176q-18 -18 -54 -36.5 t-62 -20.5l63 -64q12 -12 17.5 -34.5t9.5 -51.5l-160 -1124q0 -6 -10 -31q-6 -16 -16.5 -29.5t-32.5 -13.5h-410q-20 0 -35 15l-73 73q-33 10 -40.5 42t-7.5 55l7 43h-54l-16 14l-92 -143q-12 -25 -23.5 -43.5t-27 -30.5t-38 -18.5t-57.5 -6.5h-442q-20 0 -35 15l-74 73 q-23 6 -32 24.5t-11 35.5q-4 4 -4 14zM88 39q0 -10 8 -24.5t25 -14.5h442q59 0 83 21.5t44 64.5l383 592l-35 -244h-75l-13 -20q-12 -21 -29.5 -50.5t-37 -60.5t-31.5 -49v-2q-4 -4 -6 -10v-4q0 -4 -2 -11h164l-25 -159q0 -16 6 -42t31 -26h410q14 0 20 10t10 21q8 16 8 24 l160 1123q-4 35 -11 56t-28 21h-653q-23 0 -48.5 -4t-37.5 -24l-748 -1141q-12 -14 -14 -23q-6 -16 0 -24zM793 1403q-18 -55 14 -55h233q16 0 40 12t44 35l97 98l24 -98q10 -47 41 -47h268q23 0 57 17t50 34l168 170q18 55 -14 55h-195q-16 0 -40 -12.5t-44 -34.5l-96 -98 l-25 98q-10 47 -41 47h-307q-23 0 -55.5 -17.5t-48.5 -33.5zM1227 1282h80l-41 41l-35 -35h2z" />
<glyph unicode="&#xc4;" horiz-adv-x="1609" d="M57 49q0 10 6 23q4 10 17 28l739 1131q23 35 55.5 43t61.5 8h8l-41 39q-33 6 -33 49q0 16 7 41l61 162q10 37 38 57.5t44 20.5h246q14 0 27.5 -10.5t17.5 -28.5l71 -70l2 -2l5 -8l16 41q10 37 37.5 57.5t44.5 20.5h246q33 0 43 -37l75 -74q14 -14 15 -37q0 -6 -1 -9 t-1 -7l-68 -182q-20 -70 -74 -70h-71l63 -64q12 -12 17.5 -34.5t9.5 -51.5l-160 -1124q0 -6 -10 -31q-6 -16 -16.5 -29.5t-32.5 -13.5h-410q-20 0 -35 15l-73 73q-33 10 -40.5 42t-7.5 55l7 43h-54l-16 14l-92 -143q-12 -25 -23.5 -43.5t-27 -30.5t-38 -18.5t-57.5 -6.5 h-442q-20 0 -35 15l-74 73q-23 6 -32 24.5t-11 35.5q-4 4 -4 14zM88 39q0 -10 8 -24.5t25 -14.5h442q59 0 83 21.5t44 64.5l383 592l-35 -244h-75l-13 -20q-12 -21 -29.5 -50.5t-37 -60.5t-31.5 -49v-2q-4 -4 -6 -10v-4q0 -4 -2 -11h164l-25 -159q0 -16 6 -42t31 -26h410 q14 0 20 10t10 21q8 16 8 24l160 1123q-4 35 -11 56t-28 21h-653q-23 0 -48.5 -4t-37.5 -24l-748 -1141q-12 -14 -14 -23q-6 -16 0 -24zM903 1403q-18 -55 15 -55h245q37 0 56 55l63 170q8 25 1 38t-17 13h-246q-10 0 -27.5 -13.5t-25.5 -37.5zM1319 1282h92l-41 39 q-20 6 -29 20l-12 -36q-4 -8 -5 -13.5t-5 -9.5zM1370 1403q-18 -55 14 -55h246q37 0 56 55l63 170q8 25 1 38t-17 13h-246q-10 0 -27.5 -13.5t-25.5 -37.5z" />
<glyph unicode="&#xc5;" horiz-adv-x="1609" d="M57 49q0 10 6 23q4 10 17 28l739 1131q23 35 55.5 43t61.5 8h242l-41 39q-33 6 -33 49q0 16 6 41l61 162q10 37 38 57.5t44 20.5h246q33 0 43 -37l2 -2l74 -72q14 -14 14 -37q0 -6 -1 -9t-1 -7l-67 -182q-4 -8 -5.5 -13.5t-5.5 -9.5h37q39 0 51 -39l74 -72 q12 -12 17.5 -34.5t9.5 -51.5l-160 -1122q0 -14 -10 -33q-6 -16 -16.5 -29.5t-32.5 -13.5h-410q-20 0 -35 15l-73 73q-33 10 -40.5 42t-7.5 55l7 43h-54l-16 14l-92 -143q-12 -25 -23.5 -43.5t-27 -30.5t-38 -18.5t-57.5 -6.5h-442q-20 0 -35 15l-74 73q-23 6 -32 24.5 t-11 35.5q-4 4 -4 14zM88 39q0 -10 8 -24.5t25 -14.5h442q59 0 83 21.5t44 64.5l383 592l-35 -244h-75l-13 -20q-12 -21 -29.5 -50.5t-37 -60.5t-31.5 -49v-2q-4 -4 -6 -10v-4q0 -4 -2 -11h164l-25 -159q0 -16 6 -42t31 -26h410q14 0 20 10t10 21q8 16 8 24l160 1123 q-4 35 -11 56t-28 21h-653q-23 0 -48.5 -4t-37.5 -24l-748 -1141q-12 -14 -14 -23q-6 -16 0 -24zM1137 1403q-18 -55 14 -55h246q37 0 55 55l64 170q8 25 0.5 38t-17.5 13h-246q-10 0 -27.5 -13.5t-25.5 -37.5zM1272 1464l16 41q2 12 17 13h71q8 0 6 -13l-16 -41 q-4 -12 -14 -12h-72q-12 0 -8 12z" />
<glyph unicode="&#xc6;" horiz-adv-x="2381" d="M57 49q0 10 6 23q4 10 17 28l739 1131q23 35 55.5 43t61.5 8h1663q37 0 57.5 -6t24.5 -31l78 -76q10 -10 10 -32q0 -18 -14 -56l-107 -293q-18 -47 -52 -69.5t-59 -22.5h-421q-25 0 -39 15l-76 73q-25 10 -35 35l-53 -143h371q39 -12 40 -37l78 -76q10 -10 11 -28 q0 -10 -5.5 -22.5t-9.5 -27.5h-2l-41 -114q-12 -27 -28.5 -43.5t-42.5 -16.5h-457q-20 0 -33.5 -6t-21.5 -22h-3l-10 -31h502q39 -12 41 -37l78 -76q10 -10 10 -28q0 -10 -5 -22.5t-9 -27.5l-43 -112l-2 -2q-10 -16 -26.5 -38t-43.5 -22h-1163q-12 0 -19 7l-80 79 q-18 4 -26 27t-8 57v27q0 14 2 31h-58l-16 14l-92 -143q-12 -25 -23.5 -43.5t-27 -30.5t-38 -18.5t-57.5 -6.5h-442q-20 0 -35 15l-74 73q-23 6 -32 24.5t-11 35.5q-4 4 -4 14zM88 39q0 -10 8 -24.5t25 -14.5h442q59 0 83 21.5t44 64.5l383 592l-35 -244h-75l-13 -20 q-12 -21 -29.5 -50.5t-37 -60.5t-31.5 -49v-2q-4 -4 -6 -10v-4q0 -4 -2 -11h164q-6 -41 -10.5 -81t-5.5 -72.5t2 -53t12 -20.5h1163q23 0 35 21.5t20 31.5l41 109q10 27 11 43t-21 20h-576q-27 0 -44 13.5t-15 29.5l41 115q10 25 28.5 33t45.5 8h456q20 0 33.5 15.5 t24.5 37.5l39 109q10 27 11 43t-22 20h-467q-39 0 -42 10.5t6 32.5l108 299q20 25 29.5 31t36.5 6h69q23 -12 15 -45l-35 -92q-12 -37 -5 -59.5t31 -22.5h422q20 0 48 19.5t44 60.5l107 291q18 53 7 64t-52 11h-1663q-23 0 -48.5 -4t-37.5 -24l-748 -1141q-12 -14 -14 -23 q-6 -16 0 -24z" />
<glyph unicode="&#xc7;" d="M94 133q0 16 2 28.5t6 22.5l330 899q12 35 44 70t72 63.5t81 47t76 18.5h884q47 0 83 -20.5t54 -57.5l66 -63q39 -39 39 -101q0 -16 -2 -31.5t-10 -33.5h-2l-97 -270q-18 -47 -45.5 -70t-56.5 -23h-422q-27 0 -41 15l-76 75q-25 10 -35 35l-100 -282q37 31 64 30h422 q39 0 55 -41l69 -69q-2 0 -3 1l-1 1l6 -4q18 -18 19 -47q0 -16 -8 -39l-76 -209q-12 -31 -39 -64.5t-63.5 -61.5t-78.5 -46.5t-83 -18.5h-258l-88 -245q-10 -29 -37 -37t-41 -11h-318q-16 2 -26 13l-76 76q-20 4 -27.5 18t-7.5 33q0 4 1 6t1 6v18l31 80q8 25 18 43h-59 q-55 0 -102 47l-60 60q-35 18 -59.5 55t-24.5 84zM124 107.5q7 -31.5 26.5 -56t46 -38t51.5 -13.5h391l-37 -102h-141q-25 -4 -35 -20.5t-20 -43.5l-29 -74q-2 -10 -3 -30.5t21 -22.5h314q10 2 31.5 8t29.5 27l94 258h271q39 0 77.5 16.5t72.5 42t59.5 57t35.5 60.5l76 209 q14 35 2 54.5t-28 19.5h-422q-16 0 -43 -19.5t-41 -54.5l-41 -115q-10 -27 -37 -36t-60 -9q-20 0 -36.5 10.5t-18.5 34.5l260 717q10 23 39 33t49 10q25 0 49.5 -7t12.5 -44l-64 -172q-14 -39 -6 -60.5t33 -21.5h422q51 0 84 80l98 270q14 39 10 72t-21.5 57.5t-46 37.5 t-61.5 13h-884q-31 0 -69 -16t-74 -42t-64.5 -58.5t-40.5 -63.5l-328 -899q-12 -37 -5 -68.5z" />
<glyph unicode="&#xc8;" horiz-adv-x="1497" d="M59 45q0 8 2 20.5t7 22.5l403 1100q14 43 49 68.5t58 25.5h559l-45 43q-16 6 -29.5 21.5t-15.5 39.5l-46 195q27 29 55.5 49.5t71.5 20.5h191q53 0 74 -49l71 -70q12 -12 19 -33l39 -186q-4 -10 -7.5 -17.5t-7.5 -13.5h207q37 0 57.5 -6t24.5 -31l78 -76q10 -10 10 -32 q0 -18 -14 -56l-107 -293q-18 -47 -52 -69.5t-58 -22.5h-422q-25 0 -39 15l-76 73q-25 10 -35 35l-53 -143h371q39 -12 41 -37l78 -76q10 -10 10 -28q0 -10 -5 -22.5t-10 -27.5h-2l-41 -114q-12 -27 -28.5 -43.5t-42.5 -16.5h-457q-20 0 -33.5 -6t-21.5 -22h-2l-11 -31h502 q39 -12 41 -37l78 -76q10 -10 10 -28q0 -10 -5 -22.5t-9 -27.5l-43 -112l-2 -2q-10 -16 -26.5 -38t-43.5 -22h-1163q-20 0 -35 15l-76 75q-16 6 -29.5 22.5t-13.5 45.5zM92 20.5q12 -20.5 29 -20.5h1163q23 0 35 21.5t20 31.5l41 109q10 27 11.5 43t-21.5 20h-575 q-27 0 -44.5 13.5t-15.5 29.5l41 115q10 25 28.5 33t45.5 8h457q20 0 33.5 15.5t23.5 37.5l39 109q10 27 11 43t-21 20h-467q-39 0 -42 10.5t5 32.5l108 299q20 25 29.5 31t36.5 6h70q23 -12 14 -45l-35 -92q-12 -37 -5 -59.5t32 -22.5h422q20 0 47.5 19.5t44.5 60.5 l106 291q18 53 7 64t-52 11h-1136q-16 0 -43 -20.5t-39 -54.5l-404 -1104q-12 -35 0 -55.5zM1030 1573l43 -178q2 -23 16.5 -35t30.5 -12h234q37 0 55 55l-39 184q-10 37 -51 37h-191q-35 0 -57 -15.5t-41 -35.5z" />
<glyph unicode="&#xc9;" horiz-adv-x="1497" d="M59 45q0 8 2 20.5t7 22.5l403 1100q14 43 49 68.5t58 25.5h483l-41 39q-33 6 -33 49q0 18 6 43l183 193q39 45 98 45h190q37 0 53.5 -13.5t26.5 -33.5l68 -68h-2l6 -4q10 -10 16 -24.5t10 -30.5l-184 -189h2l-6 -6h260q37 0 57.5 -6t24.5 -31l78 -76q10 -10 10 -32 q0 -18 -14 -56l-107 -293q-18 -47 -52 -69.5t-58 -22.5h-422q-25 0 -39 15l-76 73q-25 10 -35 35l-53 -143h371q39 -12 41 -37l78 -76q10 -10 10 -28q0 -10 -5 -22.5t-10 -27.5h-2l-41 -114q-12 -27 -28.5 -43.5t-42.5 -16.5h-457q-20 0 -33.5 -6t-21.5 -22h-2l-11 -31h502 q39 -12 41 -37l78 -76q10 -10 10 -28q0 -10 -5 -22.5t-9 -27.5l-43 -112l-2 -2q-10 -16 -26.5 -38t-43.5 -22h-1163q-20 0 -35 15l-76 75q-16 6 -29.5 22.5t-13.5 45.5zM92 20.5q12 -20.5 29 -20.5h1163q23 0 35 21.5t20 31.5l41 109q10 27 11.5 43t-21.5 20h-575 q-27 0 -44.5 13.5t-15.5 29.5l41 115q10 25 28.5 33t45.5 8h457q20 0 33.5 15.5t23.5 37.5l39 109q10 27 11 43t-21 20h-467q-39 0 -42 10.5t5 32.5l108 299q20 25 29.5 31t36.5 6h70q23 -12 14 -45l-35 -92q-12 -37 -5 -59.5t32 -22.5h422q20 0 47.5 19.5t44.5 60.5 l106 291q18 53 7 64t-52 11h-1136q-16 0 -43 -20.5t-39 -54.5l-404 -1104q-12 -35 0 -55.5zM1020 1403q-18 -55 14 -55h234q16 0 39.5 12t44.5 35l174 178q-6 20 -16.5 35.5t-45.5 15.5h-190q-47 0 -80 -37z" />
<glyph unicode="&#xca;" horiz-adv-x="1497" d="M59 45q0 8 2 20.5t7 22.5l403 1100q14 43 49 68.5t58 25.5h290l-41 39q-33 6 -32 49q0 18 6 43l178 178q18 18 56 39t67 21h397q41 0 59.5 -14.5t26.5 -37.5l68 -65q-2 0 -3 1l-1 1l6 -4q10 -10 15 -22.5t9 -24.5l-65 65h-2l67 -65l43 -172l-7 -17.5t-7 -13.5h6 q37 0 57.5 -6t24.5 -31l78 -76q10 -10 10 -32q0 -18 -14 -56l-107 -293q-18 -47 -52 -69.5t-58 -22.5h-422q-25 0 -39 15l-76 73q-25 10 -35 35l-53 -143h371q39 -12 41 -37l78 -76q10 -10 10 -28q0 -10 -5 -22.5t-10 -27.5h-2l-41 -114q-12 -27 -28.5 -43.5t-42.5 -16.5 h-457q-20 0 -33.5 -6t-21.5 -22h-2l-11 -31h502q39 -12 41 -37l78 -76q10 -10 10 -28q0 -10 -5 -22.5t-9 -27.5l-43 -112l-2 -2q-10 -16 -26.5 -38t-43.5 -22h-1163q-20 0 -35 15l-76 75q-16 6 -29.5 22.5t-13.5 45.5zM92 20.5q12 -20.5 29 -20.5h1163q23 0 35 21.5t20 31.5 l41 109q10 27 11.5 43t-21.5 20h-575q-27 0 -44.5 13.5t-15.5 29.5l41 115q10 25 28.5 33t45.5 8h457q20 0 33.5 15.5t23.5 37.5l39 109q10 27 11 43t-21 20h-467q-39 0 -42 10.5t5 32.5l108 299q20 25 29.5 31t36.5 6h70q23 -12 14 -45l-35 -92q-12 -37 -5 -59.5t32 -22.5 h422q20 0 47.5 19.5t44.5 60.5l106 291q18 53 7 64t-52 11h-1136q-16 0 -43 -20.5t-39 -54.5l-404 -1104q-12 -35 0 -55.5zM827 1403q-18 -55 15 -55h233q16 0 40 12t44 35l96 98l25 -98q10 -47 41 -47h233q37 0 56 55l-43 170q-6 20 -19.5 35.5t-48.5 15.5h-397 q-23 0 -55.5 -17.5t-49.5 -33.5zM1262 1282h79l-41 41l-34 -35h2z" />
<glyph unicode="&#xcb;" horiz-adv-x="1497" d="M59 45q0 8 2 20.5t7 22.5l403 1100q14 43 49 68.5t58 25.5h290l-41 39q-33 6 -32 49q0 16 6 41l61 162q10 37 38 57.5t44 20.5h246q14 0 27.5 -10.5t17.5 -28.5l74 -72l4 -8l16 41q10 37 38 57.5t44 20.5h246q31 0 45 -37l74 -74q14 -14 14 -37q0 -6 -1 -9t-1 -7 l-68 -182q-4 -8 -5 -13.5t-5 -9.5h4q37 0 57.5 -6t24.5 -31l78 -76q10 -10 10 -32q0 -18 -14 -56l-107 -293q-18 -47 -52 -69.5t-58 -22.5h-422q-25 0 -39 15l-76 73q-25 10 -35 35l-53 -143h371q39 -12 41 -37l78 -76q10 -10 10 -28q0 -10 -5 -22.5t-10 -27.5h-2l-41 -114 q-12 -27 -28.5 -43.5t-42.5 -16.5h-457q-20 0 -33.5 -6t-21.5 -22h-2l-11 -31h502q39 -12 41 -37l78 -76q10 -10 10 -28q0 -10 -5 -22.5t-9 -27.5l-43 -112l-2 -2q-10 -16 -26.5 -38t-43.5 -22h-1163q-20 0 -35 15l-76 75q-16 6 -29.5 22.5t-13.5 45.5zM92 20.5 q12 -20.5 29 -20.5h1163q23 0 35 21.5t20 31.5l41 109q10 27 11.5 43t-21.5 20h-575q-27 0 -44.5 13.5t-15.5 29.5l41 115q10 25 28.5 33t45.5 8h457q20 0 33.5 15.5t23.5 37.5l39 109q10 27 11 43t-21 20h-467q-39 0 -42 10.5t5 32.5l108 299q20 25 29.5 31t36.5 6h70 q23 -12 14 -45l-35 -92q-12 -37 -5 -59.5t32 -22.5h422q20 0 47.5 19.5t44.5 60.5l106 291q18 53 7 64t-52 11h-1136q-16 0 -43 -20.5t-39 -54.5l-404 -1104q-12 -35 0 -55.5zM827 1403q-18 -55 15 -55h245q37 0 56 55l63 170q8 25 1 38t-17 13h-246q-10 0 -27.5 -13.5 t-25.5 -37.5zM1243 1282h92l-41 39q-20 6 -28 20l-13 -36q-4 -8 -5 -13.5t-5 -9.5zM1294 1403q-18 -55 15 -55h245q37 0 56 55l63 170q8 25 1 38t-17 13h-246q-10 0 -27.5 -13.5t-25.5 -37.5z" />
<glyph unicode="&#xcc;" d="M55 20q0 4 1 6.5t1 6.5v22l41 113q12 35 26.5 56.5t49.5 27.5h272q25 0 35 24l234 642h-152q-18 2 -28 12l-76 76q-33 8 -33 47q0 10 3 24.5t13 30.5l37 106l10 11l-2 -4v2q2 0 2 2q14 20 31 38.5t39 18.5h578l-45 43q-16 6 -29.5 21.5t-15.5 39.5l-46 195 q27 29 55.5 49.5t71.5 20.5h191q53 0 74 -49l71 -70q12 -12 19 -33l39 -186q-4 -10 -7.5 -17.5t-7.5 -13.5h230q41 0 47 -35l78 -76h-2q0 2 -2 3l4 -3q10 -10 10 -28q0 -10 -2 -20.5t-4 -16.5l-39 -111q-12 -31 -25.5 -51t-46.5 -26h-274q-8 0 -15.5 -10.5t-15.5 -22.5 q-2 -2 -3 -4t-3 -4l-227 -625h157q31 -8 37 -37l76 -74q12 -12 12 -30q0 -10 -5 -23.5t-9 -28.5h-2l-37 -108q-6 -14 -22.5 -39t-51.5 -25h-1177q-20 0 -31 11l-78 77q-18 4 -24.5 16.5t-6.5 28.5zM82 20q0 -20 20 -20h1178q23 0 37 20.5t18 30.5l39 109q10 27 12.5 44 t-20.5 21h-270q-20 0 -19.5 16.5t2.5 32.5l256 707q10 16 22.5 32.5t31.5 16.5h270q25 4 36 21.5t21 44.5l39 108q4 12 4 31q0 20 -22 20h-1178q-23 0 -35 -22.5t-22 -32.5l-37 -104q-10 -27 -12 -44.5t20 -21.5h266q27 0 31 -14.5t-4 -34.5l-260 -717q-18 -39 -60 -39h-266 q-25 -4 -36 -21.5t-21 -43.5l-39 -107q0 -6 -1 -14t-1 -19zM1030 1573l43 -178q2 -23 16.5 -35t30.5 -12h234q37 0 55 55l-39 184q-10 37 -51 37h-191q-35 0 -57 -15.5t-41 -35.5z" />
<glyph unicode="&#xcd;" d="M55 20q0 4 1 6.5t1 6.5v22l41 113q12 35 26.5 56.5t49.5 27.5h272q25 0 35 24l234 642h-152q-18 2 -28 12l-76 76q-33 8 -33 47q0 23 14 53l2 2l37 106l10 11q14 20 31 38.5t39 18.5h502l-41 39q-33 6 -33 49q0 18 6 43l183 193q39 45 98 45h190q37 0 53.5 -13.5 t26.5 -33.5l68 -68h-2l6 -4q10 -10 16 -24.5t10 -30.5l-184 -189h2l-6 -6h283q41 0 47 -35l78 -76q10 -10 10 -28q0 -10 -2 -20.5t-4 -16.5l-39 -111q-12 -31 -25.5 -51t-46.5 -26h-274q-8 0 -15.5 -10.5t-15.5 -22.5q-2 -2 -3 -4t-3 -4l-227 -625h157q31 -8 37 -37l76 -74 q12 -12 12 -30q0 -10 -5 -23.5t-9 -28.5h-2l-37 -108q-6 -14 -22.5 -39t-51.5 -25h-1177q-20 0 -31 11l-78 77q-18 4 -24.5 16.5t-6.5 28.5zM82 20q0 -20 20 -20h1178q23 0 37 20.5t18 30.5l39 109q10 27 12.5 44t-20.5 21h-270q-20 0 -19.5 16.5t2.5 32.5l256 707 q10 16 22.5 32.5t31.5 16.5h270q25 4 36 21.5t21 44.5l39 108q4 12 4 31q0 20 -22 20h-1178q-23 0 -35 -22.5t-22 -32.5l-37 -104q-10 -27 -12 -44.5t20 -21.5h266q27 0 31 -14.5t-4 -34.5l-260 -717q-18 -39 -60 -39h-266q-25 -4 -36 -21.5t-21 -43.5l-39 -107q0 -6 -1 -14 t-1 -19zM1020 1403q-18 -55 14 -55h234q16 0 39.5 12t44.5 35l174 178q-6 20 -16.5 35.5t-45.5 15.5h-190q-47 0 -80 -37z" />
<glyph unicode="&#xce;" d="M55 20q0 4 1 6.5t1 6.5v22l41 113q12 35 26.5 56.5t49.5 27.5h272q25 0 35 24l234 642h-152q-18 2 -28 12l-76 76q-33 8 -33 47q0 10 3 24.5t13 30.5l37 106l10 11l-2 -4v2q2 0 2 2q14 20 31 38.5t39 18.5h309l-41 39q-33 6 -32 49q0 18 6 43l178 178q18 18 56 39t67 21 h397q41 0 59.5 -14.5t26.5 -37.5l70 -67q10 -10 15 -22.5t9 -24.5l-65 65h-2l67 -65l43 -172l-7 -17.5t-7 -13.5h29q41 0 47 -35l78 -76q10 -10 10 -28q0 -10 -2 -20.5t-4 -16.5l-39 -111q-12 -31 -25.5 -51t-46.5 -26h-274q-8 0 -15.5 -10.5t-15.5 -22.5q-2 -2 -3 -4t-3 -4 l-227 -625h157q31 -8 37 -37l76 -74h-2q0 2 -2 2l4 -2q12 -12 12 -30q0 -10 -5 -23.5t-9 -28.5h-2l-37 -108q-6 -14 -22.5 -39t-51.5 -25h-1177q-20 0 -31 11l-78 77q-18 4 -24.5 16.5t-6.5 28.5zM82 20q0 -20 20 -20h1178q23 0 37 20.5t18 30.5l39 109q10 27 12.5 44 t-20.5 21h-270q-20 0 -19.5 16.5t2.5 32.5l256 707q10 16 22.5 32.5t31.5 16.5h270q25 4 36 21.5t21 44.5l39 108q4 12 4 31q0 20 -22 20h-1178q-23 0 -35 -22.5t-22 -32.5l-37 -104q-10 -27 -12 -44.5t20 -21.5h266q27 0 31 -14.5t-4 -34.5l-260 -717q-18 -39 -60 -39h-266 q-25 -4 -36 -21.5t-21 -43.5l-39 -107q0 -6 -1 -14t-1 -19zM827 1403q-18 -55 15 -55h233q16 0 40 12t44 35l96 98l25 -98q10 -47 41 -47h233q37 0 56 55l-43 170q-6 20 -19.5 35.5t-48.5 15.5h-397q-23 0 -55.5 -17.5t-49.5 -33.5zM1262 1282h79l-41 41l-34 -35h2z" />
<glyph unicode="&#xcf;" d="M55 20q0 4 1 6.5t1 6.5v22l41 113q12 35 26.5 56.5t49.5 27.5h272q25 0 35 24l234 642h-152q-18 2 -28 12l-76 76q-33 8 -33 47q0 8 3 21t11 30l39 110l10 11q14 20 31 38.5t39 18.5h309l-41 39q-33 6 -32 49q0 16 6 41l61 162q10 37 38 57.5t44 20.5h246q33 0 43 -37 l2 -2l72 -70l2 -2l4 -8l16 41q10 37 38 57.5t44 20.5h246q31 0 45 -37l74 -74q14 -14 14 -37q0 -6 -1 -9t-1 -7l-68 -182q-4 -8 -5 -13.5t-5 -9.5h27q41 0 47 -35l78 -76q10 -10 10 -28q0 -10 -2 -20.5t-4 -16.5l-39 -111q-12 -31 -25.5 -51t-46.5 -26h-274 q-8 0 -15.5 -10.5t-15.5 -22.5q-2 -2 -3 -4t-3 -4l-227 -625h157q31 -8 37 -37l76 -74q12 -12 12 -30q0 -10 -5 -23.5t-9 -28.5h-2l-37 -108q-6 -14 -22.5 -39t-51.5 -25h-1177q-20 0 -31 11l-78 77q-18 4 -24.5 16.5t-6.5 28.5zM82 20q0 -20 20 -20h1178q23 0 37 20.5 t18 30.5l39 109q10 27 12.5 44t-20.5 21h-270q-20 0 -19.5 16.5t2.5 32.5l256 707q10 16 22.5 32.5t31.5 16.5h270q25 4 36 21.5t21 44.5l39 108q4 12 4 31q0 20 -22 20h-1178q-23 0 -35 -22.5t-22 -32.5l-37 -104q-10 -27 -12 -44.5t20 -21.5h266q27 0 31 -14.5t-4 -34.5 l-260 -717q-18 -39 -60 -39h-266q-25 -4 -36 -21.5t-21 -43.5l-39 -107q0 -6 -1 -14t-1 -19zM827 1403q-18 -55 15 -55h245q37 0 56 55l63 170q8 25 1 38t-17 13h-246q-10 0 -27.5 -13.5t-25.5 -37.5zM1243 1282h92l-41 39q-20 6 -28 20l-13 -36q-4 -8 -5 -13.5t-5 -9.5z M1294 1403q-18 -55 15 -55h245q37 0 56 55l63 170q8 25 1 38t-17 13h-246q-10 0 -27.5 -13.5t-25.5 -37.5z" />
<glyph unicode="&#xd0;" horiz-adv-x="1693" d="M205 444q0 8 3 21.5t11 30.5l39 110l10 10q14 20 30.5 39t39.5 19h151l187 518q16 45 48 67.5t54 22.5h1006q47 0 86 -25.5t61 -66.5l47 -47l2 -2l9 -6q47 -47 47 -111q0 -25 -13 -57l-319 -879q-10 -31 -39 -65.5t-67.5 -65.5t-84 -50.5t-88.5 -19.5h-1011q-29 0 -43 15 l-76 75q-35 10 -35 56q0 16 12 51l82 225h-12q-18 2 -29 13l-75 75q-33 8 -33 47zM231.5 443q-2.5 -17 20.5 -21h172l-127 -346q-27 -76 25 -76h1011q39 0 81 18.5t79 46t63.5 60.5t36.5 61l320 879q14 37 8 71.5t-25.5 61.5t-49 42t-62.5 15h-1006q-16 0 -39.5 -18 t-38.5 -53l-194 -537h-168q-23 0 -35 -22.5t-22 -32.5l-37 -105q-10 -27 -12.5 -44zM928 244l278 762q4 10 16.5 17t22.5 7h43q10 0 23.5 -1t24 -6t15.5 -15.5t-1 -28.5l-258 -709q-10 -27 -38 -36t-59 -9h-43q-10 0 -19 4t-5 15zM1978 1143q2 0 2 -2z" />
<glyph unicode="&#xd1;" horiz-adv-x="1542" d="M59 39q0 10 2 22.5t11 28.5l399 1098q14 43 49 68.5t58 25.5h200l-41 39q-33 6 -32 49q0 18 6 43l178 178q18 18 56 39t67 21h307q39 0 57 -41l51 -49l25 24q29 33 59.5 49.5t53.5 16.5h194q39 0 45 -35l76 -74q12 -12 12 -33q0 -20 -6 -41l-174 -176q-8 -8 -12 -10h74 q16 0 31.5 -11t23.5 -34l72 -70q20 -20 20 -51q0 -14 -8 -37l-397 -1097q-18 -45 -47 -70t-60 -25h-418q-23 0 -43 21l-71 72q-31 14 -50 55l-6 80l-47 -133q-39 -94 -104 -95h-457q-27 0 -41 15l-76 75q-37 12 -37 62zM88 21.5q8 -21.5 33 -21.5h457q53 0 86 82l139 387 q4 -4 6 -4h2l10 -6l33 -418q8 -20 21.5 -30.5t23.5 -10.5h418q25 0 48.5 21.5t39.5 60.5l397 1096q14 35 1 56t-29 21h-418q-16 0 -43 -21.5t-41 -55.5l-162 -447l-29 449q-6 76 -34 75h-469q-16 0 -43 -20.5t-39 -54.5l-400 -1098q-16 -39 -8 -60.5zM737 1403 q-18 -55 15 -55h233q16 0 40 12t44 35l96 98l25 -98q10 -47 41 -47h268q23 0 56.5 17t50.5 34l168 170q18 55 -15 55h-194q-16 0 -40 -12.5t-44 -34.5l-97 -98l-24 98q-10 47 -41 47h-307q-23 0 -55.5 -17.5t-49.5 -33.5zM1100 1237l65 -63q-2 0 -3 1l-1 1l6 -5 q20 -20 27 -81l2 -43l51 139q12 33 39 59l-1 1t-1 3l-74 74l-34 -35h2q-18 -20 -39 -32.5t-39 -18.5z" />
<glyph unicode="&#xd2;" d="M94 133q0 16 2 28.5t6 22.5l330 899q12 35 44 70t72 63.5t81 47t76 18.5h432l-45 43q-16 6 -29.5 21.5t-15.5 39.5l-46 195q27 29 55.5 49.5t71.5 20.5h191q53 0 74 -49l71 -70q12 -12 19 -33l39 -186q-4 -10 -7.5 -17.5t-7.5 -13.5h82q47 0 83 -20.5t54 -57.5l66 -63 q39 -39 39 -101q0 -16 -2 -31.5t-10 -33.5h-2l-326 -897q-12 -31 -39 -64.5t-63.5 -61.5t-78.5 -46.5t-83 -18.5h-887q-55 0 -102 47l-60 60q-35 18 -59.5 55t-24.5 84zM124 107.5q7 -31.5 26.5 -56t46 -38t51.5 -13.5h887q39 0 77.5 16.5t72.5 42t59.5 57t35.5 60.5 l328 899q14 39 10 72t-21.5 57.5t-46 37.5t-61.5 13h-884q-31 0 -69 -16t-74 -42t-64.5 -58.5t-40.5 -63.5l-328 -899q-12 -37 -5 -68.5zM731 270l260 717q10 23 39 33t49 10q25 0 49.5 -7t12.5 -44l-258 -709q-10 -27 -37 -36t-60 -9q-20 0 -36.5 10.5t-18.5 34.5z M1030 1573l43 -178q2 -23 16.5 -35t30.5 -12h234q37 0 55 55l-39 184q-10 37 -51 37h-191q-35 0 -57 -15.5t-41 -35.5z" />
<glyph unicode="&#xd3;" d="M94 133q0 16 2 28.5t6 22.5l330 899q12 35 44 70t72 63.5t81 47t76 18.5h356l-41 39q-33 6 -33 49q0 18 6 43l183 193q39 45 98 45h190q37 0 53.5 -13.5t26.5 -33.5l68 -68h-2l6 -4q10 -10 16 -24.5t10 -30.5l-184 -189h2l-6 -6h135q47 0 83 -20.5t54 -57.5l66 -63 q39 -39 39 -101q0 -16 -2 -31.5t-10 -33.5h-2l-326 -897q-12 -31 -39 -64.5t-63.5 -61.5t-78.5 -46.5t-83 -18.5h-887q-55 0 -102 47l-60 60q-35 18 -59.5 55t-24.5 84zM124 107.5q7 -31.5 26.5 -56t46 -38t51.5 -13.5h887q39 0 77.5 16.5t72.5 42t59.5 57t35.5 60.5 l328 899q14 39 10 72t-21.5 57.5t-46 37.5t-61.5 13h-884q-31 0 -69 -16t-74 -42t-64.5 -58.5t-40.5 -63.5l-328 -899q-12 -37 -5 -68.5zM731 270l260 717q10 23 39 33t49 10q25 0 49.5 -7t12.5 -44l-258 -709q-10 -27 -37 -36t-60 -9q-20 0 -36.5 10.5t-18.5 34.5z M1020 1403q-18 -55 14 -55h234q16 0 39.5 12t44.5 35l174 178q-6 20 -16.5 35.5t-45.5 15.5h-190q-47 0 -80 -37z" />
<glyph unicode="&#xd4;" d="M94 133q0 16 2 28.5t6 22.5l330 899q12 35 44 70t72 63.5t81 47t76 18.5h163l-41 39q-33 6 -32 49q0 18 6 43l178 178q18 18 56 39t67 21h397q41 0 59.5 -14.5t26.5 -37.5l68 -65q-2 0 -3 1l-1 1l6 -4q10 -10 15 -22.5t9 -24.5l43 -172q-14 -37 -34 -62q23 -16 38 -47 l66 -63q39 -39 39 -101q0 -16 -2 -31.5t-10 -33.5h-2l-326 -897q-12 -31 -39 -64.5t-63.5 -61.5t-78.5 -46.5t-83 -18.5h-887q-55 0 -102 47l-60 60q-35 18 -59.5 55t-24.5 84zM124 107.5q7 -31.5 26.5 -56t46 -38t51.5 -13.5h887q39 0 77.5 16.5t72.5 42t59.5 57t35.5 60.5 l328 899q14 39 10 72t-21.5 57.5t-46 37.5t-61.5 13h-884q-31 0 -69 -16t-74 -42t-64.5 -58.5t-40.5 -63.5l-328 -899q-12 -37 -5 -68.5zM731 270l260 717q10 23 39 33t49 10q25 0 49.5 -7t12.5 -44l-258 -709q-10 -27 -37 -36t-60 -9q-20 0 -36.5 10.5t-18.5 34.5z M827 1403q-18 -55 15 -55h233q16 0 40 12t44 35l96 98l25 -98q10 -47 41 -47h233q37 0 56 55l-43 170q-6 20 -19.5 35.5t-48.5 15.5h-397q-23 0 -55.5 -17.5t-49.5 -33.5zM1262 1282h79l-41 41l-34 -35h2z" />
<glyph unicode="&#xd5;" d="M94 133q0 16 2 28.5t6 22.5l330 899q12 35 44 70t72 63.5t81 47t76 18.5h55l-41 39q-33 6 -33 49q0 18 6 43l178 178q18 18 56.5 39t66.5 21h307q39 0 58 -41l51 -49l25 24q29 33 59.5 49.5t52.5 16.5h195q39 0 45 -35l76 -74q12 -12 12 -33q0 -20 -6 -41l-174 -176 q-6 -6 -14.5 -13t-18.5 -11q45 -23 65 -64l66 -63q39 -39 39 -101q0 -16 -2 -31.5t-10 -33.5h-2l-326 -897q-12 -31 -39 -64.5t-63.5 -61.5t-78.5 -46.5t-83 -18.5h-887q-55 0 -102 47l-60 60q-35 18 -59.5 55t-24.5 84zM124 107.5q7 -31.5 26.5 -56t46 -38t51.5 -13.5h887 q39 0 77.5 16.5t72.5 42t59.5 57t35.5 60.5l328 899q14 39 10 72t-21.5 57.5t-46 37.5t-61.5 13h-884q-31 0 -69 -16t-74 -42t-64.5 -58.5t-40.5 -63.5l-328 -899q-12 -37 -5 -68.5zM719 1403q-18 -55 14 -55h234q16 0 39.5 12t44.5 35l96 98l24 -98q10 -47 41 -47h269 q23 0 56.5 17t49.5 34l168 170q18 55 -14 55h-195q-16 0 -39.5 -12.5t-44.5 -34.5l-96 -98l-25 98q-10 47 -41 47h-307q-23 0 -55.5 -17.5t-48.5 -33.5zM731 270l260 717q10 23 39 33t49 10q25 0 49.5 -7t12.5 -44l-258 -709q-10 -27 -37 -36t-60 -9q-20 0 -36.5 10.5 t-18.5 34.5zM1153 1282h80l-41 41l-35 -35h2z" />
<glyph unicode="&#xd6;" d="M94 133q0 16 2 28.5t6 22.5l330 899q12 35 44 70t72 63.5t81 47t76 18.5h163l-41 39q-33 6 -32 49q0 16 6 41l61 162q10 37 38 57.5t44 20.5h246q33 0 43 -37l2 -2l74 -72l4 -8l16 41q10 37 38 57.5t44 20.5h246q31 0 45 -37l74 -74q14 -14 14 -37q0 -6 -1 -9t-1 -7 l-68 -182q-12 -37 -30 -56l20 -20t16 -25l66 -63q39 -39 39 -101q0 -16 -2 -31.5t-10 -33.5h-2l-326 -897q-12 -31 -39 -64.5t-63.5 -61.5t-78.5 -46.5t-83 -18.5h-887q-55 0 -102 47l-60 60q-35 18 -59.5 55t-24.5 84zM124 107.5q7 -31.5 26.5 -56t46 -38t51.5 -13.5h887 q39 0 77.5 16.5t72.5 42t59.5 57t35.5 60.5l328 899q14 39 10 72t-21.5 57.5t-46 37.5t-61.5 13h-884q-31 0 -69 -16t-74 -42t-64.5 -58.5t-40.5 -63.5l-328 -899q-12 -37 -5 -68.5zM731 270l260 717q10 23 39 33t49 10q25 0 49.5 -7t12.5 -44l-258 -709q-10 -27 -37 -36 t-60 -9q-20 0 -36.5 10.5t-18.5 34.5zM827 1403q-18 -55 15 -55h245q37 0 56 55l63 170q8 25 1 38t-17 13h-246q-10 0 -27.5 -13.5t-25.5 -37.5zM1243 1282h92l-41 39q-20 6 -28 20l-13 -36q-4 -8 -5 -13.5t-5 -9.5zM1294 1403q-18 -55 15 -55h245q37 0 56 55l63 170 q8 25 1 38t-17 13h-246q-10 0 -27.5 -13.5t-25.5 -37.5z" />
<glyph unicode="&#xd7;" horiz-adv-x="845" d="M172 360q0 10 4 21q4 14 23 33l174 127l-74 118q-6 12 -7 16.5t-1 8.5q0 12 4 21q6 16 21.5 30.5t33.5 28.5l109 80q8 0 10 2q2 0 3 1t3 1h-2q10 6 23.5 11t25.5 5q20 0 35 -20l10 -19l70 -67q6 -6 8 -10l2 -7l156 113q25 10 35 10q35 0 59 -41l8 -12l60 -61h-2v2l8 -7 q10 -10 14 -18l51 -80v-10q2 -8 4 -14.5t2 -12.5q0 -4 -2 -11t-4 -11h-2q-6 -14 -18 -27l-172 -125l84 -127q0 -2 1 -5t1 -7t-1 -8t-1 -8q-6 -14 -16.5 -27.5t-20.5 -24.5l-111 -79q-43 -35 -73 -35q-10 0 -35 12l-80 78q-6 2 -19 10l-10 14l-137 -100q-8 -8 -17.5 -10 t-17.5 -2q-18 0 -30.5 8t-18.5 14l-70 70q-10 4 -19 12t-13 12l-35 58q-16 23 -24.5 38t-8.5 31zM201 373q-8 -20 14 -49l47 -76q4 -4 14.5 -11.5t22.5 -7.5q14 0 23 9l188 137l86 -142q12 -6 18 -6q20 0 62 31l110 80q8 8 16.5 18.5t12.5 20.5q2 14 0 20l-90 138l186 135 q12 12 15 18q6 14 1 27.5t-3 19.5l-47 74q-18 29 -39 29q-10 0 -23 -7l-190 -139l-88 137q-6 8 -15 9q-14 0 -30.5 -9.5t-24.5 -11.5l-100 -74q-16 -12 -29.5 -24t-18.5 -25q-2 -8 0 -20l89 -139l-193 -142q-12 -12 -14 -20z" />
<glyph unicode="&#xd8;" d="M94 133q0 16 2 28.5t6 22.5l330 899q12 35 44 70t72 63.5t81 47t76 18.5h884q47 0 83 -20.5t54 -57.5l66 -63q39 -39 39 -101q0 -16 -2 -31.5t-10 -33.5h-2l-326 -897q-12 -31 -39 -64.5t-63.5 -61.5t-78.5 -46.5t-83 -18.5h-887q-55 0 -102 47l-60 60q-35 18 -59.5 55 t-24.5 84zM124 107.5q7 -31.5 26.5 -56t46 -38t51.5 -13.5h887q39 0 77.5 16.5t72.5 42t59.5 57t35.5 60.5l328 899q14 39 10 72t-21.5 57.5t-46 37.5t-61.5 13h-884q-31 0 -69 -16t-74 -42t-64.5 -58.5t-40.5 -63.5l-328 -899q-12 -37 -5 -68.5zM731 270l17 47l241 244 l-106 -291q-10 -27 -37 -36t-60 -9q-20 0 -36.5 10.5t-18.5 34.5zM885 692l106 295q10 23 39 33t49 10q25 0 49.5 -7t12.5 -44l-11 -29z" />
<glyph unicode="&#xd9;" d="M94 133q0 16 2 28.5t6 22.5l369 1004q14 43 49 68.5t58 25.5h456q16 0 32.5 -11t25.5 -34l69 -68q6 -6 15 -22l14 41q10 29 27 47h-5q-29 0 -47 18l-73 72q-16 8 -29.5 22.5t-15.5 38.5l-46 195q27 29 55.5 49.5t71.5 20.5h191q53 0 74 -49l71 -70q12 -12 19 -33l39 -186 q-4 -10 -7.5 -17.5t-7.5 -13.5h211q16 0 32.5 -11t25.5 -34l69 -68q20 -20 21 -51q0 -20 -8 -39h-3l-364 -1001q-12 -31 -39 -64.5t-63.5 -61.5t-78.5 -46.5t-83 -18.5h-887q-55 0 -102 47l-60 60q-35 18 -59.5 55t-24.5 84zM124 107.5q7 -31.5 26.5 -56t46 -38t51.5 -13.5 h887q39 0 77.5 16.5t72.5 42t59.5 57t35.5 60.5l367 1004q12 35 0 55t-29 20h-422q-16 0 -42.5 -20.5t-39.5 -54.5l-331 -910q-10 -27 -37 -36t-60 -9q-20 0 -36.5 10.5t-18.5 34.5l332 910q12 35 0 55t-29 20h-456q-16 0 -43 -20.5t-39 -54.5l-367 -1004q-12 -37 -5 -68.5z M1030 1573l43 -178q2 -23 16.5 -35t30.5 -12h234q37 0 55 55l-39 184q-10 37 -51 37h-191q-35 0 -57 -15.5t-41 -35.5z" />
<glyph unicode="&#xda;" d="M94 133q0 16 2 28.5t6 22.5l369 1004q14 43 49 68.5t58 25.5h456q16 0 31.5 -11t24.5 -32l2 -2l69 -68q6 -6 15 -22l14 41q10 29 27 47h-91q-18 0 -28 10l-78 76q-33 6 -33 49q0 18 6 43l183 193q39 45 98 45h190q37 0 53.5 -13.5t26.5 -33.5l68 -68h-2l6 -4 q10 -10 16 -24.5t10 -30.5l-184 -189h2l-6 -6h264q16 0 31.5 -11t24.5 -32l2 -2l67 -66q-2 0 -3 1l-1 2l6 -5q20 -20 21 -51q0 -20 -8 -39h-3l-364 -1001q-12 -31 -39 -64.5t-63.5 -61.5t-78.5 -46.5t-83 -18.5h-887q-55 0 -102 47l-60 60q-35 18 -59.5 55t-24.5 84z M124 107.5q7 -31.5 26.5 -56t46 -38t51.5 -13.5h887q39 0 77.5 16.5t72.5 42t59.5 57t35.5 60.5l367 1004q12 35 0 55t-29 20h-422q-16 0 -42.5 -20.5t-39.5 -54.5l-331 -910q-10 -27 -37 -36t-60 -9q-20 0 -36.5 10.5t-18.5 34.5l332 910q12 35 0 55t-29 20h-456 q-16 0 -43 -20.5t-39 -54.5l-367 -1004q-12 -37 -5 -68.5zM1020 1403q-18 -55 14 -55h234q16 0 39.5 12t44.5 35l174 178q-6 20 -16.5 35.5t-45.5 15.5h-190q-47 0 -80 -37z" />
<glyph unicode="&#xdb;" d="M94 133q0 16 2 28.5t6 22.5l369 1004q14 43 49 68.5t58 25.5h290l-41 39q-33 6 -32 49q0 18 6 43l178 178q18 18 56 39t67 21h397q41 0 59.5 -14.5t26.5 -37.5l70 -67q10 -10 15 -22.5t9 -24.5l43 -172l-7 -17.5t-7 -13.5h10q16 0 31.5 -11t24.5 -32l2 -2l69 -68 q20 -20 21 -51q0 -20 -8 -39h-3l-364 -1001q-12 -31 -39 -64.5t-63.5 -61.5t-78.5 -46.5t-83 -18.5h-887q-55 0 -102 47l-60 60q-35 18 -59.5 55t-24.5 84zM124 107.5q7 -31.5 26.5 -56t46 -38t51.5 -13.5h887q39 0 77.5 16.5t72.5 42t59.5 57t35.5 60.5l367 1004 q12 35 0 55t-29 20h-422q-16 0 -42.5 -20.5t-39.5 -54.5l-331 -910q-10 -27 -37 -36t-60 -9q-20 0 -36.5 10.5t-18.5 34.5l332 910q12 35 0 55t-29 20h-456q-16 0 -43 -20.5t-39 -54.5l-367 -1004q-12 -37 -5 -68.5zM827 1403q-18 -55 15 -55h233q16 0 40 12t44 35l96 98 l25 -98q10 -47 41 -47h233q37 0 56 55l-43 170q-6 20 -19.5 35.5t-48.5 15.5h-397q-23 0 -55.5 -17.5t-49.5 -33.5zM1096 1235l65 -66q6 -6 15 -22l14 41q14 43 49 68.5t57 25.5h45l-41 41l-34 -35h2q-23 -27 -50.5 -40t-50.5 -13h-71z" />
<glyph unicode="&#xdc;" d="M94 133q0 16 2 28.5t6 22.5l369 1004q14 43 49 68.5t58 25.5h290l-41 39q-33 6 -32 49q0 16 6 41l61 162q10 37 38 57.5t44 20.5h246q14 0 27.5 -10.5t17.5 -28.5l72 -70l2 -2l4 -8l16 41q10 37 38 57.5t44 20.5h246q31 0 45 -37l74 -74q14 -14 14 -37q0 -6 -1 -9t-1 -7 l-68 -182q-4 -8 -5 -13.5t-5 -9.5h8q16 0 32.5 -11t25.5 -34l67 -66q-2 0 -3 1l-1 2l6 -5q20 -20 21 -51q0 -20 -8 -39h-3l-364 -1001q-12 -31 -39 -64.5t-63.5 -61.5t-78.5 -46.5t-83 -18.5h-887q-55 0 -102 47l-60 60q-35 18 -59.5 55t-24.5 84zM124 107.5 q7 -31.5 26.5 -56t46 -38t51.5 -13.5h887q39 0 77.5 16.5t72.5 42t59.5 57t35.5 60.5l367 1004q12 35 0 55t-29 20h-422q-16 0 -42.5 -20.5t-39.5 -54.5l-331 -910q-10 -27 -37 -36t-60 -9q-20 0 -36.5 10.5t-18.5 34.5l332 910q12 35 0 55t-29 20h-456q-16 0 -43 -20.5 t-39 -54.5l-367 -1004q-12 -37 -5 -68.5zM827 1403q-18 -55 15 -55h245q37 0 56 55l63 170q8 25 1 38t-17 13h-246q-10 0 -27.5 -13.5t-25.5 -37.5zM1096 1235l63 -64q-2 0 -3 1l-1 2l6 -5q6 -6 15 -22l14 41q14 43 49 68.5t57 25.5h39l-41 39q-20 6 -28 20l-13 -36 q-20 -70 -73 -70h-84zM1294 1403q-18 -55 15 -55h245q37 0 56 55l63 170q8 25 1 38t-17 13h-246q-10 0 -27.5 -13.5t-25.5 -37.5z" />
<glyph unicode="&#xdd;" d="M227 494q0 14 2 28.5t9 28.5l233 637q14 43 49 68.5t58 25.5h456q16 0 32.5 -11t25.5 -34l67 -66q-2 0 -3 1l-1 2l6 -5q6 -6 15 -22l14 41q10 29 27 47h-91q-18 0 -28 10l-78 76q-33 6 -33 49q0 18 6 43l183 193q39 45 98 45h190q37 0 53.5 -13.5t26.5 -33.5l68 -68h-2 l6 -4q10 -10 16 -24.5t10 -30.5l-184 -189h2l-6 -6h264q16 0 31.5 -11t24.5 -32l2 -2l67 -66q-2 0 -3 1l-1 2l6 -5q20 -20 21 -51q0 -20 -8 -39h-3l-231 -639q-10 -31 -37.5 -64.5t-63.5 -61t-79 -45t-84 -17.5h-137q-6 0 -13.5 -8t-11.5 -17h-2l-86 -245q-39 -94 -104 -95 h-457q-27 0 -41 15l-76 75q-37 12 -37 62q0 10 2 23.5t13 31.5l55 158q-51 4 -94 47l-60 57q-35 20 -59.5 55t-24.5 83zM255 470q7 -32 27.5 -55.5t47 -36.5t51.5 -13h121q10 0 17 -11.5t1 -25.5l-88 -246q-16 -39 -8 -60.5t33 -21.5h456q53 0 86 82l88 246q4 10 17.5 23.5 t25.5 13.5h138q39 0 77.5 16t72.5 42t59.5 56.5t35.5 59.5l234 641q12 35 0 55t-29 20h-422q-16 0 -42.5 -20.5t-39.5 -54.5l-200 -547q-10 -27 -37 -36t-59 -9q-20 0 -36 10t-20 35l201 547q12 35 0 55t-29 20h-456q-16 0 -43 -20.5t-39 -54.5l-234 -641q-14 -37 -7 -69z M1020 1403q-18 -55 14 -55h234q16 0 39.5 12t44.5 35l174 178q-6 20 -16.5 35.5t-45.5 15.5h-190q-47 0 -80 -37z" />
<glyph unicode="&#xde;" horiz-adv-x="1497" d="M55 31q0 25 13 55l401 1100q16 43 51 69.5t58 26.5h456q16 0 30.5 -10t22.5 -29l74 -74q19 -22 19 -51q0 -10 -2 -14h358q47 0 83 -20.5t54 -57.5l66 -63q39 -39 39 -101q0 -16 -2 -31.5t-11 -33.5h-2l-190 -533q-16 -41 -46 -74.5t-67 -60.5t-78 -41t-75 -14h-433 q-18 2 -30 14l-23 23l-49 -136q-14 -27 -47 -57.5t-55 -30.5h-469q-23 0 -35 13l-76 75q-35 8 -35 56zM84 22.5q2 -22.5 25 -22.5h469q8 0 20 8t24.5 20.5t23.5 27t18 26.5l260 719q8 20 36.5 35.5t59.5 15.5q10 0 24.5 -1t25.5 -6t17.5 -15.5t-0.5 -28.5l-120 -336 q-14 -35 -30.5 -44t-39.5 -11h-29q-23 0 -35 -21.5t-22 -32.5l-39 -106q-10 -31 -10 -43q0 -16 22 -21h430q33 0 71 13.5t72 38t62.5 57.5t42.5 70l193 532q14 39 10 71.5t-21.5 57.5t-46 38t-61.5 13h-512l37 101q14 35 2 56t-29 21h-456q-16 0 -43 -21.5t-41 -55.5 l-402 -1104q-10 -29 -8 -51.5z" />
<glyph unicode="&#xdf;" horiz-adv-x="1497" d="M-61 -246q0 18 8 37l473 1296q12 41 46 77t74 61.5t81 41t67 15.5h914q47 0 82.5 -20.5t54.5 -57.5l65 -63q39 -39 39 -101q0 -16 -2 -31.5t-10 -33.5h-2l-125 -350q-14 -35 -51 -87.5t-90 -91.5q27 -41 26 -92q0 -39 -18 -88l-68 -184q-16 -43 -46 -78t-67.5 -61.5 t-78.5 -41t-76 -14.5h-410q-49 0 -63 15l-23 22l-88 -239q-14 -41 -47 -66t-55 -25h-455q-20 0 -37 17l-71 72q-18 6 -32.5 24.5t-14.5 46.5zM-29 -217q-12 -35 1.5 -55.5t29.5 -20.5h455q16 0 43.5 20.5t40.5 55.5l438 1202q6 18 37.5 31.5t68.5 13.5q10 0 24.5 -1t26 -6 t17.5 -15.5t0 -28.5l-100 -277q-14 -35 -29.5 -43t-40.5 -10h-51q-23 0 -35 -21.5t-20 -31.5l-39 -107q-10 -27 -11.5 -44t21.5 -21h53q20 0 30.5 -10.5t-1.5 -44.5l-35 -93q-12 -35 -23.5 -43t-31.5 -8h-41q-16 0 -40 -20.5t-44 -54.5l-35 -93q2 -29 5 -43t48 -14h410 q33 0 70.5 13.5t72.5 38t63.5 57t43.5 71.5l67 185q20 53 14 101t-34 79q59 35 99 90t54 90l127 350q14 39 10 72t-21 57.5t-46 37.5t-61 13h-914q-25 0 -61.5 -13t-72.5 -37.5t-66.5 -56.5t-43.5 -69zM862 262q4 12 8 23l21 57zM1022 700q4 8 6 15l66 178q-4 -4 -4 -6z" />
<glyph unicode="&#xe0;" horiz-adv-x="1609" d="M57 49q0 10 6 23q4 10 17 28l739 1131q23 35 55.5 43t61.5 8h264l-45 43q-16 6 -29.5 21.5t-15.5 39.5l-45 195q27 29 55.5 49.5t71.5 20.5h190q53 0 74 -49l72 -70q12 -12 18 -33l39 -186l-7 -17.5t-7 -13.5h18q39 0 51 -39l74 -72q12 -12 17.5 -34.5t9.5 -51.5 l-139 -1050v-2l-3 -6q-10 -23 -20 -42.5t-39 -19.5h-407q-25 0 -39 15l-76 75q-20 6 -29.5 23.5t-11.5 36.5h-68l-16 14l-92 -143q-12 -25 -23.5 -43.5t-27 -30.5t-38 -18.5t-57.5 -6.5h-442q-20 0 -35 15l-74 73q-23 6 -32 24.5t-11 35.5q-4 4 -4 14zM88 39q0 -10 8 -24.5 t25 -14.5h442q59 0 83 21.5t44 64.5l383 592l-35 -244h-75l-13 -20q-12 -21 -29.5 -50.5t-37 -60.5t-31.5 -49v-2q-4 -4 -6 -10v-4q0 -4 -2 -11h164l-4 -90q-2 -16 5 -37.5t31 -21.5h408q16 0 23.5 10t11.5 23q4 10 5 16l1 6l139 1045q-4 35 -11 56t-28 21h-653 q-23 0 -48.5 -4t-37.5 -24l-748 -1141q-12 -14 -14 -23q-6 -16 0 -24zM1094 1573l43 -178q2 -23 16 -35t31 -12h233q37 0 56 55l-39 184q-10 37 -52 37h-190q-35 0 -57.5 -15.5t-40.5 -35.5zM1507 131l2 -2v4z" />
<glyph unicode="&#xe1;" horiz-adv-x="1609" d="M57 49q0 10 6 23q4 10 17 28l739 1131q23 35 55.5 43t61.5 8h217l-41 39q-33 6 -33 49q0 18 6 43l183 193q39 45 98 45h190q37 0 53.5 -13.5t26.5 -33.5l72 -72q10 -10 16.5 -24.5t10.5 -30.5l-185 -189h2l-6 -6h43q39 0 51 -39l74 -72q12 -12 17.5 -34.5t9.5 -51.5 l-139 -1050v-2l-3 -6q-10 -23 -20 -42.5t-39 -19.5h-407q-25 0 -39 15l-76 75q-20 6 -29.5 23.5t-11.5 36.5h-68l-16 14l-92 -143q-12 -25 -23.5 -43.5t-27 -30.5t-38 -18.5t-57.5 -6.5h-442q-20 0 -35 15l-74 73q-23 6 -32 24.5t-11 35.5q-4 4 -4 14zM88 39q0 -10 8 -24.5 t25 -14.5h442q59 0 83 21.5t44 64.5l383 592l-35 -244h-75l-13 -20q-12 -21 -29.5 -50.5t-37 -60.5t-31.5 -49v-2q-4 -4 -6 -10v-4q0 -4 -2 -11h164l-4 -90q-2 -16 5 -37.5t31 -21.5h408q16 0 23.5 10t11.5 23q4 10 5 16l1 6l139 1045q-4 35 -11 56t-28 21h-653 q-23 0 -48.5 -4t-37.5 -24l-748 -1141q-12 -14 -14 -23q-6 -16 0 -24zM1112 1403q-18 -55 14 -55h234q16 0 39.5 12t44.5 35l174 178q-6 20 -16.5 35.5t-45.5 15.5h-190q-47 0 -80 -37zM1507 131l2 -2v4z" />
<glyph unicode="&#xe2;" horiz-adv-x="1609" d="M57 49q0 10 6 23q4 10 17 28l739 1131q23 35 55.5 43t61.5 8h8l-41 39q-33 6 -33 49q0 18 7 43l178 178q18 18 56 39t67 21h397q41 0 59.5 -14.5t26.5 -37.5l68 -65q-2 0 -3 1l-2 1l7 -4q10 -10 15 -22.5t9 -24.5l43 -172q-29 -78 -76 -78h-71l63 -64h-2q0 2 -2 3l4 -3 q12 -12 17.5 -34.5t9.5 -51.5l-139 -1050v-2l-3 -6q-10 -23 -20 -42.5t-39 -19.5h-407q-25 0 -39 15l-76 75q-20 6 -29.5 23.5t-11.5 36.5h-68l-16 14l-92 -143q-12 -25 -23.5 -43.5t-27 -30.5t-38 -18.5t-57.5 -6.5h-442q-20 0 -35 15l-74 73q-23 6 -32 24.5t-11 35.5 q-4 4 -4 14zM88 39q0 -10 8 -24.5t25 -14.5h442q59 0 83 21.5t44 64.5l383 592l-35 -244h-75l-13 -20q-12 -21 -29.5 -50.5t-37 -60.5t-31.5 -49v-2q-4 -4 -6 -10v-4q0 -4 -2 -11h164l-4 -90q-2 -16 5 -37.5t31 -21.5h408q16 0 23.5 10t11.5 23q4 10 5 16l1 6l139 1045 q-4 35 -11 56t-28 21h-653q-23 0 -48.5 -4t-37.5 -24l-748 -1141q-12 -14 -14 -23q-6 -16 0 -24zM903 1403q-18 -55 15 -55h233q16 0 39.5 12t44.5 35l96 98l25 -98q10 -47 41 -47h233q37 0 56 55l-44 170q-6 20 -19 35.5t-48 15.5h-397q-23 0 -55.5 -17.5t-49.5 -33.5z M1337 1282h80l-41 41l-35 -35h2zM1507 131l2 -2v4z" />
<glyph unicode="&#xe3;" horiz-adv-x="1609" d="M57 49q0 10 6 23q4 10 17 28l739 1131q6 10 14.5 18t16.5 13l-57 59q-33 6 -33 49q0 18 6 43l178 178q18 18 56 39t67 21h307q39 0 58 -41l51 -49l24 24q29 33 59.5 49.5t53.5 16.5h195q39 0 45 -35l75 -74q12 -12 13 -33q0 -20 -6 -41l-175 -176q-18 -18 -54 -36.5 t-62 -20.5l63 -64q12 -12 17.5 -34.5t9.5 -51.5l-139 -1050v-2l-3 -6q-10 -23 -20 -42.5t-39 -19.5h-407q-25 0 -39 15l-76 75q-20 6 -29.5 23.5t-11.5 36.5h-68l-16 14l-92 -143q-12 -25 -23.5 -43.5t-27 -30.5t-38 -18.5t-57.5 -6.5h-442q-20 0 -35 15l-74 73 q-23 6 -32 24.5t-11 35.5q-4 4 -4 14zM88 39q0 -10 8 -24.5t25 -14.5h442q59 0 83 21.5t44 64.5l383 592l-35 -244h-75l-13 -20q-12 -21 -29.5 -50.5t-37 -60.5t-31.5 -49v-2q-4 -4 -6 -10v-4q0 -4 -2 -11h164l-4 -90q-2 -16 5 -37.5t31 -21.5h408q16 0 23.5 10t11.5 23 q4 10 5 16l1 6l139 1045q-4 35 -11 56t-28 21h-653q-23 0 -48.5 -4t-37.5 -24l-748 -1141q-12 -14 -14 -23q-6 -16 0 -24zM793 1403q-18 -55 14 -55h233q16 0 40 12t44 35l97 98l24 -98q10 -47 41 -47h268q23 0 57 17t50 34l168 170q18 55 -14 55h-195q-16 0 -40 -12.5 t-44 -34.5l-96 -98l-25 98q-10 47 -41 47h-307q-23 0 -55.5 -17.5t-48.5 -33.5zM1227 1282h80l-41 41l-35 -35h2zM1507 131l2 -2v4z" />
<glyph unicode="&#xe4;" horiz-adv-x="1609" d="M57 49q0 10 6 23q4 10 17 28l739 1131q23 35 55.5 43t61.5 8h8l-41 39q-33 6 -33 49q0 16 7 41l61 162q10 37 38 57.5t44 20.5h246q33 0 43 -37l2 -2l73 -72l5 -8l16 41q10 37 37.5 57.5t44.5 20.5h246q33 0 43 -37l75 -74q14 -14 15 -37q0 -6 -1 -9t-1 -7l-68 -182 q-20 -70 -74 -70h-71l63 -64q12 -12 17.5 -34.5t9.5 -51.5l-139 -1050v-2l-3 -6q-10 -23 -20 -42.5t-39 -19.5h-407q-25 0 -39 15l-76 75q-20 6 -29.5 23.5t-11.5 36.5h-68l-16 14l-92 -143q-12 -25 -23.5 -43.5t-27 -30.5t-38 -18.5t-57.5 -6.5h-442q-20 0 -35 15l-74 73 q-23 6 -32 24.5t-11 35.5q-4 4 -4 14zM88 39q0 -10 8 -24.5t25 -14.5h442q59 0 83 21.5t44 64.5l383 592l-35 -244h-75l-13 -20q-12 -21 -29.5 -50.5t-37 -60.5t-31.5 -49v-2q-4 -4 -6 -10v-4q0 -4 -2 -11h164l-4 -90q-2 -16 5 -37.5t31 -21.5h408q16 0 23.5 10t11.5 23 q4 10 5 16l1 6l139 1045q-4 35 -11 56t-28 21h-653q-23 0 -48.5 -4t-37.5 -24l-748 -1141q-12 -14 -14 -23q-6 -16 0 -24zM903 1403q-18 -55 15 -55h245q37 0 56 55l63 170q8 25 1 38t-17 13h-246q-10 0 -27.5 -13.5t-25.5 -37.5zM1319 1282h92l-41 39q-20 6 -29 20l-12 -36 q-4 -8 -5 -13.5t-5 -9.5zM1370 1403q-18 -55 14 -55h246q37 0 56 55l63 170q8 25 1 38t-17 13h-246q-10 0 -27.5 -13.5t-25.5 -37.5zM1507 131l2 -2v4z" />
<glyph unicode="&#xe5;" horiz-adv-x="1609" d="M57 49q0 -10 4 -14q2 -16 11.5 -34.5t31.5 -25.5l74 -73q14 -14 35 -15h442q35 0 57.5 6.5t38 18.5t26.5 30.5t24 43.5l92 143l16 -14h68q2 -18 11 -36t30 -24l76 -75q14 -14 39 -15h407q29 0 39 19.5t20 42.5l3 6v2l139 1050q-4 29 -9.5 51.5t-17.5 34.5l-74 72 q-12 39 -51 39h-37q4 4 5.5 9t5.5 14l67 182q0 4 1 7t1 9q0 23 -14 37l-74 72l-2 2q-10 37 -43 37h-246q-16 0 -43.5 -20.5t-38.5 -57.5l-61 -162q-6 -25 -6 -41q0 -43 33 -49l41 -39h-242q-29 0 -61.5 -8t-55.5 -43l-739 -1131q-12 -18 -17 -28q-6 -12 -6 -23zM88 39 q-6 8 0 24q2 8 14 23l748 1141q12 20 37.5 24t48.5 4h653q20 0 27.5 -21.5t11.5 -55.5l-139 -1045l-1 -6t-5 -16q-4 -12 -11.5 -22.5t-23.5 -10.5h-408q-25 0 -32 21.5t-4 37.5l4 90h-164q2 6 2 11v4q2 6 6 10v2q12 18 31.5 49t37 60.5t29.5 50.5l13 20h75l35 244l-383 -592 q-20 -43 -43.5 -64.5t-83.5 -21.5h-442q-16 0 -24.5 14.5t-8.5 24.5zM1137 1403l63 170q8 25 25.5 38t27.5 13h246q10 0 17.5 -13.5t-0.5 -37.5l-64 -170q-18 -55 -55 -55h-246q-33 0 -14 55zM1272 1464q-4 -12 8 -12h72q10 0 14 12l16 41q2 12 -6 13h-71q-14 0 -17 -13z M1507 131l2 2v-4z" />
<glyph unicode="&#xe6;" horiz-adv-x="2381" d="M57 49q0 10 6 23q4 10 17 28l739 1131q23 35 55.5 43t61.5 8h1663q37 0 57.5 -6t24.5 -31l78 -76q10 -10 10 -32q0 -18 -14 -56l-107 -293q-18 -47 -52 -69.5t-59 -22.5h-421q-25 0 -39 15l-76 73q-25 10 -35 35l-53 -143h371q39 -12 40 -37l78 -76q10 -10 11 -28 q0 -10 -5.5 -22.5t-9.5 -27.5h-2l-41 -114q-12 -27 -28.5 -43.5t-42.5 -16.5h-457q-20 0 -33.5 -6t-21.5 -22h-3l-10 -31h502q39 -12 41 -37l78 -76q10 -10 10 -28q0 -10 -5 -22.5t-9 -27.5l-43 -112l-2 -2q-10 -16 -26.5 -38t-43.5 -22h-1163q-12 0 -19 7l-80 79 q-18 4 -26 27t-8 57v27q0 14 2 31h-58l-16 14l-92 -143q-12 -25 -23.5 -43.5t-27 -30.5t-38 -18.5t-57.5 -6.5h-442q-20 0 -35 15l-74 73q-23 6 -32 24.5t-11 35.5q-4 4 -4 14zM88 39q0 -10 8 -24.5t25 -14.5h442q59 0 83 21.5t44 64.5l383 592l-35 -244h-75l-13 -20 q-12 -21 -29.5 -50.5t-37 -60.5t-31.5 -49v-2q-4 -4 -6 -10v-4q0 -4 -2 -11h164q-6 -41 -10.5 -81t-5.5 -72.5t2 -53t12 -20.5h1163q23 0 35 21.5t20 31.5l41 109q10 27 11 43t-21 20h-576q-27 0 -44 13.5t-15 29.5l41 115q10 25 28.5 33t45.5 8h456q20 0 33.5 15.5 t24.5 37.5l39 109q10 27 11 43t-22 20h-467q-39 0 -42 10.5t6 32.5l108 299q20 25 29.5 31t36.5 6h69q23 -12 15 -45l-35 -92q-12 -37 -5 -59.5t31 -22.5h422q20 0 48 19.5t44 60.5l107 291q18 53 7 64t-52 11h-1663q-23 0 -48.5 -4t-37.5 -24l-748 -1141q-12 -14 -14 -23 q-6 -16 0 -24z" />
<glyph unicode="&#xe7;" d="M94 133q0 16 2 28.5t6 22.5l330 899q12 35 44 70t72 63.5t81 47t76 18.5h884q47 0 83 -20.5t54 -57.5l66 -63q39 -39 39 -101q0 -16 -2 -31.5t-10 -33.5h-2l-97 -270q-18 -47 -45.5 -70t-56.5 -23h-422q-27 0 -41 15l-76 75q-25 10 -35 35l-100 -282q37 31 64 30h422 q39 0 55 -41l69 -69q-2 0 -3 1l-1 1l6 -4q18 -18 19 -47q0 -16 -8 -39l-76 -209q-12 -31 -39 -64.5t-63.5 -61.5t-78.5 -46.5t-83 -18.5h-258l-88 -245q-10 -29 -37 -37t-41 -11h-318q-16 2 -26 13l-76 76q-20 4 -27.5 18t-7.5 33q0 4 1 6t1 6v18l31 80q8 25 18 43h-59 q-55 0 -102 47l-60 60q-35 18 -59.5 55t-24.5 84zM124 107.5q7 -31.5 26.5 -56t46 -38t51.5 -13.5h391l-37 -102h-141q-25 -4 -35 -20.5t-20 -43.5l-29 -74q-2 -10 -3 -30.5t21 -22.5h314q10 2 31.5 8t29.5 27l94 258h271q39 0 77.5 16.5t72.5 42t59.5 57t35.5 60.5l76 209 q14 35 2 54.5t-28 19.5h-422q-16 0 -43 -19.5t-41 -54.5l-41 -115q-10 -27 -37 -36t-60 -9q-20 0 -36.5 10.5t-18.5 34.5l260 717q10 23 39 33t49 10q25 0 49.5 -7t12.5 -44l-64 -172q-14 -39 -6 -60.5t33 -21.5h422q51 0 84 80l98 270q14 39 10 72t-21.5 57.5t-46 37.5 t-61.5 13h-884q-31 0 -69 -16t-74 -42t-64.5 -58.5t-40.5 -63.5l-328 -899q-12 -37 -5 -68.5z" />
<glyph unicode="&#xe8;" horiz-adv-x="1497" d="M59 45q0 8 2 20.5t7 22.5l403 1100q14 43 49 68.5t58 25.5h559l-45 43q-16 6 -29.5 21.5t-15.5 39.5l-46 195q27 29 55.5 49.5t71.5 20.5h191q53 0 74 -49l71 -70q12 -12 19 -33l39 -186q-4 -10 -7.5 -17.5t-7.5 -13.5h207q37 0 57.5 -6t24.5 -31l78 -76q10 -10 10 -32 q0 -18 -14 -56l-107 -293q-18 -47 -52 -69.5t-58 -22.5h-422q-25 0 -39 15l-76 73q-25 10 -35 35l-53 -143h371q39 -12 41 -37l78 -76q10 -10 10 -28q0 -10 -5 -22.5t-10 -27.5h-2l-41 -114q-12 -27 -28.5 -43.5t-42.5 -16.5h-457q-20 0 -33.5 -6t-21.5 -22h-2l-11 -31h502 q39 -12 41 -37l78 -76q10 -10 10 -28q0 -10 -5 -22.5t-9 -27.5l-43 -112l-2 -2q-10 -16 -26.5 -38t-43.5 -22h-1163q-20 0 -35 15l-76 75q-16 6 -29.5 22.5t-13.5 45.5zM92 20.5q12 -20.5 29 -20.5h1163q23 0 35 21.5t20 31.5l41 109q10 27 11.5 43t-21.5 20h-575 q-27 0 -44.5 13.5t-15.5 29.5l41 115q10 25 28.5 33t45.5 8h457q20 0 33.5 15.5t23.5 37.5l39 109q10 27 11 43t-21 20h-467q-39 0 -42 10.5t5 32.5l108 299q20 25 29.5 31t36.5 6h70q23 -12 14 -45l-35 -92q-12 -37 -5 -59.5t32 -22.5h422q20 0 47.5 19.5t44.5 60.5 l106 291q18 53 7 64t-52 11h-1136q-16 0 -43 -20.5t-39 -54.5l-404 -1104q-12 -35 0 -55.5zM1030 1573l43 -178q2 -23 16.5 -35t30.5 -12h234q37 0 55 55l-39 184q-10 37 -51 37h-191q-35 0 -57 -15.5t-41 -35.5z" />
<glyph unicode="&#xe9;" horiz-adv-x="1497" d="M59 45q0 8 2 20.5t7 22.5l403 1100q14 43 49 68.5t58 25.5h483l-41 39q-33 6 -33 49q0 18 6 43l183 193q39 45 98 45h190q37 0 53.5 -13.5t26.5 -33.5l68 -68h-2l6 -4q10 -10 16 -24.5t10 -30.5l-184 -189h2l-6 -6h260q37 0 57.5 -6t24.5 -31l78 -76q10 -10 10 -32 q0 -18 -14 -56l-107 -293q-18 -47 -52 -69.5t-58 -22.5h-422q-25 0 -39 15l-76 73q-25 10 -35 35l-53 -143h371q39 -12 41 -37l78 -76q10 -10 10 -28q0 -10 -5 -22.5t-10 -27.5h-2l-41 -114q-12 -27 -28.5 -43.5t-42.5 -16.5h-457q-20 0 -33.5 -6t-21.5 -22h-2l-11 -31h502 q39 -12 41 -37l78 -76q10 -10 10 -28q0 -10 -5 -22.5t-9 -27.5l-43 -112l-2 -2q-10 -16 -26.5 -38t-43.5 -22h-1163q-20 0 -35 15l-76 75q-16 6 -29.5 22.5t-13.5 45.5zM92 20.5q12 -20.5 29 -20.5h1163q23 0 35 21.5t20 31.5l41 109q10 27 11.5 43t-21.5 20h-575 q-27 0 -44.5 13.5t-15.5 29.5l41 115q10 25 28.5 33t45.5 8h457q20 0 33.5 15.5t23.5 37.5l39 109q10 27 11 43t-21 20h-467q-39 0 -42 10.5t5 32.5l108 299q20 25 29.5 31t36.5 6h70q23 -12 14 -45l-35 -92q-12 -37 -5 -59.5t32 -22.5h422q20 0 47.5 19.5t44.5 60.5 l106 291q18 53 7 64t-52 11h-1136q-16 0 -43 -20.5t-39 -54.5l-404 -1104q-12 -35 0 -55.5zM1020 1403q-18 -55 14 -55h234q16 0 39.5 12t44.5 35l174 178q-6 20 -16.5 35.5t-45.5 15.5h-190q-47 0 -80 -37z" />
<glyph unicode="&#xea;" horiz-adv-x="1497" d="M59 45q0 8 2 20.5t7 22.5l403 1100q14 43 49 68.5t58 25.5h290l-41 39q-33 6 -32 49q0 18 6 43l178 178q18 18 56 39t67 21h397q41 0 59.5 -14.5t26.5 -37.5l68 -65q-2 0 -3 1l-1 1l6 -4q10 -10 15 -22.5t9 -24.5l-65 65h-2l67 -65l43 -172l-7 -17.5t-7 -13.5h6 q37 0 57.5 -6t24.5 -31l78 -76q10 -10 10 -32q0 -18 -14 -56l-107 -293q-18 -47 -52 -69.5t-58 -22.5h-422q-25 0 -39 15l-76 73q-25 10 -35 35l-53 -143h371q39 -12 41 -37l78 -76q10 -10 10 -28q0 -10 -5 -22.5t-10 -27.5h-2l-41 -114q-12 -27 -28.5 -43.5t-42.5 -16.5 h-457q-20 0 -33.5 -6t-21.5 -22h-2l-11 -31h502q39 -12 41 -37l78 -76q10 -10 10 -28q0 -10 -5 -22.5t-9 -27.5l-43 -112l-2 -2q-10 -16 -26.5 -38t-43.5 -22h-1163q-20 0 -35 15l-76 75q-16 6 -29.5 22.5t-13.5 45.5zM92 20.5q12 -20.5 29 -20.5h1163q23 0 35 21.5t20 31.5 l41 109q10 27 11.5 43t-21.5 20h-575q-27 0 -44.5 13.5t-15.5 29.5l41 115q10 25 28.5 33t45.5 8h457q20 0 33.5 15.5t23.5 37.5l39 109q10 27 11 43t-21 20h-467q-39 0 -42 10.5t5 32.5l108 299q20 25 29.5 31t36.5 6h70q23 -12 14 -45l-35 -92q-12 -37 -5 -59.5t32 -22.5 h422q20 0 47.5 19.5t44.5 60.5l106 291q18 53 7 64t-52 11h-1136q-16 0 -43 -20.5t-39 -54.5l-404 -1104q-12 -35 0 -55.5zM827 1403q-18 -55 15 -55h233q16 0 40 12t44 35l96 98l25 -98q10 -47 41 -47h233q37 0 56 55l-43 170q-6 20 -19.5 35.5t-48.5 15.5h-397 q-23 0 -55.5 -17.5t-49.5 -33.5zM1262 1282h79l-41 41l-34 -35h2z" />
<glyph unicode="&#xeb;" horiz-adv-x="1497" d="M59 45q0 8 2 20.5t7 22.5l403 1100q14 43 49 68.5t58 25.5h290l-41 39q-33 6 -32 49q0 16 6 41l61 162q10 37 38 57.5t44 20.5h246q14 0 27.5 -10.5t17.5 -28.5l74 -72l4 -8l16 41q10 37 38 57.5t44 20.5h246q31 0 45 -37l74 -74q14 -14 14 -37q0 -6 -1 -9t-1 -7 l-68 -182q-4 -8 -5 -13.5t-5 -9.5h4q37 0 57.5 -6t24.5 -31l78 -76q10 -10 10 -32q0 -18 -14 -56l-107 -293q-18 -47 -52 -69.5t-58 -22.5h-422q-25 0 -39 15l-76 73q-25 10 -35 35l-53 -143h371q39 -12 41 -37l78 -76q10 -10 10 -28q0 -10 -5 -22.5t-10 -27.5h-2l-41 -114 q-12 -27 -28.5 -43.5t-42.5 -16.5h-457q-20 0 -33.5 -6t-21.5 -22h-2l-11 -31h502q39 -12 41 -37l78 -76q10 -10 10 -28q0 -10 -5 -22.5t-9 -27.5l-43 -112l-2 -2q-10 -16 -26.5 -38t-43.5 -22h-1163q-20 0 -35 15l-76 75q-16 6 -29.5 22.5t-13.5 45.5zM92 20.5 q12 -20.5 29 -20.5h1163q23 0 35 21.5t20 31.5l41 109q10 27 11.5 43t-21.5 20h-575q-27 0 -44.5 13.5t-15.5 29.5l41 115q10 25 28.5 33t45.5 8h457q20 0 33.5 15.5t23.5 37.5l39 109q10 27 11 43t-21 20h-467q-39 0 -42 10.5t5 32.5l108 299q20 25 29.5 31t36.5 6h70 q23 -12 14 -45l-35 -92q-12 -37 -5 -59.5t32 -22.5h422q20 0 47.5 19.5t44.5 60.5l106 291q18 53 7 64t-52 11h-1136q-16 0 -43 -20.5t-39 -54.5l-404 -1104q-12 -35 0 -55.5zM827 1403q-18 -55 15 -55h245q37 0 56 55l63 170q8 25 1 38t-17 13h-246q-10 0 -27.5 -13.5 t-25.5 -37.5zM1243 1282h92l-41 39q-20 6 -28 20l-13 -36q-4 -8 -5 -13.5t-5 -9.5zM1294 1403q-18 -55 15 -55h245q37 0 56 55l63 170q8 25 1 38t-17 13h-246q-10 0 -27.5 -13.5t-25.5 -37.5z" />
<glyph unicode="&#xec;" horiz-adv-x="800" d="M57 39q0 -49 37 -62l76 -75q14 -14 41 -15h457q66 0 104 95l397 1097q8 23 9 39q0 29 -19 51l-65 66h4q47 0 76 78l-39 186q-6 20 -19 33l-72 70q-20 49 -73 49h-191q-43 0 -69.5 -18.5t-48.5 -43.5l-7 -20l43 -183q2 -25 15.5 -40t29.5 -21l45 -43h-213 q-23 0 -57.5 -26.5t-50.5 -69.5l-395 -1092q-10 -18 -12.5 -31.5t-2.5 -23.5zM86 21.5q-8 21.5 8 60.5l398 1096q14 35 40.5 56t42.5 21h457q16 0 28.5 -21.5t-1.5 -55.5l-397 -1096q-33 -82 -87 -82h-456q-25 0 -33 21.5zM682 1573q18 20 40.5 35.5t57.5 15.5h191 q41 0 51 -37l39 -184q-18 -55 -55 -55h-234q-16 0 -30.5 12t-16.5 35z" />
<glyph unicode="&#xed;" horiz-adv-x="800" d="M59 39q0 10 2 23.5t13 31.5l395 1092q16 43 51 69.5t58 26.5h118l-41 39q-33 6 -32 49q0 18 6 43l182 193q39 45 98 45h191q37 0 53 -13.5t27 -33.5l67 -68h-2l6 -4q10 -10 16.5 -24.5t10.5 -30.5l-184 -189h2q-6 -6 -11.5 -12t-11.5 -10q6 -6 14 -23l74 -74 q18 -23 19 -51q0 -16 -9 -39l-397 -1097q-39 -94 -104 -95h-457q-27 0 -41 15l-76 75q-37 12 -37 62zM88 21.5q8 -21.5 33 -21.5h457q53 0 86 82l397 1096q14 35 2 56t-29 21h-456q-16 0 -43 -21.5t-41 -55.5l-398 -1096q-16 -39 -8 -60.5zM655 1403q-18 -55 15 -55h233 q16 0 40 12t44 35l174 178q-6 20 -16 35.5t-45 15.5h-191q-47 0 -80 -37z" />
<glyph unicode="&#xee;" horiz-adv-x="800" d="M59 39q0 10 2 23.5t13 31.5l395 1092q10 23 25.5 42t31.5 32l-61 61q-33 6 -33 49q0 18 6 43l178 178q18 18 56.5 39t66.5 21h398q41 0 59 -14.5t27 -37.5l69 -67q10 -10 15.5 -22.5t9.5 -24.5l43 -172q-29 -78 -76 -78h-188l65 -66q18 -23 19 -51q0 -16 -9 -39 l-397 -1097q-39 -94 -104 -95h-457q-27 0 -41 15l-76 75q-37 12 -37 62zM88 21.5q8 -21.5 33 -21.5h457q53 0 86 82l397 1096q14 35 2 56t-29 21h-456q-16 0 -43 -21.5t-41 -55.5l-398 -1096q-16 -39 -8 -60.5zM465 1403q-18 -55 14 -55h234q16 0 39.5 12t44.5 35l96 98 l25 -98q10 -47 40 -47h234q37 0 55 55l-43 170q-6 20 -19.5 35.5t-47.5 15.5h-398q-23 0 -55.5 -17.5t-48.5 -33.5zM899 1282h80l-41 41l-35 -35h2z" />
<glyph unicode="&#xef;" horiz-adv-x="800" d="M59 39q0 10 2 23.5t13 31.5l395 1092q10 23 25.5 42t31.5 32l-61 61q-33 6 -33 49q0 16 6 41l62 162q10 37 37.5 57.5t44.5 20.5h245q33 0 43 -37l2 -2l72 -70l2 -2l4 -8l17 41q10 37 37.5 57.5t44.5 20.5h245q14 0 27.5 -10.5t17.5 -28.5l74 -72q14 -14 14 -37 q0 -6 -1 -9t-1 -7l-67 -182q-20 -70 -74 -70h-188l65 -66q18 -23 19 -51q0 -16 -9 -39l-397 -1097q-39 -94 -104 -95h-457q-27 0 -41 15l-76 75q-37 12 -37 62zM88 21.5q8 -21.5 33 -21.5h457q53 0 86 82l397 1096q14 35 2 56t-29 21h-456q-16 0 -43 -21.5t-41 -55.5 l-398 -1096q-16 -39 -8 -60.5zM465 1403q-18 -55 14 -55h246q37 0 55 55l64 170q8 25 1 38t-18 13h-245q-10 0 -27.5 -13.5t-26.5 -37.5zM881 1282h92l-41 39q-20 6 -29 20l-12 -36q-4 -8 -5 -13.5t-5 -9.5zM932 1403q-18 -55 14 -55h246q37 0 55 55l64 170q8 25 1 38 t-18 13h-245q-10 0 -27.5 -13.5t-26.5 -37.5z" />
<glyph unicode="&#xf0;" d="M92 127q0 -43 18.5 -80t57.5 -55l63 -64q41 -41 107 -41h887q27 0 65.5 14.5t78.5 41t74 60.5t46 75l326 897h2q10 23 10 51q0 33 -13.5 61.5t-35.5 51.5l-58 57q-20 37 -55 61.5t-76 24.5h-884q-37 0 -78 -15.5t-80 -41t-71 -62.5t-46 -80l-49 -129q-6 -14 -8 -28.5 t-2 -26.5q0 -47 37 -61l57 -56h-16q-59 0 -108.5 -43t-76.5 -112l-162 -439q-6 -14 -8 -29.5t-2 -31.5zM119 115.5q-2 31.5 8 60.5l162 442q23 61 65.5 99.5t94.5 38.5h571q39 6 55 43l68 188q8 23 -13.5 33t-42.5 10q-23 0 -54.5 -8t-43.5 -43l-16 -43q-14 -39 -36 -56.5 t-46 -17.5h-459q-23 0 -32 19.5t6 60.5l49 133q14 39 42.5 72t63.5 57.5t73 37.5t71 13h884q29 0 55.5 -16t44 -42t23.5 -58.5t-6 -63.5l-328 -899q-12 -37 -42.5 -68.5t-67.5 -56t-74 -38t-61 -13.5h-887q-39 0 -66.5 16.5t-43 42t-17.5 57zM731 270q-10 -27 10.5 -36 t53.5 -9q20 0 43.5 10.5t44.5 34.5l82 224q4 31 -23 36h-74q-35 -6 -57 -43z" />
<glyph unicode="&#xf1;" horiz-adv-x="1542" d="M59 39q0 10 2 23.5t13 31.5l397 1094q14 43 49 68.5t58 25.5h200l-41 39q-33 6 -32 49q0 18 6 43l178 178q18 18 56 39t67 21h307q39 0 57 -41l51 -49l25 24q29 33 59.5 49.5t53.5 16.5h194q39 0 45 -35l76 -74q12 -12 12 -33q0 -20 -6 -41l-174 -176q-8 -8 -12 -10h74 q16 0 31.5 -11t23.5 -34l72 -70q20 -20 20 -51q0 -14 -8 -37l-371 -1022q-16 -43 -46 -68.5t-60 -25.5h-418q-23 0 -41 19l-72 69q-14 6 -27.5 19.5t-19.5 35.5l-14 74l-70 -198q-39 -94 -104 -95h-457q-27 0 -41 15l-76 75q-37 12 -37 62zM88 21.5q8 -21.5 33 -21.5h457 q53 0 86 82l139 387q4 -4 6 -4h2l10 -6l62 -340q6 -23 19 -33t24 -10h417q25 0 49.5 22.5t39.5 59.5l370 1020q14 35 1 56t-29 21h-418q-16 0 -43 -21.5t-41 -55.5l-162 -447l-29 449q-6 76 -34 75h-469q-16 0 -43 -20.5t-39 -54.5l-400 -1098q-16 -39 -8 -60.5zM737 1403 q-18 -55 15 -55h233q16 0 40 12t44 35l96 98l25 -98q10 -47 41 -47h268q23 0 56.5 17t50.5 34l168 170q18 55 -15 55h-194q-16 0 -40 -12.5t-44 -34.5l-97 -98l-24 98q-10 47 -41 47h-307q-23 0 -55.5 -17.5t-49.5 -33.5zM1100 1237l67 -66q20 -20 27 -81l2 -43l51 139 q12 33 39 59l-1 1t-1 3l-74 74l-34 -35h2q-18 -20 -39 -32.5t-39 -18.5z" />
<glyph unicode="&#xf2;" d="M94 133q0 16 2 28.5t6 22.5l330 899q12 35 44 70t72 63.5t81 47t76 18.5h432l-45 43q-16 6 -29.5 21.5t-15.5 39.5l-46 195q27 29 55.5 49.5t71.5 20.5h191q53 0 74 -49l71 -70q12 -12 19 -33l39 -186q-4 -10 -7.5 -17.5t-7.5 -13.5h82q47 0 83 -20.5t54 -57.5l66 -63 q39 -39 39 -101q0 -16 -2 -31.5t-10 -33.5h-2l-326 -897q-12 -31 -39 -64.5t-63.5 -61.5t-78.5 -46.5t-83 -18.5h-887q-55 0 -102 47l-60 60q-35 18 -59.5 55t-24.5 84zM124 107.5q7 -31.5 26.5 -56t46 -38t51.5 -13.5h887q39 0 77.5 16.5t72.5 42t59.5 57t35.5 60.5 l328 899q14 39 10 72t-21.5 57.5t-46 37.5t-61.5 13h-884q-31 0 -69 -16t-74 -42t-64.5 -58.5t-40.5 -63.5l-328 -899q-12 -37 -5 -68.5zM731 270l260 717q10 23 39 33t49 10q25 0 49.5 -7t12.5 -44l-258 -709q-10 -27 -37 -36t-60 -9q-20 0 -36.5 10.5t-18.5 34.5z M1030 1573l43 -178q2 -23 16.5 -35t30.5 -12h234q37 0 55 55l-39 184q-10 37 -51 37h-191q-35 0 -57 -15.5t-41 -35.5z" />
<glyph unicode="&#xf3;" d="M94 133q0 16 2 28.5t6 22.5l330 899q12 35 44 70t72 63.5t81 47t76 18.5h356l-41 39q-33 6 -33 49q0 18 6 43l183 193q39 45 98 45h190q37 0 53.5 -13.5t26.5 -33.5l68 -68h-2l6 -4q10 -10 16 -24.5t10 -30.5l-184 -189h2l-6 -6h135q47 0 83 -20.5t54 -57.5l66 -63 q39 -39 39 -101q0 -16 -2 -31.5t-10 -33.5h-2l-326 -897q-12 -31 -39 -64.5t-63.5 -61.5t-78.5 -46.5t-83 -18.5h-887q-55 0 -102 47l-60 60q-35 18 -59.5 55t-24.5 84zM124 107.5q7 -31.5 26.5 -56t46 -38t51.5 -13.5h887q39 0 77.5 16.5t72.5 42t59.5 57t35.5 60.5 l328 899q14 39 10 72t-21.5 57.5t-46 37.5t-61.5 13h-884q-31 0 -69 -16t-74 -42t-64.5 -58.5t-40.5 -63.5l-328 -899q-12 -37 -5 -68.5zM731 270l260 717q10 23 39 33t49 10q25 0 49.5 -7t12.5 -44l-258 -709q-10 -27 -37 -36t-60 -9q-20 0 -36.5 10.5t-18.5 34.5z M1020 1403q-18 -55 14 -55h234q16 0 39.5 12t44.5 35l174 178q-6 20 -16.5 35.5t-45.5 15.5h-190q-47 0 -80 -37z" />
<glyph unicode="&#xf4;" d="M94 133q0 16 2 28.5t6 22.5l330 899q12 35 44 70t72 63.5t81 47t76 18.5h163l-41 39q-33 6 -32 49q0 18 6 43l178 178q18 18 56 39t67 21h397q41 0 59.5 -14.5t26.5 -37.5l68 -65q-2 0 -3 1l-1 1l6 -4q10 -10 15 -22.5t9 -24.5l43 -172q-14 -37 -34 -62q23 -16 38 -47 l66 -63q39 -39 39 -101q0 -16 -2 -31.5t-10 -33.5h-2l-326 -897q-12 -31 -39 -64.5t-63.5 -61.5t-78.5 -46.5t-83 -18.5h-887q-55 0 -102 47l-60 60q-35 18 -59.5 55t-24.5 84zM124 107.5q7 -31.5 26.5 -56t46 -38t51.5 -13.5h887q39 0 77.5 16.5t72.5 42t59.5 57t35.5 60.5 l328 899q14 39 10 72t-21.5 57.5t-46 37.5t-61.5 13h-884q-31 0 -69 -16t-74 -42t-64.5 -58.5t-40.5 -63.5l-328 -899q-12 -37 -5 -68.5zM731 270l260 717q10 23 39 33t49 10q25 0 49.5 -7t12.5 -44l-258 -709q-10 -27 -37 -36t-60 -9q-20 0 -36.5 10.5t-18.5 34.5z M827 1403q-18 -55 15 -55h233q16 0 40 12t44 35l96 98l25 -98q10 -47 41 -47h233q37 0 56 55l-43 170q-6 20 -19.5 35.5t-48.5 15.5h-397q-23 0 -55.5 -17.5t-49.5 -33.5zM1262 1282h79l-41 41l-34 -35h2z" />
<glyph unicode="&#xf5;" d="M94 133q0 16 2 28.5t6 22.5l330 899q12 35 44 70t72 63.5t81 47t76 18.5h55l-41 39q-33 6 -33 49q0 18 6 43l178 178q18 18 56.5 39t66.5 21h307q39 0 58 -41l51 -49l25 24q29 33 59.5 49.5t52.5 16.5h195q39 0 45 -35l76 -74q12 -12 12 -33q0 -20 -6 -41l-174 -176 q-6 -6 -14.5 -13t-18.5 -11q45 -23 65 -64l66 -63q39 -39 39 -101q0 -16 -2 -31.5t-10 -33.5h-2l-326 -897q-12 -31 -39 -64.5t-63.5 -61.5t-78.5 -46.5t-83 -18.5h-887q-55 0 -102 47l-60 60q-35 18 -59.5 55t-24.5 84zM124 107.5q7 -31.5 26.5 -56t46 -38t51.5 -13.5h887 q39 0 77.5 16.5t72.5 42t59.5 57t35.5 60.5l328 899q14 39 10 72t-21.5 57.5t-46 37.5t-61.5 13h-884q-31 0 -69 -16t-74 -42t-64.5 -58.5t-40.5 -63.5l-328 -899q-12 -37 -5 -68.5zM719 1403q-18 -55 14 -55h234q16 0 39.5 12t44.5 35l96 98l24 -98q10 -47 41 -47h269 q23 0 56.5 17t49.5 34l168 170q18 55 -14 55h-195q-16 0 -39.5 -12.5t-44.5 -34.5l-96 -98l-25 98q-10 47 -41 47h-307q-23 0 -55.5 -17.5t-48.5 -33.5zM731 270l260 717q10 23 39 33t49 10q25 0 49.5 -7t12.5 -44l-258 -709q-10 -27 -37 -36t-60 -9q-20 0 -36.5 10.5 t-18.5 34.5zM1153 1282h80l-41 41l-35 -35h2z" />
<glyph unicode="&#xf6;" d="M94 133q0 16 2 28.5t6 22.5l330 899q12 35 44 70t72 63.5t81 47t76 18.5h163l-41 39q-33 6 -32 49q0 16 6 41l61 162q10 37 38 57.5t44 20.5h246q33 0 43 -37l2 -2l74 -72l4 -8l16 41q10 37 38 57.5t44 20.5h246q31 0 45 -37l74 -74q14 -14 14 -37q0 -6 -1 -9t-1 -7 l-68 -182q-12 -37 -30 -56l20 -20t16 -25l66 -63q39 -39 39 -101q0 -16 -2 -31.5t-10 -33.5h-2l-326 -897q-12 -31 -39 -64.5t-63.5 -61.5t-78.5 -46.5t-83 -18.5h-887q-55 0 -102 47l-60 60q-35 18 -59.5 55t-24.5 84zM124 107.5q7 -31.5 26.5 -56t46 -38t51.5 -13.5h887 q39 0 77.5 16.5t72.5 42t59.5 57t35.5 60.5l328 899q14 39 10 72t-21.5 57.5t-46 37.5t-61.5 13h-884q-31 0 -69 -16t-74 -42t-64.5 -58.5t-40.5 -63.5l-328 -899q-12 -37 -5 -68.5zM731 270l260 717q10 23 39 33t49 10q25 0 49.5 -7t12.5 -44l-258 -709q-10 -27 -37 -36 t-60 -9q-20 0 -36.5 10.5t-18.5 34.5zM827 1403q-18 -55 15 -55h245q37 0 56 55l63 170q8 25 1 38t-17 13h-246q-10 0 -27.5 -13.5t-25.5 -37.5zM1243 1282h92l-41 39q-20 6 -28 20l-13 -36q-4 -8 -5 -13.5t-5 -9.5zM1294 1403q-18 -55 15 -55h245q37 0 56 55l63 170 q8 25 1 38t-17 13h-246q-10 0 -27.5 -13.5t-25.5 -37.5z" />
<glyph unicode="&#xf7;" horiz-adv-x="1269" d="M205 444q0 8 3 21.5t11 30.5l39 110l10 10q14 20 30.5 39t39.5 19h391l-20 18q-33 6 -33 47q0 8 2 20.5t8 26.5l62 166q14 33 37.5 51.5t39.5 18.5h246q14 0 27.5 -9t17.5 -26l2 -2l76 -74q12 -12 12 -34q0 -6 -2 -15.5t-6 -17.5h-2l-59 -170h163q18 0 28.5 -9.5 t14.5 -21.5l80 -78q6 -6 8.5 -15t2.5 -20q0 -6 -1 -11t-1 -9v-6l-41 -117q-12 -31 -25.5 -51.5t-46.5 -26.5h-406l43 -43q12 -12 13 -35q0 -6 -2 -15t-6 -17h-3l-59 -170q-29 -68 -74 -68h-245q-20 0 -33 12l-76 74q-33 6 -33 47q0 8 2 20.5t9 26.5l61 166v2h-168 q-18 2 -29 13l-75 75q-33 8 -33 47zM231.5 443q-2.5 -17 20.5 -21h971q25 4 36 21.5t21 43.5l39 109q2 10 3 30.5t-22 20.5h-962q-23 0 -35 -22.5t-22 -32.5l-37 -105q-10 -27 -12.5 -44zM473 129q-23 -55 14 -55h246q33 0 55 55l62 170q10 25 2 38t-18 13h-246 q-10 0 -26.5 -13t-26.5 -38zM711 774q-23 -55 14 -55h246q33 0 55 55l61 170q10 25 2 38t-18 13h-246q-10 0 -26.5 -13t-26.5 -38z" />
<glyph unicode="&#xf8;" d="M94 133q0 16 2 28.5t6 22.5l330 899q12 35 44 70t72 63.5t81 47t76 18.5h884q47 0 83 -20.5t54 -57.5l66 -63q39 -39 39 -101q0 -16 -2 -31.5t-10 -33.5h-2l-326 -897q-12 -31 -39 -64.5t-63.5 -61.5t-78.5 -46.5t-83 -18.5h-887q-55 0 -102 47l-60 60q-35 18 -59.5 55 t-24.5 84zM124 107.5q7 -31.5 26.5 -56t46 -38t51.5 -13.5h887q39 0 77.5 16.5t72.5 42t59.5 57t35.5 60.5l328 899q14 39 10 72t-21.5 57.5t-46 37.5t-61.5 13h-884q-31 0 -69 -16t-74 -42t-64.5 -58.5t-40.5 -63.5l-328 -899q-12 -37 -5 -68.5zM731 270l17 47l241 244 l-106 -291q-10 -27 -37 -36t-60 -9q-20 0 -36.5 10.5t-18.5 34.5zM885 692l106 295q10 23 39 33t49 10q25 0 49.5 -7t12.5 -44l-11 -29z" />
<glyph unicode="&#xf9;" d="M94 133q0 16 2 28.5t6 22.5l369 1004q14 43 49 68.5t58 25.5h456q16 0 32.5 -11t25.5 -34l69 -68q6 -6 15 -22l14 41q10 29 27 47h-5q-29 0 -47 18l-73 72q-16 8 -29.5 22.5t-15.5 38.5l-46 195q27 29 55.5 49.5t71.5 20.5h191q53 0 74 -49l71 -70q12 -12 19 -33l39 -186 q-4 -10 -7.5 -17.5t-7.5 -13.5h211q16 0 32.5 -11t25.5 -34l69 -68q20 -20 21 -51q0 -20 -8 -39h-3l-364 -1001q-12 -31 -39 -64.5t-63.5 -61.5t-78.5 -46.5t-83 -18.5h-887q-55 0 -102 47l-60 60q-35 18 -59.5 55t-24.5 84zM124 107.5q7 -31.5 26.5 -56t46 -38t51.5 -13.5 h887q39 0 77.5 16.5t72.5 42t59.5 57t35.5 60.5l367 1004q12 35 0 55t-29 20h-422q-16 0 -42.5 -20.5t-39.5 -54.5l-331 -910q-10 -27 -37 -36t-60 -9q-20 0 -36.5 10.5t-18.5 34.5l332 910q12 35 0 55t-29 20h-456q-16 0 -43 -20.5t-39 -54.5l-367 -1004q-12 -37 -5 -68.5z M1030 1573l43 -178q2 -23 16.5 -35t30.5 -12h234q37 0 55 55l-39 184q-10 37 -51 37h-191q-35 0 -57 -15.5t-41 -35.5z" />
<glyph unicode="&#xfa;" d="M94 133q0 16 2 28.5t6 22.5l369 1004q14 43 49 68.5t58 25.5h456q16 0 31.5 -11t24.5 -32l2 -2l69 -68q6 -6 15 -22l14 41q10 29 27 47h-91q-18 0 -28 10l-78 76q-33 6 -33 49q0 18 6 43l183 193q39 45 98 45h190q37 0 53.5 -13.5t26.5 -33.5l68 -68h-2l6 -4 q10 -10 16 -24.5t10 -30.5l-184 -189h2l-6 -6h264q16 0 31.5 -11t24.5 -32l2 -2l67 -66q-2 0 -3 1l-1 2l6 -5q20 -20 21 -51q0 -20 -8 -39h-3l-364 -1001q-12 -31 -39 -64.5t-63.5 -61.5t-78.5 -46.5t-83 -18.5h-887q-55 0 -102 47l-60 60q-35 18 -59.5 55t-24.5 84z M124 107.5q7 -31.5 26.5 -56t46 -38t51.5 -13.5h887q39 0 77.5 16.5t72.5 42t59.5 57t35.5 60.5l367 1004q12 35 0 55t-29 20h-422q-16 0 -42.5 -20.5t-39.5 -54.5l-331 -910q-10 -27 -37 -36t-60 -9q-20 0 -36.5 10.5t-18.5 34.5l332 910q12 35 0 55t-29 20h-456 q-16 0 -43 -20.5t-39 -54.5l-367 -1004q-12 -37 -5 -68.5zM1020 1403q-18 -55 14 -55h234q16 0 39.5 12t44.5 35l174 178q-6 20 -16.5 35.5t-45.5 15.5h-190q-47 0 -80 -37z" />
<glyph unicode="&#xfb;" d="M94 133q0 16 2 28.5t6 22.5l369 1004q14 43 49 68.5t58 25.5h290l-41 39q-33 6 -32 49q0 18 6 43l178 178q18 18 56 39t67 21h397q41 0 59.5 -14.5t26.5 -37.5l70 -67q10 -10 15 -22.5t9 -24.5l43 -172l-7 -17.5t-7 -13.5h10q16 0 31.5 -11t24.5 -32l2 -2l69 -68 q20 -20 21 -51q0 -20 -8 -39h-3l-364 -1001q-12 -31 -39 -64.5t-63.5 -61.5t-78.5 -46.5t-83 -18.5h-887q-55 0 -102 47l-60 60q-35 18 -59.5 55t-24.5 84zM124 107.5q7 -31.5 26.5 -56t46 -38t51.5 -13.5h887q39 0 77.5 16.5t72.5 42t59.5 57t35.5 60.5l367 1004 q12 35 0 55t-29 20h-422q-16 0 -42.5 -20.5t-39.5 -54.5l-331 -910q-10 -27 -37 -36t-60 -9q-20 0 -36.5 10.5t-18.5 34.5l332 910q12 35 0 55t-29 20h-456q-16 0 -43 -20.5t-39 -54.5l-367 -1004q-12 -37 -5 -68.5zM827 1403q-18 -55 15 -55h233q16 0 40 12t44 35l96 98 l25 -98q10 -47 41 -47h233q37 0 56 55l-43 170q-6 20 -19.5 35.5t-48.5 15.5h-397q-23 0 -55.5 -17.5t-49.5 -33.5zM1096 1235l65 -66q6 -6 15 -22l14 41q14 43 49 68.5t57 25.5h45l-41 41l-34 -35h2q-23 -27 -50.5 -40t-50.5 -13h-71z" />
<glyph unicode="&#xfc;" d="M94 133q0 16 2 28.5t6 22.5l369 1004q14 43 49 68.5t58 25.5h290l-41 39q-33 6 -32 49q0 16 6 41l61 162q10 37 38 57.5t44 20.5h246q14 0 27.5 -10.5t17.5 -28.5l72 -70l2 -2l4 -8l16 41q10 37 38 57.5t44 20.5h246q31 0 45 -37l74 -74q14 -14 14 -37q0 -6 -1 -9t-1 -7 l-68 -182q-4 -8 -5 -13.5t-5 -9.5h8q16 0 32.5 -11t25.5 -34l67 -66q-2 0 -3 1l-1 2l6 -5q20 -20 21 -51q0 -20 -8 -39h-3l-364 -1001q-12 -31 -39 -64.5t-63.5 -61.5t-78.5 -46.5t-83 -18.5h-887q-55 0 -102 47l-60 60q-35 18 -59.5 55t-24.5 84zM124 107.5 q7 -31.5 26.5 -56t46 -38t51.5 -13.5h887q39 0 77.5 16.5t72.5 42t59.5 57t35.5 60.5l367 1004q12 35 0 55t-29 20h-422q-16 0 -42.5 -20.5t-39.5 -54.5l-331 -910q-10 -27 -37 -36t-60 -9q-20 0 -36.5 10.5t-18.5 34.5l332 910q12 35 0 55t-29 20h-456q-16 0 -43 -20.5 t-39 -54.5l-367 -1004q-12 -37 -5 -68.5zM827 1403q-18 -55 15 -55h245q37 0 56 55l63 170q8 25 1 38t-17 13h-246q-10 0 -27.5 -13.5t-25.5 -37.5zM1096 1235l63 -64q-2 0 -3 1l-1 2l6 -5q6 -6 15 -22l14 41q14 43 49 68.5t57 25.5h39l-41 39q-20 6 -28 20l-13 -36 q-20 -70 -73 -70h-84zM1294 1403q-18 -55 15 -55h245q37 0 56 55l63 170q8 25 1 38t-17 13h-246q-10 0 -27.5 -13.5t-25.5 -37.5z" />
<glyph unicode="&#xfd;" d="M227 494q0 14 2 28.5t9 28.5l233 637q14 43 49 68.5t58 25.5h456q16 0 32.5 -11t25.5 -34l67 -66q-2 0 -3 1l-1 2l6 -5q6 -6 15 -22l14 41q10 29 27 47h-91q-18 0 -28 10l-78 76q-33 6 -33 49q0 18 6 43l183 193q39 45 98 45h190q37 0 53.5 -13.5t26.5 -33.5l68 -68h-2 l6 -4q10 -10 16 -24.5t10 -30.5l-184 -189h2l-6 -6h264q16 0 31.5 -11t24.5 -32l2 -2l67 -66q-2 0 -3 1l-1 2l6 -5q20 -20 21 -51q0 -20 -8 -39h-3l-231 -639q-10 -31 -37.5 -64.5t-63.5 -61t-79 -45t-84 -17.5h-137q-6 0 -13.5 -8t-11.5 -17h-2l-86 -245q-39 -94 -104 -95 h-457q-27 0 -41 15l-76 75q-37 12 -37 62q0 10 2 23.5t13 31.5l55 158q-51 4 -94 47l-60 57q-35 20 -59.5 55t-24.5 83zM255 470q7 -32 27.5 -55.5t47 -36.5t51.5 -13h121q10 0 17 -11.5t1 -25.5l-88 -246q-16 -39 -8 -60.5t33 -21.5h456q53 0 86 82l88 246q4 10 17.5 23.5 t25.5 13.5h138q39 0 77.5 16t72.5 42t59.5 56.5t35.5 59.5l234 641q12 35 0 55t-29 20h-422q-16 0 -42.5 -20.5t-39.5 -54.5l-200 -547q-10 -27 -37 -36t-59 -9q-20 0 -36 10t-20 35l201 547q12 35 0 55t-29 20h-456q-16 0 -43 -20.5t-39 -54.5l-234 -641q-14 -37 -7 -69z M1020 1403q-18 -55 14 -55h234q16 0 39.5 12t44.5 35l174 178q-6 20 -16.5 35.5t-45.5 15.5h-190q-47 0 -80 -37z" />
<glyph unicode="&#xfe;" horiz-adv-x="1497" d="M55 31q0 25 13 55l401 1100q16 43 51 69.5t58 26.5h456q16 0 30.5 -10t22.5 -29l74 -74q19 -22 19 -51q0 -10 -2 -14h358q47 0 83 -20.5t54 -57.5l66 -63q39 -39 39 -101q0 -16 -2 -31.5t-11 -33.5h-2l-190 -533q-16 -41 -46 -74.5t-67 -60.5t-78 -41t-75 -14h-433 q-18 2 -30 14l-23 23l-49 -136q-14 -27 -47 -57.5t-55 -30.5h-469q-23 0 -35 13l-76 75q-35 8 -35 56zM84 22.5q2 -22.5 25 -22.5h469q8 0 20 8t24.5 20.5t23.5 27t18 26.5l260 719q8 20 36.5 35.5t59.5 15.5q10 0 24.5 -1t25.5 -6t17.5 -15.5t-0.5 -28.5l-120 -336 q-14 -35 -30.5 -44t-39.5 -11h-29q-23 0 -35 -21.5t-22 -32.5l-39 -106q-10 -31 -10 -43q0 -16 22 -21h430q33 0 71 13.5t72 38t62.5 57.5t42.5 70l193 532q14 39 10 71.5t-21.5 57.5t-46 38t-61.5 13h-512l37 101q14 35 2 56t-29 21h-456q-16 0 -43 -21.5t-41 -55.5 l-402 -1104q-10 -29 -8 -51.5z" />
<glyph unicode="&#xff;" d="M227 494q0 14 2 28.5t9 28.5l233 637q14 43 49 68.5t58 25.5h290l-41 39q-33 6 -32 49q0 16 6 41l61 162q10 37 38 57.5t44 20.5h246q14 0 27.5 -10.5t17.5 -28.5l72 -70l2 -2l4 -8l16 41q10 37 38 57.5t44 20.5h246q31 0 45 -37l74 -74q14 -14 14 -37q0 -6 -1 -9t-1 -7 l-68 -182q-4 -8 -5 -13.5t-5 -9.5h8q16 0 31.5 -11t24.5 -32l2 -2l69 -68q20 -20 21 -51q0 -20 -8 -39h-3l-231 -639q-10 -31 -37.5 -64.5t-63.5 -61t-79 -45t-84 -17.5h-137q-6 0 -13.5 -8t-11.5 -17h-2l-86 -245q-39 -94 -104 -95h-457q-27 0 -41 15l-76 75q-37 12 -37 62 q0 10 2 23.5t13 31.5l55 158q-51 4 -94 47l-60 57q-35 20 -59.5 55t-24.5 83zM255 470q7 -32 27.5 -55.5t47 -36.5t51.5 -13h121q10 0 17 -11.5t1 -25.5l-88 -246q-16 -39 -8 -60.5t33 -21.5h456q53 0 86 82l88 246q4 10 17.5 23.5t25.5 13.5h138q39 0 77.5 16t72.5 42 t59.5 56.5t35.5 59.5l234 641q12 35 0 55t-29 20h-422q-16 0 -42.5 -20.5t-39.5 -54.5l-200 -547q-10 -27 -37 -36t-59 -9q-20 0 -36 10t-20 35l201 547q12 35 0 55t-29 20h-456q-16 0 -43 -20.5t-39 -54.5l-234 -641q-14 -37 -7 -69zM827 1403q-18 -55 15 -55h245 q37 0 56 55l63 170q8 25 1 38t-17 13h-246q-10 0 -27.5 -13.5t-25.5 -37.5zM1096 1235l65 -66q6 -6 15 -22l14 41q14 43 49 68.5t57 25.5h39l-41 39q-20 6 -28 20l-13 -36q-20 -70 -73 -70h-84zM1294 1403q-18 -55 15 -55h245q37 0 56 55l63 170q8 25 1 38t-17 13h-246 q-10 0 -27.5 -13.5t-25.5 -37.5z" />
<glyph unicode="&#x152;" horiz-adv-x="2455" d="M94 133q0 16 2 28.5t6 22.5l330 899q12 35 44 70t72 63.5t81 47t76 18.5h1968q37 0 57 -6t25 -31l77 -76q10 -10 11 -32q0 -18 -15 -56l-106 -293q-18 -47 -52 -69.5t-59 -22.5h-422q-25 0 -39 15l-75 73q-25 10 -35 35l-53 -143h370q39 -12 41 -37l78 -76q10 -10 10 -28 q0 -10 -5 -22.5t-9 -27.5h-2l-41 -114q-12 -27 -28.5 -43.5t-43.5 -16.5h-456q-20 0 -34 -6t-22 -22h-2l-10 -31h502q39 -12 41 -37l78 -76q10 -10 10 -28q0 -10 -5 -22.5t-10 -27.5l-43 -112l-2 -2q-10 -16 -26.5 -38t-42.5 -22h-1995q-55 0 -102 47l-60 60 q-35 18 -59.5 55t-24.5 84zM124 107.5q7 -31.5 26.5 -56t46 -38t51.5 -13.5h1995q23 0 35 21.5t20 31.5l41 109q10 27 11 43t-21 20h-576q-27 0 -44 13.5t-15 29.5l41 115q10 25 28.5 33t44.5 8h457q20 0 33.5 15.5t23.5 37.5l39 109q10 27 11.5 43t-21.5 20h-467 q-39 0 -42 10.5t5 32.5l109 299q20 25 29.5 31t35.5 6h70q23 -12 14 -45l-34 -92q-12 -37 -5 -59.5t31 -22.5h422q20 0 48 19.5t44 60.5l107 291q18 53 7 64t-52 11h-1968q-31 0 -69 -16t-74 -42t-64.5 -58.5t-40.5 -63.5l-328 -899q-12 -37 -5 -68.5zM731 270l260 717 q10 23 39 33t49 10q25 0 49.5 -7t12.5 -44l-64 -172q-14 -39 -6 -60.5t33 -21.5h184l-96 -266h-184q-16 0 -43 -19.5t-41 -54.5l-41 -115q-10 -27 -37 -36t-60 -9q-20 0 -36.5 10.5t-18.5 34.5zM944 455q37 31 64 30h168l45 127h-25q-27 0 -41 15l-76 75q-25 10 -35 35z" />
<glyph unicode="&#x153;" horiz-adv-x="2455" d="M94 133q0 16 2 28.5t6 22.5l330 899q12 35 44 70t72 63.5t81 47t76 18.5h1968q37 0 57 -6t25 -31l77 -76q10 -10 11 -32q0 -18 -15 -56l-106 -293q-18 -47 -52 -69.5t-59 -22.5h-422q-25 0 -39 15l-75 73q-25 10 -35 35l-53 -143h370q39 -12 41 -37l78 -76q10 -10 10 -28 q0 -10 -5 -22.5t-9 -27.5h-2l-41 -114q-12 -27 -28.5 -43.5t-43.5 -16.5h-456q-20 0 -34 -6t-22 -22h-2l-10 -31h502q39 -12 41 -37l78 -76q10 -10 10 -28q0 -10 -5 -22.5t-10 -27.5l-43 -112l-2 -2q-10 -16 -26.5 -38t-42.5 -22h-1995q-55 0 -102 47l-60 60 q-35 18 -59.5 55t-24.5 84zM124 107.5q7 -31.5 26.5 -56t46 -38t51.5 -13.5h1995q23 0 35 21.5t20 31.5l41 109q10 27 11 43t-21 20h-576q-27 0 -44 13.5t-15 29.5l41 115q10 25 28.5 33t44.5 8h457q20 0 33.5 15.5t23.5 37.5l39 109q10 27 11.5 43t-21.5 20h-467 q-39 0 -42 10.5t5 32.5l109 299q20 25 29.5 31t35.5 6h70q23 -12 14 -45l-34 -92q-12 -37 -5 -59.5t31 -22.5h422q20 0 48 19.5t44 60.5l107 291q18 53 7 64t-52 11h-1968q-31 0 -69 -16t-74 -42t-64.5 -58.5t-40.5 -63.5l-328 -899q-12 -37 -5 -68.5zM731 270l260 717 q10 23 39 33t49 10q25 0 49.5 -7t12.5 -44l-64 -172q-14 -39 -6 -60.5t33 -21.5h184l-96 -266h-184q-16 0 -43 -19.5t-41 -54.5l-41 -115q-10 -27 -37 -36t-60 -9q-20 0 -36.5 10.5t-18.5 34.5zM944 455q37 31 64 30h168l45 127h-25q-27 0 -41 15l-76 75q-25 10 -35 35z" />
<glyph unicode="&#x178;" d="M227 494q0 14 2 28.5t9 28.5l233 637q14 43 49 68.5t58 25.5h290l-41 39q-33 6 -32 49q0 16 6 41l61 162q10 37 38 57.5t44 20.5h246q14 0 27.5 -10.5t17.5 -28.5l72 -70l2 -2l4 -8l16 41q10 37 38 57.5t44 20.5h246q31 0 45 -37l74 -74q14 -14 14 -37q0 -6 -1 -9t-1 -7 l-68 -182q-4 -8 -5 -13.5t-5 -9.5h8q16 0 31.5 -11t24.5 -32l2 -2l69 -68q20 -20 21 -51q0 -20 -8 -39h-3l-231 -639q-10 -31 -37.5 -64.5t-63.5 -61t-79 -45t-84 -17.5h-137q-6 0 -13.5 -8t-11.5 -17h-2l-86 -245q-39 -94 -104 -95h-457q-27 0 -41 15l-76 75q-37 12 -37 62 q0 10 2 23.5t13 31.5l55 158q-51 4 -94 47l-60 57q-35 20 -59.5 55t-24.5 83zM255 470q7 -32 27.5 -55.5t47 -36.5t51.5 -13h121q10 0 17 -11.5t1 -25.5l-88 -246q-16 -39 -8 -60.5t33 -21.5h456q53 0 86 82l88 246q4 10 17.5 23.5t25.5 13.5h138q39 0 77.5 16t72.5 42 t59.5 56.5t35.5 59.5l234 641q12 35 0 55t-29 20h-422q-16 0 -42.5 -20.5t-39.5 -54.5l-200 -547q-10 -27 -37 -36t-59 -9q-20 0 -36 10t-20 35l201 547q12 35 0 55t-29 20h-456q-16 0 -43 -20.5t-39 -54.5l-234 -641q-14 -37 -7 -69zM827 1403q-18 -55 15 -55h245 q37 0 56 55l63 170q8 25 1 38t-17 13h-246q-10 0 -27.5 -13.5t-25.5 -37.5zM1096 1235l65 -66q6 -6 15 -22l14 41q14 43 49 68.5t57 25.5h39l-41 39q-20 6 -28 20l-13 -36q-20 -70 -73 -70h-84zM1294 1403q-18 -55 15 -55h245q37 0 56 55l63 170q8 25 1 38t-17 13h-246 q-10 0 -27.5 -13.5t-25.5 -37.5z" />
<glyph unicode="&#x2c6;" horiz-adv-x="1015" d="M446 1106q0 6 2.5 19.5t10.5 29.5l172 174q18 18 56 39t67 21h397q41 0 59.5 -14.5t26.5 -37.5l72 -69q14 -16 20 -43h2l47 -176q-27 -76 -78 -76h-233q-25 0 -41 16l-74 72l-32 -33q-23 -29 -50.5 -42t-48.5 -13h-233q-20 0 -33 12l-76 74q-33 6 -33 47zM481 1141 q-23 -55 15 -56h233q16 0 40 12.5t42 35.5l98 98l23 -98q12 -47 43 -48h233q33 0 56 56l-45 170q-4 20 -18.5 35.5t-49.5 15.5h-397q-23 0 -55.5 -17.5t-49.5 -33.5z" />
<glyph unicode="&#x2dc;" horiz-adv-x="1208" d="M446 1106q0 6 2.5 19.5t10.5 29.5l172 174q18 18 56 39t67 21h307q45 0 63 -48l45 -45l37 37q23 29 51.5 42.5t49.5 13.5h194q41 0 47 -37l76 -74q12 -12 12 -31q0 -8 -2 -18t-10 -27l-170 -172q-18 -18 -55 -37.5t-64 -19.5h-268q-25 0 -41 16l-74 72l-34 -35 q-23 -29 -50.5 -41t-46.5 -12h-233q-20 0 -33 12l-76 74q-33 6 -33 47zM481 1141q-23 -55 15 -56h233q16 0 40 12.5t42 35.5l98 98l23 -98q12 -47 43 -48h268q23 0 55.5 17.5t49.5 34.5l168 170q20 55 -15 55h-194q-16 0 -40 -12.5t-42 -34.5l-99 -98l-22 98q-12 47 -43 47 h-307q-23 0 -55.5 -17.5t-49.5 -33.5z" />
<glyph unicode="&#x2000;" horiz-adv-x="825" />
<glyph unicode="&#x2001;" horiz-adv-x="1651" />
<glyph unicode="&#x2002;" horiz-adv-x="825" />
<glyph unicode="&#x2003;" horiz-adv-x="1651" />
<glyph unicode="&#x2004;" horiz-adv-x="550" />
<glyph unicode="&#x2005;" horiz-adv-x="412" />
<glyph unicode="&#x2006;" horiz-adv-x="275" />
<glyph unicode="&#x2007;" horiz-adv-x="275" />
<glyph unicode="&#x2008;" horiz-adv-x="206" />
<glyph unicode="&#x2009;" horiz-adv-x="330" />
<glyph unicode="&#x200a;" horiz-adv-x="91" />
<glyph unicode="&#x2010;" horiz-adv-x="761" d="M205 444q0 10 3 24.5t13 31.5l37 106l10 10q14 20 30.5 39t39.5 19h455q18 0 28 -9.5t15 -21.5l79 -78q6 -6 8.5 -15t2.5 -20q0 -6 -1 -11t-1 -9v-6l-41 -117q-12 -31 -25.5 -51.5t-46.5 -26.5h-469q-18 2 -29 13l-75 75q-33 8 -33 47zM231.5 443q-2.5 -17 20.5 -21h463 q25 4 36 21.5t21 43.5l39 109q2 10 3 30.5t-21 20.5h-455q-23 0 -35 -22.5t-22 -32.5l-37 -105q-10 -27 -12.5 -44z" />
<glyph unicode="&#x2011;" horiz-adv-x="761" d="M205 444q0 10 3 24.5t13 31.5l37 106l10 10q14 20 30.5 39t39.5 19h455q18 0 28 -9.5t15 -21.5l79 -78q6 -6 8.5 -15t2.5 -20q0 -6 -1 -11t-1 -9v-6l-41 -117q-12 -31 -25.5 -51.5t-46.5 -26.5h-469q-18 2 -29 13l-75 75q-33 8 -33 47zM231.5 443q-2.5 -17 20.5 -21h463 q25 4 36 21.5t21 43.5l39 109q2 10 3 30.5t-21 20.5h-455q-23 0 -35 -22.5t-22 -32.5l-37 -105q-10 -27 -12.5 -44z" />
<glyph unicode="&#x2012;" horiz-adv-x="761" d="M205 444q0 10 3 24.5t13 31.5l37 106l10 10q14 20 30.5 39t39.5 19h455q18 0 28 -9.5t15 -21.5l79 -78q6 -6 8.5 -15t2.5 -20q0 -6 -1 -11t-1 -9v-6l-41 -117q-12 -31 -25.5 -51.5t-46.5 -26.5h-469q-18 2 -29 13l-75 75q-33 8 -33 47zM231.5 443q-2.5 -17 20.5 -21h463 q25 4 36 21.5t21 43.5l39 109q2 10 3 30.5t-21 20.5h-455q-23 0 -35 -22.5t-22 -32.5l-37 -105q-10 -27 -12.5 -44z" />
<glyph unicode="&#x2013;" horiz-adv-x="761" d="M205 444q0 10 3 24.5t13 31.5l37 106l10 10q14 20 30.5 39t39.5 19h455q18 0 28 -9.5t15 -21.5l79 -78q6 -6 8.5 -15t2.5 -20q0 -6 -1 -11t-1 -9v-6l-41 -117q-12 -31 -25.5 -51.5t-46.5 -26.5h-469q-18 2 -29 13l-75 75q-33 8 -33 47zM231.5 443q-2.5 -17 20.5 -21h463 q25 4 36 21.5t21 43.5l39 109q2 10 3 30.5t-21 20.5h-455q-23 0 -35 -22.5t-22 -32.5l-37 -105q-10 -27 -12.5 -44z" />
<glyph unicode="&#x2014;" horiz-adv-x="919" d="M205 444q0 10 3 24.5t13 31.5l37 106l10 10q14 20 30.5 39t39.5 19h612q18 0 28.5 -9.5t14.5 -21.5l80 -78q6 -6 8 -15t2 -20q0 -6 -1 -11t-1 -9v-6l-41 -117q-12 -31 -25.5 -51.5t-45.5 -26.5h-627q-18 2 -29 13l-75 75q-33 8 -33 47zM231.5 443q-2.5 -17 20.5 -21h620 q25 4 36.5 21.5t21.5 43.5l39 109q2 10 3 30.5t-22 20.5h-612q-23 0 -35 -22.5t-22 -32.5l-37 -105q-10 -27 -12.5 -44z" />
<glyph unicode="&#x2018;" horiz-adv-x="729" d="M356 854q0 8 2 20.5t7 22.5l63 172q4 8 30.5 26.5t66.5 42t87 48t91.5 46t79 35t51.5 13.5h129q47 0 57 -39l76 -74q14 -14 14 -41q0 -20 -12 -53l-105 -287q-14 -41 -46 -65.5t-54 -24.5h-383q-20 0 -35 15l-76 73q-16 6 -29.5 23.5t-13.5 46.5zM389 829.5 q12 -20.5 29 -20.5h383q16 0 42.5 20.5t39.5 55.5l104 286q27 82 -24 82h-129q-25 0 -85.5 -27.5t-125 -63.5t-116.5 -68.5t-58 -44.5l-60 -164q-12 -35 0 -55.5z" />
<glyph unicode="&#x2019;" horiz-adv-x="729" d="M354 846q0 18 13 55l104 287q14 43 49 68.5t58 25.5h383q16 0 31.5 -11t23.5 -32l2 -2l67 -66q-2 0 -3 1l-1 2l6 -5q20 -20 21 -51q0 -20 -8 -39h-2l-62 -174q-4 -8 -30.5 -26.5t-65.5 -41t-85 -47t-89 -45t-78 -34t-51 -13.5h-129q-27 0 -41 15l-76 73q-37 12 -37 60z M391 893q-27 -82 25 -82h129q25 0 85 27.5t124.5 63.5t117 69t58.5 45l59 164q12 35 0 55t-28 20h-383q-16 0 -43 -20.5t-39 -54.5z" />
<glyph unicode="&#x201a;" horiz-adv-x="727" d="M-10 -156q0 18 12 56l162 444q14 43 49 68.5t57 25.5h383q16 0 31.5 -11t24.5 -32l2 -2l69 -67q20 -20 21 -52q0 -20 -8 -38h-2l-123 -342q-6 -12 -59.5 -45t-120 -67t-129 -59.5t-87.5 -25.5h-129q-27 0 -41 14l-75 76q-18 4 -27.5 19.5t-9.5 37.5zM27 -109 q-27 -82 24 -81h129q14 0 48 12t74 30.5t84 40t81 43t62.5 39t29.5 25.5l123 336q12 35 0 55.5t-29 20.5h-383q-16 0 -42.5 -20.5t-39.5 -55.5z" />
<glyph unicode="&#x201c;" horiz-adv-x="1286" d="M356 854q0 8 2 20.5t7 22.5l63 172q4 8 30.5 26.5t66.5 42t87 48t91.5 46t79 35t51.5 13.5h129q47 0 57 -39l76 -74q8 -8 12 -24q29 16 59.5 32.5t61.5 32.5q53 29 99 50.5t63 21.5h129q47 0 57 -39l76 -74q14 -14 14 -41q0 -20 -12 -53l-105 -287q-14 -41 -45.5 -65.5 t-54.5 -24.5h-383q-20 0 -35 15l-51 49q-16 -29 -44 -46.5t-44 -17.5h-383q-20 0 -35 15l-76 73q-16 6 -29.5 23.5t-13.5 46.5zM389 829.5q12 -20.5 29 -20.5h383q16 0 42.5 20.5t39.5 55.5l104 286q27 82 -24 82h-129q-25 0 -85.5 -27.5t-125 -63.5t-116.5 -68.5t-58 -44.5 l-60 -164q-12 -35 0 -55.5zM946 829.5q12 -20.5 29 -20.5h383q16 0 42.5 20.5t39.5 55.5l104 286q27 82 -24 82h-129q-14 0 -48 -13t-76 -32.5t-87 -44t-83 -47t-63.5 -41t-27.5 -26.5l-60 -164q-12 -35 0 -55.5z" />
<glyph unicode="&#x201d;" horiz-adv-x="1286" d="M354 846q0 18 13 55l104 287q14 43 49 68.5t58 25.5h383q16 0 32.5 -11t24.5 -34l22 -23q18 31 46 49.5t49 18.5h383q16 0 32.5 -11t24.5 -34l67 -66q-2 0 -3 1l-1 2l7 -5q20 -20 20 -51q0 -20 -8 -39h-2l-62 -174q-4 -8 -30.5 -26.5t-65.5 -41t-85 -47t-89 -45t-78 -34 t-51 -13.5h-129q-27 0 -41 15l-76 73q-25 10 -35 35q-37 -23 -79.5 -44t-81.5 -38.5t-70 -29t-45 -11.5h-129q-27 0 -41 15l-76 73q-37 12 -37 60zM391 893q-27 -82 25 -82h129q25 0 85 27.5t124.5 63.5t117 69t58.5 45l59 164q12 35 0 55t-28 20h-383q-16 0 -43 -20.5 t-39 -54.5zM948 893q-27 -82 25 -82h129q25 0 85 27.5t124.5 63.5t117 69t58.5 45l59 164q12 35 0 55t-28 20h-383q-16 0 -43 -20.5t-39 -54.5z" />
<glyph unicode="&#x201e;" horiz-adv-x="1296" d="M-10 -156q0 18 12 56l162 444q14 43 49 68.5t57 25.5h383q16 0 32.5 -11t25.5 -34l28 -28q16 35 47 54t52 19h383q16 0 32.5 -11t24.5 -34l68 -65q-2 0 -4 1l-1 1l7 -4q20 -20 20 -52q0 -20 -8 -38h-2l-123 -342q-6 -12 -59.5 -45t-120 -67t-129 -59.5t-86.5 -25.5h-129 q-27 0 -41 14l-76 76q-25 6 -35 35q-39 -23 -83 -44.5t-84 -40t-72.5 -29.5t-47.5 -11h-129q-27 0 -41 14l-75 76q-18 4 -27.5 19.5t-9.5 37.5zM27 -109q-27 -82 24 -81h129q14 0 48 12t74 30.5t84 40t81 43t62.5 39t29.5 25.5l123 336q12 35 0 55.5t-29 20.5h-383 q-16 0 -42.5 -20.5t-39.5 -55.5zM594 -109q-27 -82 24 -81h130q14 0 47.5 12t73.5 30.5t84 40t81 43t62.5 39t29.5 25.5l123 336q12 35 0 55.5t-28 20.5h-383q-16 0 -43 -20.5t-39 -55.5z" />
<glyph unicode="&#x2022;" d="M94 133q0 16 2 28.5t6 22.5l330 899q12 35 44 70t72 63.5t81 47t76 18.5h884q47 0 83 -20.5t54 -57.5l66 -63q39 -39 39 -101q0 -16 -2 -31.5t-10 -33.5h-2l-326 -897q-12 -31 -39 -64.5t-63.5 -61.5t-78.5 -46.5t-83 -18.5h-887q-55 0 -102 47l-60 60q-35 18 -59.5 55 t-24.5 84zM124 107.5q7 -31.5 26.5 -56t46 -38t51.5 -13.5h887q39 0 77.5 16.5t72.5 42t59.5 57t35.5 60.5l328 899q14 39 10 72t-21.5 57.5t-46 37.5t-61.5 13h-884q-31 0 -69 -16t-74 -42t-64.5 -58.5t-40.5 -63.5l-328 -899q-12 -37 -5 -68.5z" />
<glyph unicode="&#x2026;" horiz-adv-x="1845" d="M59 39q0 10 2 23.5t13 31.5l90 250q14 43 49 68.5t57 25.5h383q16 0 32.5 -11t25.5 -34l22 -22q18 31 47 49t49 18h383q16 0 33 -11t25 -34l22 -22q18 31 47 49t50 18h383q16 0 32.5 -11t24.5 -34l69 -67q20 -20 21 -52q0 -20 -8 -38h-2l-90 -254q-39 -94 -105 -95h-383 q-27 0 -41 15l-47 47q-37 -61 -88 -62h-383q-27 0 -41 15l-47 47q-37 -61 -88 -62h-383q-27 0 -41 15l-76 75q-37 12 -37 62zM88 21.5q8 -21.5 33 -21.5h383q53 0 86 82l92 254q12 35 0 55.5t-29 20.5h-383q-16 0 -42.5 -20.5t-39.5 -55.5l-92 -254q-16 -39 -8 -60.5z M647 21.5q8 -21.5 33 -21.5h383q53 0 86 82l92 254q12 35 0 55.5t-29 20.5h-383q-16 0 -42.5 -20.5t-38.5 -55.5l-93 -254q-16 -39 -8 -60.5zM1206 21.5q8 -21.5 33 -21.5h383q53 0 86 82l92 254q12 35 0 55.5t-28 20.5h-383q-16 0 -43 -20.5t-39 -55.5l-93 -254 q-16 -39 -8 -60.5z" />
<glyph unicode="&#x202f;" horiz-adv-x="330" />
<glyph unicode="&#x2039;" horiz-adv-x="698" d="M225 541l430 313q25 10 35 10q35 0 60 -41l8 -12l65 -66q10 -10 15 -18l51 -80v-10q2 -8 4 -14.5t2 -12.5q0 -4 -2 -11t-4 -11h-2q-6 -14 -19 -27l-172 -125l84 -127q0 -2 1 -5t1 -7t-1 -8t-1 -8q-6 -14 -16 -27.5t-21 -24.5l-110 -79q-43 -35 -74 -35q-6 0 -31 10 l-79 80q-12 4 -19 8zM260 535l189 -302q12 -6 18 -6q20 0 61 31l111 80q8 8 16.5 18.5t12.5 20.5q2 14 0 20l-90 138l186 135q12 12 14 18q6 14 1 27.5t-3 19.5l-47 74q-18 29 -39 29q-10 0 -22 -7z" />
<glyph unicode="&#x203a;" horiz-adv-x="698" d="M170 348q0 -6 4 -10v-8l57 -86q0 -6 7 -8q0 -2 2 -3l2 -2q12 -23 32 -28l76 -76q12 -12 33 -12q16 0 31 8l4 2l424 311l-205 320l-68 67l-18 29q-25 12 -37 12q-16 0 -33.5 -9t-42.5 -26l-100 -73l-12 -13q-10 -10 -20.5 -22t-16.5 -27q0 -2 -1 -4t-1 -4v-6q0 -12 6 -18 h-2l80 -121l-168 -121q-18 -16 -27 -35q-6 -16 -6 -23v-14zM198 356.5q-1 10.5 3 20.5q4 12 16 20l189 138l-89 135q-6 8 -2 18q6 14 20.5 27.5t18.5 19.5l101 74q41 29 59 29q6 0 18 -7l191 -296l-410 -302q-12 -6 -22 -6q-12 0 -19.5 8.5t-17.5 22.5l-53 80q-2 8 -3 18.5z " />
<glyph unicode="&#x205f;" horiz-adv-x="412" />
<glyph unicode="&#x20ac;" horiz-adv-x="1650" d="M154 303q0 10 3 24.5t13 30.5l37 107l10 10q14 20 30.5 38.5t39.5 18.5h73l-53 52q-35 12 -35 51q0 12 4.5 24.5t10.5 28.5l41 109v-2q0 8 6 8q0 2 1 3t1 3q10 18 24.5 35.5t45.5 17.5h110l82 221q12 35 44 70t72 63.5t81 47t75 18.5h885q47 0 83 -20.5t54 -57.5l66 -63 q39 -39 39 -101q0 -16 -2 -31.5t-10 -33.5h-3l-96 -270q-18 -47 -46 -70t-56 -23h-408q-27 0 -41 15l-32 32l-27 -75q0 -2 -1 -4t-1 -5q-12 -33 -25.5 -52t-46.5 -25h-78l-2 -9l19 -22q27 18 47 18h407q39 0 56 -41l71 -71q18 -18 19 -47q0 -16 -8 -39l-76 -209 q-12 -31 -39 -64.5t-63.5 -61.5t-78.5 -46.5t-83 -18.5h-887q-55 0 -103 47l-59 60q-35 18 -59.5 55t-24.5 84q0 14 1 23.5t3 19.5l-1 1t-1 3l-76 76q-33 8 -32 47zM180.5 302q-2.5 -17 20.5 -21h133l-39 -105q-12 -37 -5 -68.5t26.5 -56t46 -38t51.5 -13.5h886 q39 0 78 16.5t73 42t59.5 57t35.5 60.5l76 209q14 35 2 54.5t-29 19.5h-407q-16 0 -43 -19.5t-41 -54.5l-41 -115q-10 -27 -41 -36t-64 -9q-20 0 -39.5 10.5t-21.5 34.5l4 11h86q25 4 36 21t21 44l39 109q2 10 3 30.5t-21 20.5h-82l37 104h86q27 4 37 21.5t20 44.5l39 108 q4 12 4 31q0 20 -22 21h-82l55 151q10 23 42 33t52 10q10 0 24.5 -1t27 -6t18.5 -15.5t0 -28.5l-64 -172q-14 -39 -5.5 -60.5t32.5 -21.5h408q51 0 84 80l98 270q14 39 10 72t-21.5 57.5t-46 37.5t-61.5 13h-885q-31 0 -68.5 -16t-73.5 -42t-64.5 -58.5t-40.5 -63.5 l-88 -239h-129q-23 0 -35.5 -22.5t-20.5 -33.5l-39 -104q-10 -27 -11 -44.5t19 -21.5h134l-37 -104h-129q-23 0 -35 -22.5t-23 -32.5l-36 -105q-10 -27 -12.5 -44z" />
<glyph unicode="&#x2122;" horiz-adv-x="997" d="M500 1274h16l86 -86h4l-88 -244h14l86 -86h101l119 330h28l-88 -244h15l86 -86h79l27 76l72 -70q6 -6 26 -6h13q4 0 18 7t43 42l49 -49h82l158 432l-88 88l4 11h-53q-47 0 -90 -27t-99 -107q-4 6 -9 12.5t-9 10.5l-60 59q-16 23 -30.5 38.5t-22.5 15.5q-16 0 -22 -1 t-11 -12q-16 -4 -22 -10l-10 8l6 13h-385zM539 1300l22 62h330l-23 -62h-135l-119 -329h-59l119 329h-135zM815 971l137 379q4 4 19 4q14 0 18 6l-6 2l1 1t5 1q6 0 15.5 -10.5t18.5 -26.5t16.5 -35.5t7.5 -38.5l-5 -20q-2 -27 -3 -49.5t-1 -38.5v-33q0 -14 -2 -29 q23 31 42.5 57.5t41.5 63.5q2 12 8 15q57 86 98.5 114.5t82.5 28.5h16l-141 -391h-41l92 254l-6 28q-68 -98 -110 -154.5t-66.5 -85t-34.5 -35.5t-14 -7h-13q-6 0 -10 3t-4 19l-4 252l-27 -20l-92 -254h-39z" />
<glyph unicode="&#x25fc;" horiz-adv-x="1280" d="M0 0v1280h1280v-1280h-1280z" />
</font>
</defs>
</svg>
